<svg width="14" height="18" viewBox="0 0 14 18" fill="none" xmlns="http://www.w3.org/2000/svg">
<path d="M4 6.35669C4 5.42062 2.73667 5.1725 2.4015 6.04836C1.59074 8.16702 1 10.0623 1 11.087C1 14.3527 3.68629 17 7 17C10.3137 17 13 14.3527 13 11.087C13 9.98611 12.3181 7.88032 11.4141 5.57226C10.2431 2.58242 9.65757 1.0875 8.93479 1.00698C8.70352 0.981213 8.45121 1.02754 8.24487 1.13365C7.6 1.46526 7.6 3.09574 7.6 6.35669C7.6 7.33639 6.79411 8.13059 5.8 8.13059C4.80589 8.13059 4 7.33639 4 6.35669Z" stroke="url(#paint0_linear_9_44)"/>
<defs>
<linearGradient id="paint0_linear_9_44" x1="7" y1="1" x2="7" y2="17" gradientUnits="userSpaceOnUse">
<stop stop-color="#7B2CBF"/>
<stop offset="1" stop-color="#D600E8"/>
</linearGradient>
</defs>
</svg>
