<svg width="17" height="17" viewBox="0 0 17 17" fill="none" xmlns="http://www.w3.org/2000/svg">
<path d="M7.49935 3.16699V3.16699C5.32201 3.16699 4.23335 3.16699 3.39686 3.5795C2.60713 3.96895 1.96798 4.60811 1.57852 5.39784C1.16602 6.23432 1.16602 7.32299 1.16602 9.50032V13.8337C1.16602 14.7765 1.16602 15.2479 1.45891 15.5408C1.7518 15.8337 2.22321 15.8337 3.16602 15.8337H7.49935C9.67668 15.8337 10.7654 15.8337 11.6018 15.4211C12.3916 15.0317 13.0307 14.3925 13.4202 13.6028C13.8327 12.7663 13.8327 11.6777 13.8327 9.50033V9.50033" stroke="url(#paint0_linear_1_2)" stroke-width="1.2"/>
<path d="M5.125 7.91699L9.875 7.91699" stroke="url(#paint1_linear_1_2)" stroke-width="1.2" stroke-linecap="round" stroke-linejoin="round"/>
<path d="M5.125 11.083H7.5" stroke="url(#paint2_linear_1_2)" stroke-width="1.2" stroke-linecap="round" stroke-linejoin="round"/>
<path d="M13.041 6.33301L13.041 1.58301M10.666 3.95801H15.416" stroke="url(#paint3_linear_1_2)" stroke-width="1.2" stroke-linecap="round" stroke-linejoin="round"/>
<defs>
<linearGradient id="paint0_linear_1_2" x1="7.49935" y1="3.16699" x2="7.49935" y2="15.8337" gradientUnits="userSpaceOnUse">
<stop stop-color="#7B2CBF"/>
<stop offset="1" stop-color="#D600E8"/>
</linearGradient>
<linearGradient id="paint1_linear_1_2" x1="7.5" y1="7.91699" x2="7.5" y2="8.91699" gradientUnits="userSpaceOnUse">
<stop stop-color="#7B2CBF"/>
<stop offset="1" stop-color="#D600E8"/>
</linearGradient>
<linearGradient id="paint2_linear_1_2" x1="6.3125" y1="11.083" x2="6.3125" y2="12.083" gradientUnits="userSpaceOnUse">
<stop stop-color="#7B2CBF"/>
<stop offset="1" stop-color="#D600E8"/>
</linearGradient>
<linearGradient id="paint3_linear_1_2" x1="13.041" y1="1.58301" x2="13.041" y2="6.33301" gradientUnits="userSpaceOnUse">
<stop stop-color="#7B2CBF"/>
<stop offset="1" stop-color="#D600E8"/>
</linearGradient>
</defs>
</svg>

