<svg width="42" height="42" viewBox="0 0 42 42" fill="none" xmlns="http://www.w3.org/2000/svg">
<path fillRule="evenodd" clipRule="evenodd" d="M3.5 21C3.5 11.335 11.335 3.5 21 3.5C30.665 3.5 38.5 11.335 38.5 21C38.5 26.5613 35.9059 31.5166 31.8618 34.7221C31.1262 32.6073 29.7868 30.7469 28.0008 29.3764C25.9924 27.8353 23.5315 27 21 27C18.4685 27 16.0077 27.8353 13.9992 29.3764C12.2133 30.7469 10.8738 32.6073 10.1382 34.7221C6.09409 31.5166 3.5 26.5613 3.5 21ZM26.7832 30.9631C28.4102 32.2115 29.5886 33.9521 30.1441 35.9239C27.483 37.5578 24.3515 38.5 21 38.5C17.6485 38.5 14.517 37.5578 11.8559 35.9239C12.4114 33.9521 13.5898 32.2115 15.2168 30.9631C16.8759 29.6901 18.9087 29 21 29C23.0913 29 25.1241 29.6901 26.7832 30.9631ZM16.75 15.75C16.75 13.4028 18.6528 11.5 21 11.5C23.3472 11.5 25.25 13.4028 25.25 15.75C25.25 18.0972 23.3472 20 21 20C18.6528 20 16.75 18.0972 16.75 15.75ZM21 9.5C17.5482 9.5 14.75 12.2982 14.75 15.75C14.75 19.2018 17.5482 22 21 22C24.4518 22 27.25 19.2018 27.25 15.75C27.25 12.2982 24.4518 9.5 21 9.5Z" fill="#968FE5"/>
<rect x="4" y="4" width="34" height="34" rx="17" stroke="#968FE5"/>
</svg>
