    <svg
          width="24"
          height="24"
          viewBox="0 0 24 24"
          fill="none"
          xmlns="http://www.w3.org/2000/svg"
        >
          <path
            fillRule="evenodd"
            clipRule="evenodd"
            d="M11.9999 2C8.6862 2 5.99991 4.68629 5.99991 8V10C5.99991 11.5146 5.50866 12.9883 4.59991 14.2L4.38562 14.4857L4.37127 14.5048L4.37122 14.5049C4.31246 14.5832 4.26469 14.6469 4.23256 14.6976C3.62845 15.6518 4.2556 16.9061 5.38141 16.9953C5.44129 17.0001 5.52089 17 5.61879 17H5.61884L5.64276 17H18.357L18.381 17H18.381C18.4789 17 18.5585 17.0001 18.6184 16.9953C19.7442 16.9061 20.3714 15.6518 19.7673 14.6976C19.7351 14.6468 19.6873 14.5832 19.6285 14.5048L19.6142 14.4857L19.3999 14.2C18.4912 12.9883 17.9999 11.5146 17.9999 10V9.31701C17.9999 9.15272 17.9999 9.07058 17.9531 9.02621C17.9063 8.98184 17.8162 8.98668 17.6362 8.99635C17.591 8.99877 17.5456 9 17.4999 9C17.4542 9 17.4088 8.99877 17.3636 8.99635C17.1836 8.98668 17.0935 8.98184 17.0467 9.02622C16.9999 9.07059 16.9999 9.15273 16.9999 9.31701V10C16.9999 11.731 17.5613 13.4152 18.5999 14.8L18.8142 15.0857C18.8514 15.1353 18.8768 15.1692 18.8956 15.1949C18.9048 15.2075 18.9113 15.2165 18.9159 15.2231L18.9209 15.2303L18.9216 15.2314C18.922 15.232 18.9223 15.2324 18.9223 15.2325L18.9224 15.2325C19.1237 15.5506 18.9147 15.9687 18.5394 15.9984C18.5395 15.9984 18.5387 15.9985 18.5367 15.9986L18.528 15.999C18.5247 15.9991 18.5208 15.9992 18.5164 15.9993C18.51 15.9994 18.5024 15.9995 18.4933 15.9996C18.4614 16 18.419 16 18.357 16H5.64276C5.58079 16 5.53846 16 5.50655 15.9996C5.49097 15.9995 5.4799 15.9992 5.47181 15.999L5.46309 15.9986C5.46115 15.9985 5.46033 15.9984 5.46041 15.9984C5.08514 15.9687 4.87609 15.5506 5.07746 15.2325L5.07768 15.2322C5.07791 15.2318 5.07832 15.2312 5.07894 15.2303L5.08388 15.2231C5.08852 15.2165 5.09497 15.2075 5.10418 15.1949C5.12304 15.1692 5.14844 15.1353 5.18562 15.0857L5.39991 14.8C6.43848 13.4152 6.99991 11.731 6.99991 10V8C6.99991 5.23858 9.23848 3 11.9999 3C13.3855 3 14.6395 3.56364 15.5451 4.47414C15.6495 4.57912 15.7017 4.63162 15.7577 4.63565C15.8137 4.63969 15.8757 4.59307 15.9998 4.49985C16.0746 4.44369 16.1526 4.39163 16.2335 4.34399C16.4106 4.23977 16.4991 4.18766 16.5091 4.11574C16.519 4.04383 16.4567 3.97879 16.332 3.84872C15.2399 2.70937 13.7027 2 11.9999 2Z"
            fill="#222222"
          />
          <circle cx="17.5" cy="6.5" r="1.5" fill="#222222" />
          <path
            d="M9.58519 18.647C9.72762 19.1786 10.0415 19.6484 10.4781 19.9834C10.9147 20.3184 11.4497 20.5 12 20.5C12.5503 20.5 13.0853 20.3184 13.5219 19.9834C13.9585 19.6484 14.2724 19.1786 14.4148 18.647"
            stroke="#222222"
            strokeLinecap="round"
          />
        </svg>