<svg width="602" height="400" viewBox="0 0 602 400" fill="none" xmlns="http://www.w3.org/2000/svg">
<g clip-path="url(#clip0_1005_1321)">
<path d="M215.938 230.203C236.569 193.918 275.922 166.057 317.581 168.741C286.852 202.152 268.934 245.352 266.996 290.7C266.312 308.191 267.372 327.717 255.756 340.815C248.529 348.964 237.482 352.911 226.62 353.739C215.757 354.567 204.897 352.605 194.18 350.651L191.58 351.449C190.59 309.722 195.308 266.489 215.938 230.203Z" fill="#F0F0F0"/>
<path d="M317.643 169.615C286.837 184.443 260.569 209.206 244.444 239.407C240.958 245.936 237.989 252.863 236.695 260.187C235.399 267.515 236.304 274.489 238.807 281.449C241.096 287.811 244.173 294.054 244.875 300.861C245.615 308.037 242.974 314.746 238.221 320.071C232.405 326.586 224.594 330.623 216.819 334.306C208.187 338.395 199.155 342.505 193.041 350.136C192.3 351.061 190.908 349.858 191.648 348.934C202.286 335.657 220.496 333.161 233.123 322.466C239.015 317.475 243.439 310.679 243.16 302.716C242.916 295.752 239.748 289.312 237.375 282.89C234.883 276.147 233.641 269.367 234.534 262.178C235.448 254.824 238.152 247.766 241.456 241.176C248.907 226.314 259.104 212.67 270.786 200.876C284.211 187.318 299.857 176.157 317.047 167.874C318.111 167.362 318.7 169.106 317.643 169.615Z" fill="white"/>
<path d="M249.167 229.314C244.444 225.861 241.103 220.842 239.74 215.154C238.376 209.466 239.08 203.478 241.724 198.26C242.263 197.206 243.926 197.994 243.387 199.049C240.915 203.903 240.261 209.481 241.541 214.775C242.821 220.07 245.953 224.732 250.369 227.921C251.328 228.615 250.121 230.004 249.167 229.314Z" fill="white"/>
<path d="M237.222 278.376C249.056 276.647 259.803 270.522 267.321 261.222C268.065 260.3 269.457 261.503 268.714 262.424C260.873 272.087 249.675 278.438 237.357 280.21C236.182 280.378 236.054 278.543 237.222 278.376Z" fill="white"/>
<path d="M285.12 189.582C286.669 191.299 288.62 192.604 290.798 193.38C292.976 194.156 295.313 194.38 297.599 194.03C298.77 193.847 298.898 195.683 297.734 195.865C295.207 196.239 292.626 195.989 290.218 195.137C287.809 194.285 285.647 192.855 283.918 190.975C283.74 190.811 283.632 190.586 283.614 190.345C283.596 190.104 283.671 189.865 283.823 189.677C283.983 189.494 284.209 189.381 284.452 189.363C284.695 189.345 284.935 189.424 285.12 189.582Z" fill="white"/>
<path d="M400.468 283.208C399.74 283.343 399.012 283.478 398.277 283.627C388.495 285.493 378.881 288.15 369.529 291.572C368.802 291.825 368.069 292.093 367.351 292.366C344.909 300.851 324.237 313.429 306.387 329.459C299.291 335.844 292.69 342.76 286.642 350.147C278.291 360.348 270.048 372.074 259.135 378.726C258.004 379.432 256.831 380.068 255.621 380.63L192.754 354.558C192.641 354.427 192.521 354.31 192.407 354.179L189.85 353.253C190.135 352.85 190.439 352.439 190.725 352.036C190.889 351.802 191.068 351.573 191.232 351.339C191.346 351.184 191.461 351.03 191.555 350.884C191.593 350.833 191.632 350.782 191.664 350.744C191.758 350.599 191.861 350.473 191.949 350.342C193.645 348.036 195.36 345.739 197.094 343.449C197.1 343.435 197.1 343.435 197.12 343.427C210.379 326.016 225.208 309.559 242.064 295.875C242.571 295.464 243.084 295.037 243.62 294.638C251.252 288.512 259.372 283.02 267.899 278.217C272.577 275.602 277.384 273.225 282.302 271.096C295.019 265.62 308.52 262.177 322.307 260.895C349.793 258.343 377.79 264.609 398.871 281.873C399.41 282.315 399.935 282.751 400.468 283.208Z" fill="#F0F0F0"/>
<path d="M399.997 283.947C366.471 277.241 330.586 281.201 299.524 295.609C292.809 298.723 286.268 302.467 280.824 307.536C275.377 312.606 271.9 318.72 269.708 325.783C267.704 332.241 266.401 339.078 262.862 344.936C259.132 351.11 252.983 354.878 245.982 356.268C237.415 357.969 228.748 356.491 220.322 354.751C210.967 352.819 201.281 350.664 191.803 353.077C190.655 353.369 190.269 351.571 191.415 351.279C207.904 347.081 223.947 356.05 240.47 355.112C248.179 354.674 255.804 351.91 260.376 345.384C264.375 339.677 265.723 332.627 267.696 326.072C269.767 319.188 272.858 313.027 277.901 307.825C283.059 302.503 289.467 298.495 296.074 295.222C310.972 287.842 327.33 283.086 343.76 280.7C362.643 277.957 381.857 278.464 400.569 282.198C401.728 282.43 401.147 284.177 399.997 283.947Z" fill="white"/>
<path d="M309.374 290.394C307.682 284.794 308.036 278.776 310.373 273.413C312.71 268.05 316.877 263.693 322.131 261.119C323.196 260.601 324.05 262.231 322.983 262.749C318.087 265.137 314.205 269.197 312.04 274.195C309.874 279.193 309.566 284.801 311.172 290.005C311.52 291.137 309.72 291.519 309.374 290.394Z" fill="white"/>
<path d="M270.293 322.376C280.782 328.119 293.052 329.698 304.654 326.799C305.804 326.51 306.191 328.309 305.043 328.597C292.963 331.592 280.198 329.923 269.295 323.922C268.257 323.349 269.259 321.807 270.293 322.376Z" fill="white"/>
<path d="M362.005 280.312C362.208 282.615 362.98 284.831 364.252 286.762C365.523 288.693 367.255 290.278 369.29 291.375C370.336 291.934 369.332 293.476 368.293 292.921C366.05 291.699 364.14 289.946 362.73 287.816C361.321 285.685 360.454 283.242 360.207 280.7C360.163 280.462 360.212 280.217 360.343 280.014C360.474 279.811 360.678 279.665 360.912 279.607C361.15 279.557 361.399 279.602 361.604 279.734C361.808 279.866 361.953 280.074 362.005 280.312Z" fill="white"/>
<path d="M280.711 326.221C271.907 283.658 260.902 269.468 260.902 269.468L256.697 266.208L251.641 262.281L251.665 261.776L250.466 261.369L250.185 261.15L249.723 260.796L249.649 260.875L249.492 261.038L226.613 253.262L197.586 243.404L184.145 225.937C181.956 223.092 179.138 220.792 175.911 219.219C172.684 217.645 169.137 216.84 165.547 216.867L122.621 217.184C116.817 217.227 111.239 219.44 106.983 223.386L78.7682 249.553L34.8039 270.546L34.7297 270.472L34.2681 270.802L27.4752 274.049L27.7555 275.508L23.5511 278.541C23.5511 278.541 12.5457 291.745 3.74128 331.35C1.50154 341.427 0.399055 363.044 0.00111829 389.682C-0.01887 391.029 0.229276 392.368 0.731121 393.618C1.23297 394.869 1.9785 396.008 2.92438 396.968C3.87025 397.928 4.9976 398.69 6.24086 399.211C7.48413 399.732 8.81851 400 10.1664 400H244.988L274.297 400C275.644 400 276.977 399.732 278.22 399.212C279.462 398.692 280.589 397.93 281.535 396.971C282.48 396.012 283.226 394.875 283.729 393.625C284.231 392.376 284.481 391.039 284.462 389.692C284.074 360.706 282.971 337.15 280.711 326.221Z" fill="#3F3D56"/>
<path d="M310.84 37.1182C301.704 37.1182 292.942 40.7468 286.482 47.2057C280.022 53.6646 276.393 62.4248 276.393 71.5592C276.393 80.6935 280.022 89.4537 286.482 95.9126C292.942 102.372 301.704 106 310.84 106H567.553C576.689 106 585.45 102.372 591.91 95.9126C598.37 89.4537 602 80.6935 602 71.5592C602 62.4248 598.37 53.6646 591.91 47.2057C585.45 40.7468 576.689 37.1182 567.553 37.1182H310.84Z" fill="#E5E5E5"/>
<path d="M310.841 44.0889C303.554 44.0889 296.565 46.9831 291.413 52.1349C286.26 57.2866 283.365 64.274 283.365 71.5597C283.365 78.8454 286.26 85.8327 291.413 90.9844C296.565 96.1362 303.554 99.0305 310.841 99.0305H567.554C574.841 99.0305 581.829 96.1362 586.982 90.9844C592.135 85.8327 595.029 78.8454 595.029 71.5597C595.029 64.274 592.135 57.2866 586.982 52.1349C581.829 46.9831 574.841 44.0889 567.554 44.0889H310.841Z" fill="white"/>
<path d="M150.826 200.743C181.885 200.743 207.064 175.569 207.064 144.515C207.064 113.461 181.885 88.2871 150.826 88.2871C119.766 88.2871 94.5879 113.461 94.5879 144.515C94.5879 175.569 119.766 200.743 150.826 200.743Z" fill="#9E616A"/>
<path d="M136.439 197.99C136.199 197.461 135.96 196.93 135.721 196.397C135.813 196.4 135.904 196.414 135.996 196.416L136.439 197.99Z" fill="#2F2E41"/>
<path d="M93.0242 90.8439C95.8685 88.5753 99.1929 86.4879 102.83 86.6052C106.466 86.7224 110.154 90.0063 109.4 93.5653C116.08 81.7405 126.712 72.6458 139.43 67.8777C152.148 63.1096 166.14 62.9727 178.949 67.4911C187.987 70.6794 196.851 77.0578 198.927 86.4129C199.46 88.8144 199.574 91.4476 201.074 93.3978C202.965 95.8564 206.583 96.4126 209.562 95.5477C209.592 95.5391 209.622 95.5303 209.651 95.5214C210.154 95.3496 210.698 95.3327 211.211 95.4729C211.724 95.6132 212.183 95.904 212.529 96.308C212.874 96.7119 213.091 97.2103 213.15 97.7387C213.21 98.267 213.109 98.8011 212.862 99.2717L210.304 104.04C213.528 104.759 216.878 104.688 220.068 103.833C220.598 103.694 221.158 103.722 221.671 103.914C222.185 104.106 222.626 104.452 222.935 104.904C223.244 105.357 223.405 105.894 223.396 106.441C223.388 106.989 223.21 107.521 222.887 107.964C214.455 119.539 200.366 127.014 185.99 126.926C175.771 126.864 165.448 123.343 155.504 125.692C151.656 126.601 148.062 128.36 144.983 130.839C141.904 133.318 139.419 136.455 137.711 140.019C136.003 143.584 135.115 147.485 135.112 151.437C135.108 155.39 135.99 159.293 137.692 162.86C134.637 159.519 128.732 160.31 125.607 163.586C122.482 166.862 121.673 171.751 121.988 176.267C122.469 183.174 125.176 189.682 128.029 196.016C104.106 195.263 81.479 178.485 73.8627 155.791C66.2144 133.003 74.23 105.834 93.0242 90.8439Z" fill="#2F2E41"/>
<path opacity="0.2" d="M55.3535 313.371L71.127 399.176L80.5914 400L55.3535 313.371Z" fill="black"/>
<path opacity="0.2" d="M229.101 306.899L213.328 399.114L203.863 400L229.101 306.899Z" fill="black"/>
<path d="M106.476 61.9664C103.452 63.2291 100.296 61.8453 98.9726 58.6764C97.6289 55.459 98.8839 52.193 101.957 50.9101C105.03 49.6271 108.129 51.0142 109.495 54.2835C110.84 57.5037 109.598 60.663 106.476 61.9664ZM100.683 44.5772L98.2781 45.5812C97.6774 45.829 97.0055 45.8424 96.3954 45.6186C95.7853 45.3949 95.2814 44.9504 94.9834 44.373L94.8645 44.1404C92.277 39.4749 91.9808 33.8046 93.9886 27.296C95.8486 21.4574 96.6211 17.3512 95.0675 13.6311C93.2712 9.33008 89.4354 7.98277 84.544 9.9345C82.6469 10.7265 82.0432 10.7139 80.5502 12.1947C80.2255 12.5207 79.8384 12.778 79.412 12.9512C78.9857 13.1244 78.5288 13.21 78.0687 13.2029C77.6238 13.1977 77.1846 13.1029 76.7772 12.9243C76.3697 12.7457 76.0025 12.4869 75.6972 12.1633C75.1092 11.5397 74.7798 10.7163 74.7754 9.85922C74.7711 9.00218 75.0922 8.17543 75.6739 7.54594C78.1833 4.91955 81.21 2.84174 84.5629 1.44363C95.0725 -2.94404 100.363 3.53372 102.784 9.33071C105.152 15.0008 103.82 20.2617 101.68 27.0751C99.8862 32.7367 99.9907 36.9318 102.028 41.103C102.175 41.4184 102.257 41.7602 102.269 42.108C102.28 42.4557 102.222 42.8023 102.096 43.1268C101.97 43.4513 101.78 43.747 101.538 43.9963C101.295 44.2455 101.004 44.4431 100.683 44.5772Z" fill="white"/>
<path d="M367.545 87.9855H316.469C316.307 87.9866 316.146 87.9556 315.996 87.8943C315.846 87.8329 315.709 87.7425 315.594 87.6282C315.479 87.5139 315.387 87.3779 315.325 87.2281C315.263 87.0783 315.23 86.9177 315.23 86.7554C315.23 86.5932 315.263 86.4326 315.325 86.2828C315.387 86.133 315.479 85.997 315.594 85.8827C315.709 85.7684 315.846 85.678 315.996 85.6166C316.146 85.5553 316.307 85.5243 316.469 85.5254H367.545C367.87 85.5276 368.181 85.6582 368.41 85.8886C368.639 86.1191 368.767 86.4307 368.767 86.7554C368.767 87.0802 368.639 87.3918 368.41 87.6223C368.181 87.8527 367.87 87.9833 367.545 87.9855Z" fill="#7B2CBF"/>
<path d="M432.338 88.3956H381.262C381.1 88.3967 380.939 88.3658 380.789 88.3044C380.638 88.2431 380.502 88.1527 380.387 88.0384C380.272 87.924 380.18 87.7881 380.118 87.6383C380.056 87.4885 380.023 87.3279 380.023 87.1656C380.023 87.0034 380.056 86.8427 380.118 86.693C380.18 86.5432 380.272 86.4072 380.387 86.2929C380.502 86.1785 380.638 86.0881 380.789 86.0268C380.939 85.9655 381.1 85.9345 381.262 85.9356H432.338C432.501 85.9345 432.662 85.9655 432.812 86.0268C432.962 86.0881 433.099 86.1785 433.214 86.2929C433.329 86.4072 433.42 86.5432 433.483 86.693C433.545 86.8427 433.577 87.0034 433.577 87.1656C433.577 87.3279 433.545 87.4885 433.483 87.6383C433.42 87.7881 433.329 87.924 433.214 88.0384C433.099 88.1527 432.962 88.2431 432.812 88.3044C432.662 88.3658 432.501 88.3967 432.338 88.3956Z" fill="#7B2CBF"/>
<path d="M497.132 88.8058H446.056C445.731 88.8036 445.42 88.673 445.191 88.4426C444.962 88.2121 444.834 87.9005 444.834 87.5758C444.834 87.251 444.962 86.9394 445.191 86.7089C445.42 86.4785 445.731 86.3479 446.056 86.3457H497.132C497.294 86.3446 497.455 86.3756 497.606 86.437C497.756 86.4983 497.892 86.5887 498.008 86.703C498.123 86.8174 498.214 86.9533 498.276 87.1031C498.339 87.2529 498.371 87.4135 498.371 87.5758C498.371 87.738 498.339 87.8986 498.276 88.0484C498.214 88.1982 498.123 88.3342 498.008 88.4485C497.892 88.5628 497.756 88.6533 497.606 88.7146C497.455 88.7759 497.295 88.8069 497.132 88.8058Z" fill="#7B2CBF"/>
<path d="M561.925 89.2159H510.849C510.524 89.2137 510.213 89.0831 509.984 88.8527C509.755 88.6223 509.627 88.3107 509.627 87.9859C509.627 87.6611 509.755 87.3495 509.984 87.1191C510.213 86.8886 510.524 86.7581 510.849 86.7559H561.925C562.25 86.7581 562.561 86.8886 562.79 87.1191C563.019 87.3495 563.147 87.6611 563.147 87.9859C563.147 88.3107 563.019 88.6223 562.79 88.8527C562.561 89.0831 562.25 89.2137 561.925 89.2159Z" fill="#7B2CBF"/>
<path d="M341.893 76.6651C347.136 76.6651 351.386 72.4157 351.386 67.1739C351.386 61.932 347.136 57.6826 341.893 57.6826C336.651 57.6826 332.4 61.932 332.4 67.1739C332.4 72.4157 336.651 76.6651 341.893 76.6651Z" fill="#7B2CBF"/>
<path d="M407.079 76.6651C412.322 76.6651 416.572 72.4157 416.572 67.1739C416.572 61.932 412.322 57.6826 407.079 57.6826C401.836 57.6826 397.586 61.932 397.586 67.1739C397.586 72.4157 401.836 76.6651 407.079 76.6651Z" fill="#7B2CBF"/>
<path d="M472.264 76.6651C477.507 76.6651 481.757 72.4157 481.757 67.1739C481.757 61.932 477.507 57.6826 472.264 57.6826C467.022 57.6826 462.771 61.932 462.771 67.1739C462.771 72.4157 467.022 76.6651 472.264 76.6651Z" fill="#7B2CBF"/>
<path d="M537.448 76.6651C542.691 76.6651 546.941 72.4157 546.941 67.1739C546.941 61.932 542.691 57.6826 537.448 57.6826C532.205 57.6826 527.955 61.932 527.955 67.1739C527.955 72.4157 532.205 76.6651 537.448 76.6651Z" fill="#7B2CBF"/>
</g>
<defs>
<clipPath id="clip0_1005_1321">
<rect width="602" height="400" fill="white"/>
</clipPath>
</defs>
</svg>
