<svg width="796" height="476" viewBox="0 0 796 476" fill="none" xmlns="http://www.w3.org/2000/svg">
<g clip-path="url(#clip0_999_1117)">
<path d="M609.437 470.618C599.246 462.005 593.056 448.398 594.679 435.153C596.303 421.907 606.357 409.73 619.399 406.917C632.442 404.104 647.309 411.891 651.27 424.634C653.451 400.066 655.963 374.468 669.022 353.546C680.847 334.601 701.327 321.046 723.524 318.621C745.72 316.196 769.09 325.355 782.934 342.878C796.777 360.401 800.166 385.877 790.471 405.995C783.329 420.815 770.17 431.844 756.383 440.817C711.833 469.568 658.401 481.26 605.917 473.742L609.437 470.618Z" fill="#F2F2F2"/>
<path d="M760.983 325.862C742.668 340.783 725.866 357.471 710.82 375.685C687.273 404.091 668.219 435.94 654.321 470.122C653.303 472.615 657.352 473.701 658.358 471.235C681.098 415.682 717.4 366.719 763.944 328.823C766.034 327.121 763.056 324.174 760.983 325.862Z" fill="white"/>
<path d="M256.245 468.277C270.243 456.447 278.745 437.759 276.515 419.566C274.285 401.373 260.475 384.648 242.562 380.785C224.648 376.921 204.228 387.616 198.787 405.118C195.793 371.374 192.342 336.216 174.405 307.479C158.164 281.459 130.034 262.84 99.5468 259.51C69.0599 256.179 36.9611 268.759 17.9476 292.827C-1.066 316.895 -5.72139 351.885 7.59522 379.518C17.4051 399.873 35.4784 415.022 54.4146 427.347C114.828 466.666 189.77 483.064 261.079 472.568" fill="#F2F2F2"/>
<path d="M48.0963 269.456C73.2518 289.95 96.3293 312.871 116.995 337.887C137.664 362.878 155.861 389.815 171.33 418.319C179.976 434.309 187.744 450.759 194.597 467.596C195.995 471.021 190.434 472.512 189.052 469.125C176.913 439.442 161.894 411.02 144.212 384.267C126.615 357.611 106.475 332.725 84.0739 309.959C71.4038 297.089 58.0357 284.925 44.0303 273.523C41.1596 271.185 45.2493 267.137 48.0963 269.456Z" fill="white"/>
<path d="M571.382 474.958H237.428V132.238C237.428 59.3215 296.736 0 369.637 0H439.173C512.073 0 571.382 59.3215 571.382 132.238V474.958Z" fill="#F2F2F2"/>
<path d="M501.847 474.958H237.428V132.238C237.355 104.298 246.201 77.0646 262.677 54.5022C263.284 53.6741 263.89 52.8569 264.515 52.0485C272.484 41.594 281.968 32.3869 292.653 24.731C293.256 24.2918 293.862 23.8601 294.477 23.4285C303.418 17.2398 313.09 12.1806 323.273 8.36619C323.877 8.13695 324.493 7.90727 325.109 7.68696C334.318 4.39985 343.864 2.14819 353.571 0.973563C354.173 0.891338 354.791 0.826995 355.408 0.762652C364.868 -0.249009 374.409 -0.249009 383.868 0.762652C384.484 0.826995 385.102 0.89133 385.711 0.974443C395.416 2.14915 404.959 4.40053 414.166 7.68701C414.782 7.90731 415.398 8.13698 416.004 8.36666C426.061 12.133 435.619 17.1166 444.465 23.2064C445.079 23.6287 445.694 24.0604 446.3 24.492C452.29 28.7682 457.915 33.5322 463.12 38.7352C467.294 42.9087 471.183 47.3573 474.762 52.0513C475.385 52.8569 475.991 53.6742 476.597 54.5009C493.074 77.0635 501.919 104.298 501.847 132.238V474.958Z" fill="#CCCCCC"/>
<path d="M480.344 321.672C488.429 321.672 494.983 315.117 494.983 307.03C494.983 298.943 488.429 292.388 480.344 292.388C472.259 292.388 465.705 298.943 465.705 307.03C465.705 315.117 472.259 321.672 480.344 321.672Z" fill="#7B2CBF"/>
<path d="M544.025 464.693H532.808L527.471 421.418L544.027 421.419L544.025 464.693Z" fill="#FFB8B8"/>
<path d="M524.794 461.487H546.427V475.111H511.174C511.174 473.322 511.526 471.55 512.211 469.897C512.895 468.244 513.898 466.743 515.163 465.478C516.428 464.212 517.93 463.209 519.582 462.524C521.235 461.84 523.006 461.487 524.794 461.487Z" fill="#2F2E41"/>
<path d="M599.835 464.693H588.618L583.281 421.418L599.837 421.419L599.835 464.693Z" fill="#FFB8B8"/>
<path d="M580.605 461.487H602.238V475.111H566.984C566.984 473.322 567.337 471.55 568.021 469.897C568.706 468.244 569.709 466.743 570.974 465.478C572.239 464.212 573.74 463.209 575.393 462.524C577.045 461.84 578.816 461.487 580.605 461.487Z" fill="#2F2E41"/>
<path d="M487.753 309.93C486.946 308.741 486.41 307.389 486.181 305.97C485.953 304.551 486.039 303.1 486.432 301.717C486.826 300.335 487.517 299.056 488.459 297.97C489.4 296.884 490.568 296.017 491.88 295.432L530.011 190.312L548.774 200.554L505.236 301.01C506.074 303.28 506.05 305.778 505.169 308.032C504.288 310.286 502.611 312.138 500.456 313.237C498.301 314.337 495.817 314.608 493.476 313.998C491.135 313.389 489.099 311.941 487.753 309.93Z" fill="#FFB8B8"/>
<path d="M594.106 329.683C592.859 328.968 591.785 327.989 590.958 326.814C590.13 325.638 589.571 324.296 589.319 322.881C589.066 321.466 589.127 320.013 589.497 318.624C589.867 317.235 590.537 315.945 591.459 314.843L579.646 203.645L600.999 204.62L605.908 313.998C607.656 315.671 608.73 317.927 608.926 320.339C609.122 322.751 608.427 325.151 606.972 327.084C605.518 329.018 603.404 330.35 601.033 330.829C598.662 331.308 596.197 330.9 594.106 329.683Z" fill="#FFB8B8"/>
<path d="M560.042 170.841C572.453 170.841 582.514 160.778 582.514 148.365C582.514 135.951 572.453 125.888 560.042 125.888C547.631 125.888 537.57 135.951 537.57 148.365C537.57 160.778 547.631 170.841 560.042 170.841Z" fill="#FFB8B8"/>
<path d="M593.962 304.393H526.213L526.294 303.866C526.416 303.078 538.369 224.762 529.553 199.141C528.669 196.623 528.746 193.867 529.772 191.403C530.797 188.939 532.697 186.941 535.106 185.795C547.707 179.86 571.894 172.552 592.309 190.287C595.313 192.94 597.659 196.256 599.161 199.972C600.663 203.688 601.28 207.702 600.964 211.698L593.962 304.393Z" fill="#7B2CBF"/>
<path d="M539.226 236.336L508.725 230.147L523.022 196.259C523.877 192.977 525.999 190.168 528.923 188.449C531.846 186.73 535.332 186.24 538.615 187.088C541.899 187.936 544.712 190.052 546.438 192.972C548.164 195.892 548.662 199.377 547.822 202.663L539.226 236.336Z" fill="#7B2CBF"/>
<path d="M578.29 247.827L576.456 205.784C575.066 197.881 579.589 190.41 586.546 189.189C593.504 187.972 600.299 193.453 601.696 201.415L608.588 240.7L578.29 247.827Z" fill="#7B2CBF"/>
<path d="M591.709 299.359C602.61 340.885 603.799 393.682 600.858 451.273L586.219 449.442L559.686 339.626L545.047 451.273L528.578 450.358C523.658 389.931 518.867 338.056 526.748 303.935L591.709 299.359Z" fill="#2F2E41"/>
<path d="M574.849 165.736C570.657 170.202 562.871 167.804 562.325 161.702C562.282 161.229 562.285 160.752 562.334 160.279C562.616 157.576 564.178 155.122 563.804 152.268C563.719 151.558 563.454 150.881 563.035 150.301C559.694 145.827 551.852 152.303 548.699 148.252C546.766 145.768 549.039 141.858 547.555 139.082C545.597 135.418 539.798 137.225 536.161 135.219C532.114 132.986 532.356 126.777 535.02 122.999C538.268 118.393 543.964 115.935 549.589 115.581C555.214 115.226 560.8 116.747 566.051 118.794C572.017 121.12 577.934 124.334 581.605 129.581C586.07 135.963 586.5 144.542 584.267 152.004C582.909 156.543 578.273 162.088 574.849 165.736Z" fill="#2F2E41"/>
<path d="M768.534 475.546H93.0374C92.749 475.546 92.4728 475.43 92.2691 475.226C92.0655 475.022 91.9512 474.745 91.9512 474.457C91.9512 474.168 92.0655 473.892 92.2691 473.687C92.4728 473.483 92.749 473.368 93.0374 473.367H768.534C768.822 473.368 769.099 473.483 769.302 473.687C769.506 473.892 769.62 474.168 769.62 474.457C769.62 474.745 769.506 475.022 769.302 475.226C769.099 475.43 768.822 475.546 768.534 475.546Z" fill="#3F3D56"/>
<path d="M429.108 375.666H310.166C308.599 375.674 307.094 375.061 305.979 373.96C304.864 372.86 304.231 371.362 304.219 369.795V104.249C304.231 102.682 304.864 101.184 305.979 100.084C307.094 98.9829 308.599 98.3696 310.166 98.378H429.108C430.675 98.3696 432.181 98.9829 433.296 100.084C434.411 101.184 435.043 102.682 435.056 104.249V369.795C435.043 371.362 434.411 372.86 433.296 373.96C432.181 375.061 430.675 375.674 429.108 375.666Z" fill="white"/>
<path d="M435.056 184.3H304.219V186.13H435.056V184.3Z" fill="#CCCCCC"/>
<path d="M435.513 288.727H304.676V290.557H435.513V288.727Z" fill="#CCCCCC"/>
<path d="M347.221 98.3779H345.391V376.581H347.221V98.3779Z" fill="#CCCCCC"/>
<path d="M392.969 98.3779H391.139V376.581H392.969V98.3779Z" fill="#CCCCCC"/>
</g>
<defs>
<clipPath id="clip0_999_1117">
<rect width="796" height="476" fill="white"/>
</clipPath>
</defs>
</svg>
