  <svg
          width="24"
          height="24"
          viewBox="0 0 24 24"
          fill="none"
          xmlns="http://www.w3.org/2000/svg"
        >
          <path
            fillRule="evenodd"
            clipRule="evenodd"
            d="M11.9999 2C8.68618 2 5.99989 4.68629 5.99989 8V9.83098C5.99989 11.2503 5.61416 12.6429 4.88395 13.8599L4.33054 14.7823C3.96348 15.3941 3.77995 15.7 3.76738 15.9497C3.74792 16.3366 3.95362 16.6999 4.29537 16.8823C4.51602 17 4.87274 17 5.58618 17H18.4136C19.1271 17 19.4838 17 19.7044 16.8823C20.0462 16.6999 20.2519 16.3366 20.2324 15.9497C20.2199 15.7 20.0363 15.3941 19.6693 14.7823L19.1159 13.8599C18.3856 12.6429 17.9999 11.2503 17.9999 9.83095V9.31701C17.9999 9.15273 17.9999 9.07059 17.9531 9.02622C17.9063 8.98185 17.8162 8.98668 17.6362 8.99635C17.5911 8.99877 17.5456 9 17.4999 9C16.1192 9 14.9999 7.88071 14.9999 6.5C14.9999 5.58144 15.4953 4.77858 16.2335 4.34403C16.4106 4.23979 16.4991 4.18767 16.5091 4.11576C16.519 4.04385 16.4567 3.97881 16.332 3.84874C15.2399 2.70938 13.7027 2 11.9999 2Z"
            fill="#7B2CBF"
          />
          <circle cx="17.5" cy="6.5" r="1.5" fill="#968FE5" />
          <path
            d="M14.35 18C14.4328 18 14.5007 18.0673 14.493 18.1498C14.4484 18.6254 14.1923 19.0746 13.7678 19.4142C13.2989 19.7893 12.663 20 12 20C11.337 20 10.7011 19.7893 10.2322 19.4142C9.80772 19.0746 9.55165 18.6254 9.50702 18.1498C9.49928 18.0673 9.56716 18 9.65 18L12 18L14.35 18Z"
            fill="#968FE5"
          />
        </svg>