<svg width="25" height="25" viewBox="0 0 25 25" fill="none" xmlns="http://www.w3.org/2000/svg">
<path d="M20.1013 6.21229C20.7754 7.22118 20.7754 8.62565 20.7754 11.4346C20.7754 14.2435 20.7754 15.648 20.1013 16.6569C19.8094 17.0936 19.4344 17.4686 18.9977 17.7604C18.1163 18.3493 16.9331 18.4238 14.7754 18.4332V18.4346L13.6698 20.6457C13.3013 21.3828 12.2495 21.3828 11.881 20.6457L10.7754 18.4346V18.4332C8.61769 18.4238 7.43446 18.3493 6.55311 17.7604C6.11635 17.4686 5.74135 17.0936 5.44951 16.6569C4.77539 15.648 4.77539 14.2435 4.77539 11.4346C4.77539 8.62565 4.77539 7.22118 5.44951 6.21229C5.74135 5.77553 6.11635 5.40053 6.55311 5.10869C7.562 4.43457 8.96647 4.43457 11.7754 4.43457H13.7754C16.5843 4.43457 17.9888 4.43457 18.9977 5.10869C19.4344 5.40053 19.8094 5.77553 20.1013 6.21229Z" stroke="url(#paint0_linear_2385_775)" strokeWidth="2" stroke-linecap="round" strokeLinejoin="round"/>
<path d="M9.77539 9.43457L15.7754 9.43457" stroke="#7B2CBF" strokeWidth="2" stroke-linecap="round" strokeLinejoin="round"/>
<path d="M9.77539 13.4346H12.7754" stroke="#7B2CBF" strokeWidth="2" stroke-linecap="round" strokeLinejoin="round"/>
<defs>
<linearGradient id="paint0_linear_2385_775" x1="12.7754" y1="4.43457" x2="12.7754" y2="21.1985" gradientUnits="userSpaceOnUse">
<stop stop-color="#7B2CBF"/>
<stop offset="1" stop-color="#D600E8"/>
</linearGradient>
</defs>
</svg>
