<svg width="468" height="373" viewBox="0 0 468 373" fill="none" xmlns="http://www.w3.org/2000/svg">
<g clip-path="url(#clip0_4432_2082)">
<path d="M394.414 357.132C396.257 357.247 397.275 354.957 395.88 353.624L395.741 353.073C395.759 353.029 395.778 352.985 395.796 352.941C396.895 350.319 399.922 349.077 402.55 350.164C410.858 353.598 402.086 361.489 402.745 366.829C402.977 368.672 410.198 368.773 409.789 370.582C413.629 362.188 415.648 353.024 415.645 343.808C415.644 341.493 415.517 339.177 415.257 336.868C415.043 334.979 414.748 333.101 414.367 331.241C412.307 321.185 407.85 311.608 401.424 303.61C398.335 301.923 400.219 299.284 398.662 296.123C398.103 294.983 393.116 294.957 392.908 293.707C393.131 293.736 396.355 290.389 395.29 288.734C394.59 287.645 394.808 286.258 395.708 285.327C395.796 285.236 395.879 285.14 395.956 285.036C398.615 281.43 402.28 282.058 404.195 286.957C408.283 289.018 408.324 292.438 405.817 295.729C404.222 297.822 404.004 300.654 402.605 302.895C402.749 303.079 402.899 303.258 403.043 303.442C405.685 306.828 407.971 310.468 409.898 314.291C409.352 310.041 410.154 304.92 411.523 301.619C413.092 297.831 416.045 294.644 418.631 291.367C421.719 287.453 428.006 289.229 428.552 294.184C428.557 294.232 428.563 294.279 428.568 294.327C428.185 294.543 427.81 294.772 427.444 295.015C425.358 296.395 426.081 299.629 428.554 300.009L428.61 300.018C428.472 301.394 423.586 305.731 423.24 307.073C426.545 319.833 424.073 321.518 413.905 321.731L413.371 322.491C414.335 325.261 415.11 328.097 415.692 330.97C416.241 333.636 416.622 336.332 416.836 339.039C417.102 342.454 417.08 345.887 416.793 349.297L416.811 349.176C417.541 345.42 419.579 341.912 422.54 339.48C426.95 335.856 433.182 334.519 437.94 331.606C440.23 330.203 443.167 332.014 442.768 334.669L442.748 334.796C442.04 335.084 441.349 335.419 440.681 335.793C440.298 336.01 439.923 336.239 439.556 336.482C437.47 337.862 438.193 341.097 440.667 341.475L440.723 341.484C440.763 341.49 440.798 341.496 440.838 341.501C439.623 344.387 428.051 348.458 425.932 350.769C423.871 361.914 424.883 361.582 415.396 358.34H415.391C414.355 362.856 412.842 367.269 410.896 371.474L394.822 371.48C394.764 371.301 394.712 371.117 394.66 370.938C396.147 371.03 397.645 370.943 399.108 370.672C397.915 369.209 396.722 367.735 395.529 366.273C395.5 366.244 395.477 366.215 395.454 366.186L395.436 366.164L393.781 360.718C393.911 359.509 394.125 358.311 394.414 357.132Z" fill="#F2F2F2"/>
<path d="M224.554 371.349L82.3196 371.398C75.1741 371.401 68.7734 367.709 65.1985 361.524C63.4108 358.431 62.5168 355.038 62.5156 351.644C62.5144 348.251 63.4066 344.856 65.1917 341.763L136.263 212.413C139.834 206.224 146.233 202.529 153.378 202.526C160.524 202.524 166.924 206.215 170.5 212.401L241.67 341.718C243.453 344.802 244.345 348.192 244.345 351.583C244.345 354.975 243.453 358.368 241.668 361.463C238.097 367.651 231.699 371.347 224.554 371.349ZM64.3035 351.642C64.3033 354.73 79.9983 348.074 81.6243 350.888C84.8767 356.515 75.8181 369.617 82.319 369.615C82.319 369.615 236.874 366.201 240.123 360.572C241.747 357.757 242.558 354.669 242.557 351.582C242.556 348.494 241.742 345.407 240.116 342.594L168.945 213.277C165.702 207.666 159.88 204.308 153.379 204.31C146.881 204.312 64.3038 348.552 64.3035 351.642Z" fill="#3F3D56"/>
<path d="M226.134 369.565C224.351 373.133 307.852 372.036 308.839 372.036C308.839 372.036 332.309 371.518 332.803 370.663C333.049 370.235 333.172 369.766 333.172 369.298C333.172 368.829 333.049 368.36 332.802 367.933L321.994 348.295C321.501 347.443 320.617 346.933 319.63 346.934C319.589 346.934 319.528 346.97 319.45 347.04C305.033 359.921 287.265 368.436 267.931 368.723C247.374 369.029 226.247 369.338 226.134 369.565Z" fill="#3F3D56"/>
<path d="M6.67666e-08 371.939C0.000205224 372.528 0.473147 373.001 1.06189 373L466.939 372.839C467.528 372.839 468 372.366 468 371.778C468 371.189 467.527 370.717 466.938 370.717L1.06116 370.878C0.472416 370.878 -0.000205091 371.351 6.67666e-08 371.939Z" fill="#CCCCCC"/>
<path d="M360.254 366.788L352.187 366.79L348.338 335.68L360.245 335.677L360.254 366.788Z" fill="#A0616A"/>
<path d="M332.613 366.614C332.362 367.038 332.23 368.403 332.23 368.895C332.231 370.406 333.457 371.632 334.97 371.631L359.955 371.623C360.986 371.622 361.822 370.786 361.822 369.754L361.822 368.714C361.822 368.714 363.057 365.588 360.511 361.737C360.511 361.737 357.349 364.754 352.621 360.031L351.227 357.508L341.142 364.887L335.55 365.577C334.327 365.728 333.242 365.555 332.613 366.614Z" fill="#2F2E41"/>
<path d="M329.319 340.179L321.677 342.765L308.064 314.526L319.344 310.71L329.319 340.179Z" fill="#A0616A"/>
<path d="M303.079 348.866C302.976 349.347 303.289 350.683 303.446 351.149C303.931 352.581 305.486 353.349 306.918 352.864L330.584 344.856C331.561 344.525 332.086 343.465 331.755 342.488L331.421 341.503C331.421 341.503 331.59 338.146 327.944 335.313C327.944 335.313 325.916 339.184 319.924 336.223L317.795 334.279L310.604 344.499L305.529 346.943C304.418 347.478 303.335 347.661 303.079 348.866Z" fill="#2F2E41"/>
<path d="M316.858 159.706L301.21 211.518L282.736 258.123L311.983 324.679L322.828 319.856L309.852 258.716L337.064 217.229L349.763 346.742L360.608 346.136L375.317 189.806L377.414 155.77L316.858 159.706Z" fill="#2F2E41"/>
<path d="M364.119 44.9316L341.224 49.1564L339.42 59.3979L325.563 66.0292L318.358 141.332C318.358 141.332 306.313 156.999 315.955 161.815L377.414 155.77C377.414 155.77 380.423 144.631 377.41 143.575C374.397 142.518 374.387 115.912 374.387 115.912L388.227 61.1883L367.738 53.9665L364.119 44.9316Z" fill="#E6E6E6"/>
<path d="M350.614 44.734C360.825 44.734 369.103 36.4583 369.103 26.2498C369.103 16.0413 360.825 7.76562 350.614 7.76562C340.403 7.76562 332.125 16.0413 332.125 26.2498C332.125 36.4583 340.403 44.734 350.614 44.734Z" fill="#A0616A"/>
<path d="M362.857 28.9933C361.382 29.8008 362.782 33.6561 361.859 33.9894C360.794 34.3747 356.907 29.9523 356.859 24.9988C356.845 23.4997 357.19 22.7798 356.858 21.0023C356.424 18.6772 355.091 15.9348 353.858 16.0076C353.127 16.0507 352.413 17.0841 352.36 18.0064C352.285 19.2989 353.541 19.8077 353.36 20.5039C353.015 21.83 347.742 22.7456 345.864 20.5065C344.393 18.7511 345.521 15.6689 344.863 15.5111C344.378 15.3948 343.858 17.0917 341.866 19.0092C341.116 19.7316 340 20.806 339.368 20.5087C338.455 20.0792 339.119 17.052 338.867 17.0119C338.66 16.9787 338.529 19.1064 337.37 21.009C335.88 23.4534 332.808 25.3374 331.375 24.5081C330.496 24 330.427 22.5854 330.374 21.511C330.263 19.2476 326.973 14.0412 327.824 11.6198C329.557 6.69167 332.525 10.1656 333.867 8.52092C335.685 6.29445 337.316 7.49152 340.362 5.02166C343.339 2.60886 343.365 0.183795 345.358 0.0242044C347.152 -0.119513 347.791 1.79461 349.855 1.52136C351.604 1.28989 351.985 -0.194715 353.353 0.021431C354.605 0.219314 354.688 1.52717 356.352 2.01868C357.414 2.33248 357.647 1.87829 358.85 2.01782C361.353 2.30814 363.034 4.58685 363.348 5.0137C364.562 6.65924 364.091 7.35317 365.349 9.00958C366.433 10.438 368.835 9.83143 369.739 10.5449C372.691 12.876 373.959 17.1751 373.985 22.0751C374.003 25.5022 373.556 27.2338 372.558 31.5596C371.801 34.8443 368.293 39.0891 366.359 40.9819C365.84 41.49 364.385 42.9143 363.361 42.4816C362.392 42.0716 362.362 40.2276 362.361 39.9841C362.357 39.1467 362.58 38.1106 364.358 35.4873C366.227 32.7317 366.969 32.4172 366.855 31.4898C366.655 29.8506 364.033 28.3497 362.857 28.9933Z" fill="#2F2E41"/>
<path d="M298.366 201.326C297.79 206.143 299.81 210.346 302.876 210.712C305.943 211.078 308.896 207.469 309.471 202.651C309.723 200.542 309.477 198.551 308.865 196.948L311.047 176.503L301.428 175.684L300.298 195.926C299.325 197.339 298.617 199.217 298.366 201.326Z" fill="#A0616A"/>
<path d="M326.015 65.543C326.015 65.543 321.032 65.6138 317.732 72.0563C315.979 75.4798 306.598 139.498 306.598 139.498L297.957 191.942L312.677 192.016L324.147 142.351L333.796 113.546L326.015 65.543Z" fill="#E6E6E6"/>
<path d="M367.436 193.63C366.027 198.273 367.28 202.764 370.235 203.66C373.191 204.557 376.729 201.52 378.139 196.877C378.756 194.845 378.862 192.842 378.539 191.156L384.265 171.408L374.938 168.919L370.284 188.651C369.078 189.873 368.053 191.598 367.436 193.63Z" fill="#A0616A"/>
<path d="M377.682 62.0952C377.682 62.0952 384.911 56.6711 390.94 65.1027C396.968 73.5343 399.402 142.81 399.402 142.81L382.546 185.587L369.891 181.374L381.924 128.961L360.82 89.2093L377.682 62.0952Z" fill="#E6E6E6"/>
<path d="M194.881 342.823C230.843 342.823 259.996 313.677 259.996 277.724C259.996 241.771 230.843 212.625 194.881 212.625C158.919 212.625 129.766 241.771 129.766 277.724C129.766 313.677 158.919 342.823 194.881 342.823Z" fill="#FF4040"/>
<path d="M194.893 317.631C198.195 317.631 200.871 314.955 200.871 311.654C200.871 308.353 198.195 305.677 194.893 305.677C191.591 305.677 188.914 308.353 188.914 311.654C188.914 314.955 191.591 317.631 194.893 317.631Z" fill="white"/>
<path d="M194.867 237.818C194.318 241.466 195.302 242.23 195.307 257.959C195.313 273.687 198.577 294.776 194.887 294.777C191.196 294.778 189.847 251.256 177.032 247.404C161.965 242.876 196.645 226.007 194.867 237.818Z" fill="white"/>
<path d="M107.488 310.961L101.605 323.388C108.717 318.29 119.825 313.894 128.665 311.54C120.429 307.563 110.35 301.15 104.329 294.8L107.713 307.931C68.0423 299.853 39.5544 269.427 39.5423 234.575L38.1094 234.082C38.122 270.486 66.2157 302.713 107.488 310.961Z" fill="#3F3D56"/>
</g>
<defs>
<clipPath id="clip0_4432_2082">
<rect width="468" height="373" fill="white"/>
</clipPath>
</defs>
</svg>
