<svg width="304" height="343" viewBox="0 0 304 343" fill="none" xmlns="http://www.w3.org/2000/svg">
<g clip-path="url(#clip0_3188_2464)">
<path d="M294.174 126.421H9.56514C7.02921 126.418 4.59797 125.442 2.80479 123.707C1.01162 121.973 0.00292819 119.621 0 117.168V9.25275C0.00292819 6.79964 1.01162 4.44781 2.80479 2.71319C4.59797 0.978579 7.02921 0.00283256 9.56514 0H294.174C296.71 0.00283256 299.142 0.978579 300.935 2.71319C302.728 4.44781 303.737 6.79964 303.74 9.25275V117.168C303.737 119.621 302.728 121.973 300.935 123.707C299.142 125.442 296.71 126.418 294.174 126.421Z" fill="#F2F2F2"/>
<path d="M227.797 120.52H54.7421C41.8463 120.506 29.4828 115.544 20.3641 106.723C11.2454 97.902 6.11611 85.9423 6.10156 73.4677V52.9586C6.1161 40.4839 11.2454 28.5242 20.3641 19.7032C29.4828 10.8822 41.8462 5.9204 54.7421 5.90625H248.998C261.894 5.9204 274.258 10.8822 283.376 19.7032C292.495 28.5242 297.624 40.4839 297.639 52.9586C297.618 70.8707 290.253 88.0433 277.159 100.709C264.066 113.375 246.314 120.499 227.797 120.52Z" fill="white"/>
<path d="M183.157 36.7989H68.7657C68.1114 36.7989 67.484 36.5475 67.0213 36.1C66.5587 35.6525 66.2988 35.0455 66.2988 34.4127C66.2988 33.7798 66.5587 33.1728 67.0213 32.7253C67.484 32.2778 68.1114 32.0264 68.7657 32.0264H183.157C183.811 32.0264 184.439 32.2778 184.901 32.7253C185.364 33.1728 185.624 33.7798 185.624 34.4127C185.624 35.0455 185.364 35.6525 184.901 36.1C184.439 36.5475 183.811 36.7989 183.157 36.7989Z" fill="#E6E6E6"/>
<path d="M241.064 62.2589H68.7657C68.1114 62.2589 67.484 62.0075 67.0213 61.56C66.5587 61.1125 66.2988 60.5055 66.2988 59.8726C66.2988 59.2397 66.5587 58.6328 67.0213 58.1853C67.484 57.7377 68.1114 57.4863 68.7657 57.4863H241.064C241.718 57.4863 242.346 57.7377 242.808 58.1853C243.271 58.6328 243.531 59.2397 243.531 59.8726C243.531 60.5055 243.271 61.1125 242.808 61.56C242.346 62.0075 241.718 62.2589 241.064 62.2589Z" fill="#E6E6E6"/>
<path d="M241.064 87.7189H68.7657C68.1114 87.7189 67.484 87.4674 67.0213 87.0199C66.5587 86.5724 66.2988 85.9655 66.2988 85.3326C66.2988 84.6997 66.5587 84.0927 67.0213 83.6452C67.484 83.1977 68.1114 82.9463 68.7657 82.9463H241.064C241.718 82.9463 242.346 83.1977 242.808 83.6452C243.271 84.0927 243.531 84.6997 243.531 85.3326C243.531 85.9655 243.271 86.5724 242.808 87.0199C242.346 87.4674 241.718 87.7189 241.064 87.7189Z" fill="#E6E6E6"/>
<path d="M241.064 87.7189H68.7657C68.1114 87.7189 67.484 87.4674 67.0213 87.0199C66.5587 86.5724 66.2988 85.9655 66.2988 85.3326C66.2988 84.6997 66.5587 84.0927 67.0213 83.6452C67.484 83.1977 68.1114 82.9463 68.7657 82.9463H241.064C241.718 82.9463 242.346 83.1977 242.808 83.6452C243.271 84.0927 243.531 84.6997 243.531 85.3326C243.531 85.9655 243.271 86.5724 242.808 87.0199C242.346 87.4674 241.718 87.7189 241.064 87.7189Z" fill="#E6E6E6"/>
<path d="M171.085 65.1807C171.112 65.8995 171.302 66.6037 171.641 67.2438C171.981 67.8838 172.461 68.4442 173.048 68.8853C173.635 69.3265 174.316 69.6377 175.041 69.797C175.766 69.9564 176.518 69.96 177.245 69.8076L186.652 84.7369L190.656 76.518L181.109 63.601C180.763 62.437 179.988 61.4361 178.931 60.7879C177.874 60.1397 176.607 59.8892 175.372 60.0839C174.136 60.2786 173.017 60.905 172.227 61.8444C171.437 62.7837 171.031 63.9708 171.085 65.1807Z" fill="#FFB6B6"/>
<path d="M241.683 107.967L209.262 90.956L199.036 81.6752C199.036 81.6752 194.591 80.5238 196.227 79.1255C197.863 77.7272 193.2 76.3787 193.2 76.3787L187.711 71.3965L179.91 76.7357L182.168 80.1209C182.168 80.1209 182.012 85.7251 185.186 84.6469C188.36 83.5688 187.567 88.2167 187.567 88.2167L206.51 116.622L241.683 107.967Z" fill="#3F3D56"/>
<path d="M145.981 91.9405C163.471 91.9405 177.649 78.2257 177.649 61.3076C177.649 44.3896 163.471 30.6748 145.981 30.6748C128.492 30.6748 114.314 44.3896 114.314 61.3076C114.314 78.2257 128.492 91.9405 145.981 91.9405Z" fill="#7B2CBF"/>
<path d="M241.782 331.09H235.198L232.064 306.522H241.782V331.09Z" fill="#FFB6B6"/>
<path d="M245.258 342.126H240.536L239.693 337.813L237.534 342.126H225.011C224.41 342.126 223.826 341.94 223.342 341.596C222.859 341.252 222.502 340.767 222.323 340.213C222.144 339.658 222.153 339.063 222.349 338.514C222.545 337.965 222.917 337.491 223.411 337.161L233.412 330.48V326.12L243.931 326.727L245.258 342.126Z" fill="#2F2E41"/>
<path d="M189.122 331.09H182.538L179.404 306.522H189.122V331.09Z" fill="#FFB6B6"/>
<path d="M192.596 342.126H187.874L187.031 337.813L184.872 342.126H172.349C171.748 342.126 171.164 341.94 170.68 341.596C170.197 341.252 169.839 340.767 169.661 340.213C169.482 339.658 169.491 339.063 169.687 338.514C169.883 337.965 170.255 337.491 170.749 337.161L180.75 330.48V326.12L191.269 326.727L192.596 342.126Z" fill="#2F2E41"/>
<path d="M234.796 145.288H201.562V181.887H234.796V145.288Z" fill="#FFB6B6"/>
<path d="M202.331 163.341L196.707 169.77L186.992 189.554L162.515 245.892L157.338 257.806L161.518 278.869C161.518 278.869 162.195 293.708 162.195 296.137C162.195 301.083 166.471 303.823 166.471 303.823L169.609 319.63L200.03 318.393C200.03 318.393 198.968 300.97 192.597 296.575C186.225 292.18 183.296 269.275 183.296 269.275L179.834 259.113L213.579 220.419L213.797 233.944L213.902 240.491C213.902 240.491 208.96 283.072 214.721 291.335C220.481 299.599 214.838 298.627 214.838 298.627L215.113 315.673L251.158 315.92L243.206 266.844C243.206 266.844 239.168 263.759 241.328 260.659C243.489 257.559 239.235 253.762 239.235 253.762L241.143 215.45C241.143 215.45 239.03 208.832 241.515 207.972C244 207.112 241.841 201.421 241.841 201.421L242.211 194.005L234.797 171.007L202.331 163.341Z" fill="#2F2E41"/>
<path d="M235.309 145.288L238.888 134.902L241.444 131.44L242.467 121.548C242.467 94.8408 236.308 99.2882 236.308 99.2882L232.752 89.895L216.391 89.4004L205.91 99.0448L197.218 102.012L193.814 119.12L200.03 137.375L201.564 147.267C198.638 152.492 198.886 150.02 201.308 153.944L230.196 161.61C240.421 165.072 240.421 156.169 238.371 153.944C236.321 151.718 235.309 145.288 235.309 145.288Z" fill="#3F3D56"/>
<path d="M222.458 86.0801C230.835 86.0801 237.626 79.5113 237.626 71.4082C237.626 63.3052 230.835 56.7363 222.458 56.7363C214.082 56.7363 207.291 63.3052 207.291 71.4082C207.291 79.5113 214.082 86.0801 222.458 86.0801Z" fill="#FFB6B6"/>
<path d="M242.705 90.9928C242.848 91.2261 242.935 91.4875 242.959 91.7577C242.983 92.0278 242.943 92.2997 242.844 92.5531C242.744 92.8064 242.586 93.0348 242.383 93.221C242.179 93.4073 241.935 93.5468 241.668 93.629C239.633 94.2818 238.38 96.186 236.918 97.7093C235.461 99.2277 233.114 100.489 231.253 99.4552C229.397 98.4265 229.269 95.8002 227.715 94.3758C226.201 92.991 223.686 93.1591 221.906 94.2126L221.853 94.2442C221.546 94.4379 221.187 94.5403 220.82 94.5387C220.454 94.5371 220.096 94.4316 219.79 94.2352C219.485 94.0388 219.246 93.7601 219.103 93.4337C218.959 93.1073 218.918 92.7474 218.984 92.3985C219.607 89.1912 220.231 85.9843 220.853 82.7778C219.217 86.5912 216.841 90.0664 213.854 93.0157C213.031 93.9342 211.988 94.644 210.817 95.0831C209.753 95.4095 208.721 94.3461 207.688 94.539C210.254 92.3678 218.885 78.4501 217.341 69.147C215.526 69.3449 213.711 69.5427 211.896 69.7405C211.699 68.9096 211.279 68.1436 210.679 67.5199C210.752 68.3286 210.646 69.1431 210.367 69.9087C209.61 69.9928 208.848 70.0719 208.092 70.156C207.038 70.2698 205.893 70.3687 204.988 69.8345C203.48 68.9443 203.434 66.8373 203.863 65.1755C205.121 60.3434 208.935 56.3027 213.603 54.1859C218.271 52.074 219.652 56.7775 224.57 55.274C234.285 52.3065 241.729 57.3809 244.352 66.7978C246.555 74.6963 244.955 83.0795 242.705 90.9928Z" fill="#2F2E41"/>
<path d="M284.696 342.445H266.124L266.045 342.305C265.807 341.888 265.578 341.447 265.364 340.993C263.451 337.032 262.642 332.5 261.928 328.503L261.391 325.489C261.326 325.124 261.375 324.749 261.532 324.411C261.689 324.073 261.946 323.788 262.271 323.593C262.597 323.397 262.975 323.3 263.357 323.314C263.74 323.327 264.109 323.451 264.419 323.669C267.241 325.656 270.065 327.641 272.89 329.623C273.959 330.376 275.181 331.247 276.35 332.189C276.463 331.659 276.581 331.127 276.699 330.602C276.781 330.24 276.972 329.91 277.249 329.654C277.525 329.397 277.875 329.227 278.252 329.163C278.63 329.1 279.018 329.148 279.367 329.299C279.717 329.451 280.012 329.7 280.214 330.015L282.387 333.392C283.972 335.858 285.371 338.288 285.086 340.909C285.087 340.941 285.085 340.973 285.078 341.004C285.021 341.435 284.916 341.858 284.763 342.266L284.696 342.445Z" fill="#F0F0F0"/>
<path d="M303.337 342.834L126.854 343C126.678 343 126.51 342.931 126.385 342.811C126.261 342.69 126.191 342.526 126.191 342.356C126.191 342.185 126.261 342.022 126.385 341.901C126.51 341.78 126.678 341.712 126.854 341.711L303.337 341.545C303.513 341.546 303.682 341.614 303.806 341.735C303.93 341.856 304 342.019 304 342.189C304 342.36 303.93 342.523 303.806 342.644C303.682 342.765 303.513 342.833 303.337 342.834Z" fill="#CACACA"/>
<path d="M143.103 102.537L123.691 86.6784C123.028 86.1352 122.614 85.3595 122.541 84.5215C122.468 83.6836 122.741 82.8518 123.302 82.2087L126.874 78.1161C127.436 77.4742 128.238 77.0741 129.104 77.0034C129.97 76.9328 130.83 77.1974 131.495 77.7393L150.907 93.5975C151.571 94.1407 151.985 94.9164 152.058 95.7544C152.131 96.5923 151.857 97.4241 151.297 98.0672L147.724 102.16C147.162 102.802 146.361 103.202 145.494 103.272C144.628 103.343 143.768 103.078 143.103 102.537Z" fill="#3F3D56"/>
<path d="M124.709 82.539C124.407 82.8856 124.26 83.3338 124.299 83.7854C124.339 84.2369 124.561 84.6549 124.919 84.9477L144.331 100.806C144.69 101.098 145.153 101.24 145.62 101.202C146.087 101.164 146.519 100.949 146.821 100.603L150.394 96.5102C150.696 96.1637 150.843 95.7154 150.804 95.2639C150.765 94.8123 150.542 94.3943 150.184 94.1016L130.772 78.2434C130.414 77.9514 129.95 77.8088 129.484 77.8469C129.017 77.8849 128.585 78.1006 128.282 78.4464L124.709 82.539Z" fill="white"/>
<path d="M136.105 88.7031C136.037 88.7943 135.949 88.8691 135.847 88.9215C135.744 88.9739 135.631 89.0025 135.515 89.005L132.465 89.0728C132.367 89.075 132.269 89.0584 132.178 89.0242C132.086 88.9899 132.003 88.9386 131.932 88.8731C131.861 88.8076 131.804 88.7293 131.765 88.6425C131.725 88.5558 131.704 88.4624 131.701 88.3676C131.699 88.2728 131.716 88.1785 131.752 88.0901C131.787 88.0017 131.84 87.9209 131.908 87.8523C131.976 87.7838 132.057 87.7288 132.146 87.6905C132.236 87.6522 132.332 87.6314 132.43 87.6292L134.426 87.5848L132.461 82.569C132.391 82.3901 132.398 82.1917 132.479 82.0175C132.56 81.8433 132.71 81.7074 132.895 81.6396C133.08 81.5719 133.285 81.5778 133.465 81.6561C133.645 81.7344 133.786 81.8787 133.857 82.0573L136.196 88.0274C136.238 88.1354 136.253 88.2516 136.239 88.3663C136.225 88.481 136.183 88.5909 136.117 88.6867L136.105 88.7031Z" fill="#7B2CBF"/>
<path d="M136.497 89.9645C137.233 90.069 137.936 90.3283 138.557 90.7241C139.177 91.1199 139.701 91.6425 140.091 92.2552C140.48 92.868 140.726 93.5558 140.811 94.2704C140.896 94.985 140.818 95.7089 140.582 96.3911L154.901 107.061L146.02 110.017L133.784 99.4319C132.625 98.9731 131.681 98.1191 131.13 97.0318C130.579 95.9445 130.459 94.6994 130.793 93.5324C131.128 92.3655 131.893 91.3577 132.944 90.7001C133.996 90.0425 135.26 89.7808 136.497 89.9645Z" fill="#FFB6B6"/>
<path d="M211.044 95.2393L174.383 117.044C174.383 117.044 159.602 111.753 162.49 109.304C165.379 106.855 156.183 105.199 156.183 105.199L146.024 98.5877L140.129 105.215C140.129 105.215 141.203 115.98 143.031 114.116C144.858 112.252 147.59 117.344 147.59 117.344C147.59 117.344 148.397 123.029 153.6 121.599C158.803 120.168 172.763 135.165 172.763 135.165L217.881 118.887L211.044 95.2393Z" fill="#3F3D56"/>
<path d="M144.868 73.5954C144.443 73.5954 144.024 73.4997 143.643 73.3157C143.263 73.1318 142.933 72.8648 142.678 72.5359L135.963 63.8756C135.748 63.5974 135.591 63.2808 135.502 62.9439C135.412 62.607 135.393 62.2564 135.444 61.9122C135.494 61.5679 135.615 61.2367 135.798 60.9375C135.981 60.6382 136.224 60.3768 136.511 60.1682C137.092 59.7468 137.822 59.5658 138.541 59.6652C138.897 59.7144 139.239 59.8309 139.548 60.0081C139.858 60.1853 140.128 60.4197 140.344 60.6979L144.737 66.3632L156.019 49.9928C156.422 49.4084 157.048 49.0027 157.76 48.8649C158.472 48.7272 159.211 48.8687 159.815 49.2583C160.419 49.6479 160.839 50.2537 160.981 50.9424C161.124 51.6312 160.977 52.3464 160.575 52.9308L147.146 72.416C146.903 72.7684 146.576 73.0594 146.193 73.2644C145.81 73.4695 145.382 73.5827 144.944 73.5946C144.919 73.595 144.893 73.5954 144.868 73.5954Z" fill="white"/>
</g>
<defs>
<clipPath id="clip0_3188_2464">
<rect width="304" height="343" fill="white"/>
</clipPath>
</defs>
</svg>
