<svg width="410" height="312" viewBox="0 0 410 312" fill="none" xmlns="http://www.w3.org/2000/svg">
<g clip-path="url(#clip0_4432_2005)">
<path d="M164.061 64.7016H162.565V23.7194C162.565 20.6045 161.952 17.5202 160.76 14.6424C159.568 11.7646 157.822 9.14982 155.62 6.94726C153.417 4.74471 150.803 2.99755 147.926 1.80554C145.049 0.613527 141.965 2.63917e-06 138.851 0H52.041C45.7515 -1.19924e-05 39.7195 2.49897 35.2721 6.94721C30.8247 11.3954 28.3262 17.4286 28.3262 23.7193V248.551C28.3262 251.666 28.9396 254.75 30.1313 257.628C31.3231 260.506 33.0699 263.121 35.2721 265.323C37.4742 267.526 40.0885 269.273 42.9657 270.465C45.8429 271.657 48.9267 272.27 52.041 272.27H138.851C145.14 272.27 151.172 269.771 155.619 265.323C160.067 260.875 162.565 254.842 162.565 248.551V93.8735H164.061V64.7016Z" fill="#3F3D56"/>
<path d="M139.809 6.1709H128.477C128.998 7.44873 129.197 8.83514 129.056 10.208C128.916 11.5808 128.439 12.898 127.67 14.0434C126.9 15.1888 125.861 16.1273 124.643 16.7763C123.425 17.4252 122.067 17.7647 120.687 17.7648H70.9549C69.5751 17.7647 68.2166 17.4253 66.9989 16.7763C65.7812 16.1273 64.7417 15.1888 63.9721 14.0434C63.2025 12.898 62.7263 11.5808 62.5855 10.208C62.4447 8.83514 62.6436 7.44873 63.1647 6.1709H52.5811C50.2554 6.1709 47.9524 6.62907 45.8038 7.51925C43.6551 8.40943 41.7027 9.71418 40.0582 11.359C38.4137 13.0039 37.1092 14.9566 36.2192 17.1056C35.3292 19.2547 34.8711 21.5581 34.8711 23.8843V248.386C34.8711 250.712 35.3292 253.016 36.2192 255.165C37.1092 257.314 38.4137 259.266 40.0582 260.911C41.7027 262.556 43.6551 263.861 45.8037 264.751C47.9524 265.641 50.2553 266.099 52.581 266.099H139.809C142.134 266.099 144.437 265.641 146.586 264.751C148.735 263.861 150.687 262.556 152.332 260.911C153.976 259.266 155.281 257.314 156.171 255.165C157.061 253.016 157.519 250.712 157.519 248.386V23.8843C157.519 21.5581 157.061 19.2547 156.171 17.1056C155.281 14.9566 153.976 13.0039 152.332 11.359C150.687 9.71418 148.735 8.40942 146.586 7.51925C144.437 6.62907 142.134 6.1709 139.809 6.1709Z" fill="white"/>
<path d="M191.886 272.31H0.502318C0.369095 272.31 0.241328 272.257 0.147125 272.162C0.0529223 272.068 0 271.94 0 271.807C0 271.674 0.0529223 271.546 0.147125 271.452C0.241328 271.358 0.369095 271.305 0.502318 271.305H191.886C192.019 271.305 192.147 271.358 192.241 271.452C192.335 271.546 192.388 271.674 192.388 271.807C192.388 271.94 192.335 272.068 192.241 272.162C192.147 272.257 192.019 272.31 191.886 272.31Z" fill="#CBCBCB"/>
<path d="M96.1943 173.674C119.622 173.674 138.613 154.679 138.613 131.247C138.613 107.816 119.622 88.8203 96.1943 88.8203C72.767 88.8203 53.7754 107.816 53.7754 131.247C53.7754 154.679 72.767 173.674 96.1943 173.674Z" fill="#6A23A7"/>
<path d="M91.9896 147.433C91.0354 147.434 90.1064 147.126 89.3429 146.553L89.2956 146.518L79.3265 138.89C78.8648 138.536 78.4774 138.095 78.1863 137.591C77.8952 137.087 77.7061 136.531 77.6299 135.954C77.5538 135.377 77.5919 134.791 77.7423 134.229C77.8926 133.666 78.1521 133.139 78.5061 132.678C78.8601 132.216 79.3015 131.828 79.8052 131.537C80.3089 131.246 80.865 131.057 81.4418 130.981C82.0186 130.905 82.6047 130.943 83.1667 131.093C83.7287 131.243 84.2556 131.503 84.7173 131.857L91.1745 136.81L106.433 116.899C106.787 116.438 107.228 116.05 107.732 115.759C108.235 115.468 108.791 115.279 109.367 115.203C109.944 115.127 110.53 115.165 111.092 115.315C111.653 115.466 112.18 115.725 112.642 116.079L112.643 116.08L112.548 116.212L112.645 116.08C113.577 116.796 114.186 117.852 114.339 119.016C114.493 120.181 114.178 121.359 113.465 122.291L95.5173 145.7C95.1021 146.239 94.5682 146.675 93.9571 146.975C93.346 147.275 92.6741 147.43 91.9935 147.428L91.9896 147.433Z" fill="white"/>
<path d="M348.731 276.479C349.247 275.645 349.855 274.871 350.542 274.171C350.826 273.877 351.125 273.599 351.433 273.33C353.309 271.66 355.595 270.52 358.057 270.027C360.519 269.534 363.068 269.706 365.442 270.525C367.816 271.344 369.928 272.781 371.563 274.687C373.197 276.593 374.295 278.901 374.742 281.372C376.814 273.709 371.421 266.161 365.999 260.363C360.574 254.567 354.374 248.209 354.405 240.267C354.42 235.848 356.581 231.906 359.844 228.983C359.945 228.895 360.046 228.806 360.148 228.721C364.093 225.339 369.167 223.571 374.358 223.768C384.002 224.284 392.423 230.767 398.271 238.457C407.684 250.83 411.808 268.199 405.219 282.284C399.422 294.671 387.06 302.027 374.444 307.941C372.682 308.767 370.924 309.568 369.169 310.345C369.158 310.348 369.145 310.356 369.133 310.359C369.049 310.396 368.964 310.433 368.885 310.471C368.523 310.631 368.161 310.791 367.802 310.949L367.968 311.058L368.487 311.394C368.307 311.285 368.129 311.179 367.949 311.07C367.896 311.037 367.839 311.006 367.786 310.973C361.589 307.254 355.307 303.32 351.026 297.514C346.586 291.486 344.801 282.852 348.731 276.479Z" fill="#F1F1F1"/>
<path d="M390.074 262.48C391.446 265.602 392.356 268.907 392.774 272.292C393.103 275.31 392.98 278.36 392.407 281.342C391.176 287.468 388.493 293.21 384.582 298.084C381.632 301.783 378.225 305.095 374.444 307.941C372.683 308.767 370.925 309.568 369.17 310.344C369.158 310.347 369.146 310.355 369.134 310.358C369.05 310.396 368.965 310.433 368.886 310.471C368.524 310.631 368.161 310.791 367.802 310.948L367.969 311.057L368.487 311.393C368.308 311.284 368.13 311.178 367.95 311.07C367.896 311.037 367.84 311.006 367.786 310.972C369.15 306.202 369.351 301.173 368.371 296.309C367.392 291.444 365.261 286.886 362.157 283.015C359.036 279.193 355.057 276.162 350.543 274.17C350.826 273.876 351.126 273.599 351.434 273.329C353.173 274.128 354.837 275.079 356.409 276.171C362.028 280.055 366.248 285.647 368.444 292.117C370.403 297.987 370.648 304.294 369.149 310.299C369.46 310.095 369.772 309.887 370.076 309.679C375.849 305.785 381.169 301.109 385.176 295.375C388.632 290.528 390.844 284.906 391.617 279.004C392.385 272.556 390.772 266.215 387.894 260.462C384.715 254.307 380.711 248.615 375.99 243.546C371.25 238.336 365.889 233.726 360.029 229.819C359.897 229.729 359.804 229.593 359.77 229.437C359.736 229.282 359.762 229.119 359.845 228.983C359.908 228.859 360.017 228.764 360.149 228.72C360.216 228.703 360.286 228.701 360.354 228.715C360.422 228.729 360.485 228.758 360.54 228.8C361.264 229.283 361.981 229.77 362.69 230.271C368.592 234.451 373.951 239.348 378.646 244.849C383.183 250.152 387.311 256.044 390.074 262.48Z" fill="white"/>
<path d="M263.739 19.7004C268.714 19.7004 272.748 15.6663 272.748 10.69C272.748 5.71376 268.714 1.67969 263.739 1.67969C258.764 1.67969 254.73 5.71376 254.73 10.69C254.73 15.6663 258.764 19.7004 263.739 19.7004Z" fill="#F1F1F1"/>
<path d="M375.756 140.28C378.789 140.28 381.248 137.82 381.248 134.786C381.248 131.752 378.789 129.293 375.756 129.293C372.723 129.293 370.264 131.752 370.264 134.786C370.264 137.82 372.723 140.28 375.756 140.28Z" fill="#F1F1F1"/>
<path d="M215.014 155.352C218.047 155.352 220.506 152.893 220.506 149.859C220.506 146.825 218.047 144.365 215.014 144.365C211.981 144.365 209.521 146.825 209.521 149.859C209.521 152.893 211.981 155.352 215.014 155.352Z" fill="#F1F1F1"/>
<path d="M218.114 312H409.497C409.63 312 409.758 311.947 409.852 311.853C409.946 311.759 409.999 311.631 409.999 311.498C409.999 311.364 409.946 311.236 409.852 311.142C409.758 311.048 409.63 310.995 409.497 310.995H218.114C217.98 310.995 217.853 311.048 217.758 311.142C217.664 311.236 217.611 311.364 217.611 311.498C217.611 311.631 217.664 311.759 217.758 311.853C217.853 311.947 217.98 312 218.114 312Z" fill="#CBCBCB"/>
<path d="M388.377 48.5512C388.628 46.7667 388.216 44.952 387.219 43.4509C386.222 41.9498 384.709 40.8667 382.967 40.4068C381.225 39.9469 379.374 40.1422 377.767 40.9556C376.159 41.769 374.905 43.1441 374.243 44.8202L358.713 62.628L363.27 75.3576L378.888 54.5499C379.907 54.8764 380.986 54.9755 382.047 54.8401C383.109 54.7047 384.128 54.3381 385.033 53.7662C385.937 53.1943 386.706 52.4309 387.283 51.5299C387.861 50.6289 388.234 49.6121 388.377 48.5512Z" fill="#FFB7B7"/>
<path d="M324.003 117.841L375.555 62.812L368.601 51.7549L303.941 106.45L324.003 117.841Z" fill="#3F3D56"/>
<path d="M312.496 84.4054C322.483 84.4054 330.579 76.3076 330.579 66.3184C330.579 56.3293 322.483 48.2314 312.496 48.2314C302.508 48.2314 294.412 56.3293 294.412 66.3184C294.412 76.3076 302.508 84.4054 312.496 84.4054Z" fill="#2F2E41"/>
<path d="M313.949 56.1018C317.84 52.155 322.549 49.1094 327.744 47.1793C331.079 45.9437 334.709 45.1802 338.195 45.882C341.682 46.5837 344.979 48.996 345.951 52.4173C346.746 55.2149 345.925 58.2271 344.691 60.8606C343.457 63.4942 341.809 65.9363 340.811 68.6681C339.792 71.4555 339.486 74.4532 339.92 77.389C340.353 80.3249 341.513 83.1059 343.294 85.4796C345.075 87.8534 347.42 89.7447 350.117 90.9819C352.814 92.219 355.778 92.7629 358.738 92.5641C355.313 93.0235 352.155 94.6336 348.807 95.4906C345.459 96.3476 341.507 96.2895 339.019 93.8903C336.386 91.3519 336.333 87.2247 336.46 83.5694C336.65 78.1358 336.839 72.7022 337.028 67.2686C337.125 64.4975 337.207 61.6377 336.208 59.0513C335.209 56.4649 332.834 54.2001 330.062 54.2237C327.961 54.2415 326.102 55.5145 324.417 56.7699C322.732 58.0254 320.949 59.3648 318.856 59.5515C316.763 59.7383 314.374 58.1892 314.53 56.0937L313.949 56.1018Z" fill="#2F2E41"/>
<path d="M243.814 187.764C242.078 188.247 240.226 188.075 238.608 187.283C236.989 186.49 235.718 185.131 235.035 183.464C234.351 181.797 234.303 179.936 234.899 178.236C235.495 176.535 236.694 175.112 238.269 174.237L253.892 156.51L267.105 159.365L248.521 177.572C248.977 178.54 249.217 179.596 249.221 180.666C249.226 181.737 248.995 182.795 248.547 183.767C248.098 184.739 247.442 185.6 246.624 186.291C245.807 186.982 244.847 187.484 243.814 187.764Z" fill="#FFB7B7"/>
<path d="M295.212 124.3L256.275 173.185L244.406 167.735L290.172 96.4697L295.212 124.3Z" fill="#3F3D56"/>
<path d="M264.143 271.913L254.863 271.768L255.979 303.403H264.142L264.143 271.913Z" fill="#FFB7B7"/>
<path d="M266.224 300.737L250.149 300.736H250.148C247.432 300.736 244.826 301.816 242.905 303.737C240.984 305.659 239.904 308.265 239.904 310.982V311.315L266.223 311.316L266.224 300.737Z" fill="#2F2E41"/>
<path d="M325.585 263.522L315.447 270.032L335.725 294.432L342.594 290.021L325.585 263.522Z" fill="#FFB7B7"/>
<path d="M342.907 286.652L329.38 295.338L329.379 295.339C327.093 296.807 325.484 299.123 324.905 301.778C324.326 304.433 324.826 307.21 326.294 309.496L326.473 309.777L348.621 295.555L342.907 286.652Z" fill="#2F2E41"/>
<path d="M329.198 166.923C329.198 166.923 306.674 92.0996 299.435 91.0885C292.197 90.0773 280.534 110.287 280.534 110.287C265.413 129.584 249.82 192.091 249.82 192.091C249.82 192.091 275.814 193.718 294.815 203.829C313.816 213.94 336.24 203.317 336.24 203.317L329.198 166.923Z" fill="#3F3D56"/>
<path opacity="0.1" d="M329.198 166.923C329.198 166.923 306.674 92.0992 299.435 91.0881C292.197 90.077 283.496 110.492 283.496 110.492C275.961 141.642 249.82 192.091 249.82 192.091C249.82 192.091 275.814 193.718 294.815 203.829C313.816 213.94 336.24 203.317 336.24 203.317L329.198 166.923Z" fill="black"/>
<path d="M310.718 144.535V182.134L315.142 236.598L337.244 277.796L326.695 285.332L296.556 246.143L284.635 207.232L265.915 293.37L251.85 292.366L261.618 172.936L280.154 139.319L310.718 144.535Z" fill="#2F2E41"/>
<path d="M288.008 108.17C280.976 115.204 287.506 122.74 287.506 122.74L279.469 140.827L311.115 149.368L322.174 99.9413L314.639 91.9027C299.57 91.4003 299.561 91.0879 299.561 91.0879C296.921 93.6722 288.008 108.17 288.008 108.17Z" fill="#6A23A7"/>
<path d="M323.448 94.8206C322.011 93.7594 320.378 92.994 318.642 92.5688C316.907 92.1435 315.105 92.0668 313.34 92.3431C311.575 92.6195 309.883 93.2433 308.36 94.1785C306.838 95.1137 305.517 96.3417 304.472 97.7914C296.517 108.871 289.16 126.761 299.296 149.074C315.571 184.901 329.733 203.242 335.491 203.24C335.742 203.242 335.992 203.202 336.231 203.123C339.775 201.921 344.899 195.923 345.826 190.637C346.158 188.745 346.079 186.11 343.817 184.3C337.319 179.102 325.654 162.917 322.016 141.613C320.005 129.842 323.904 119.119 327.53 112.197C329.061 109.333 329.509 106.012 328.792 102.845C328.074 99.6768 326.239 96.8738 323.623 94.9494L323.448 94.8206Z" fill="#3F3D56"/>
<path d="M313.427 82.6291C319.878 79.1021 322.248 71.0125 318.722 64.5604C315.196 58.1084 307.108 55.7371 300.657 59.2642C294.206 62.7912 291.835 70.8808 295.362 77.3329C298.888 83.7849 306.976 86.1562 313.427 82.6291Z" fill="#FFB7B7"/>
<path d="M288.32 69.9399H307.542L307.739 67.1797L308.724 69.9399H311.684L312.075 64.4693L314.028 69.9399H319.755V69.6689C319.751 65.8603 318.236 62.209 315.544 59.5159C312.851 56.8229 309.201 55.308 305.393 55.3037H302.683C298.875 55.308 295.224 56.8228 292.532 59.5159C289.839 62.209 288.325 65.8603 288.32 69.6689V69.9399Z" fill="#2F2E41"/>
<path d="M316.852 79.8611L325.054 77.199V57.2754H309.561L309.944 57.6585C315.281 62.9895 321.217 81.9035 316.852 79.8611Z" fill="#2F2E41"/>
</g>
<defs>
<clipPath id="clip0_4432_2005">
<rect width="410" height="312" fill="white"/>
</clipPath>
</defs>
</svg>
