<svg width="17" height="20" viewBox="0 0 17 20" fill="none" xmlns="http://www.w3.org/2000/svg">
<path d="M0.503906 7.43457C0.503906 4.60614 0.503906 3.19193 1.38259 2.31325C2.26127 1.43457 3.67548 1.43457 6.50391 1.43457H10.5039C13.3323 1.43457 14.7465 1.43457 15.6252 2.31325C16.5039 3.19193 16.5039 4.60614 16.5039 7.43457V14.2622C16.5039 16.9455 16.5039 18.2871 15.6596 18.6975C14.8153 19.1078 13.7604 18.2789 11.6504 16.6211L10.9752 16.0906C9.78882 15.1584 9.19563 14.6924 8.50391 14.6924C7.81218 14.6924 7.21899 15.1584 6.03262 16.0906L5.35737 16.6211C3.24745 18.2789 2.19249 19.1078 1.3482 18.6975C0.503906 18.2871 0.503906 16.9455 0.503906 14.2622V7.43457Z" stroke="url(#paint0_linear_2385_772)"/>
<defs>
<linearGradient id="paint0_linear_2385_772" x1="8.50391" y1="1.43457" x2="8.50391" y2="18.8013" gradientUnits="userSpaceOnUse">
<stop stop-color="#7B2CBF"/>
<stop offset="1" stop-color="#D600E8"/>
</linearGradient>
</defs>
</svg>
