<svg width="34" height="34" viewBox="0 0 34 34" fill="none" xmlns="http://www.w3.org/2000/svg">
<path d="M16.9993 31.1676C20.6827 31.1676 24.026 29.7651 26.5477 27.4559C26.406 26.1243 25.556 24.8209 24.0402 23.8009C20.1868 21.2226 13.8402 21.2226 9.95851 23.8009C8.44268 24.8209 7.59268 26.1243 7.45101 27.4559C9.97268 29.7651 13.316 31.1676 16.9993 31.1676ZM16.9993 31.1676C24.8234 31.1676 31.1663 24.8242 31.1663 17.0002C31.1663 9.17613 24.8237 2.8335 16.9997 2.8335C9.17564 2.8335 2.83301 9.17613 2.83301 17.0002C2.83301 24.8242 9.17531 31.1676 16.9993 31.1676ZM17.1693 18.1058C17.0701 18.0917 16.9426 18.0917 16.8293 18.1058C14.336 18.0208 12.3526 15.9808 12.3526 13.4733C12.3526 10.9092 14.421 8.82666 16.9993 8.82666C19.5635 8.82666 21.646 10.9092 21.646 13.4733C21.6318 15.9808 19.6626 18.0208 17.1693 18.1058Z" stroke="#343A40" stroke-width="1.5" stroke-linecap="round" stroke-linejoin="round"/>
</svg>
