<svg width="24" height="25" viewBox="0 0 24 25" fill="none" xmlns="http://www.w3.org/2000/svg">
<path fill-rule="evenodd" clip-rule="evenodd" d="M20 4.5H4V20.5H20V4.5ZM4 3.5C3.73478 3.5 3.48043 3.60536 3.29289 3.79289C3.10536 3.98043 3 4.23478 3 4.5V20.5C3 20.7652 3.10536 21.0196 3.29289 21.2071C3.48043 21.3946 3.73478 21.5 4 21.5H20C20.2652 21.5 20.5196 21.3946 20.7071 21.2071C20.8946 21.0196 21 20.7652 21 20.5V4.5C21 4.23478 20.8946 3.98043 20.7071 3.79289C20.5196 3.60536 20.2652 3.5 20 3.5H4Z" fill="black"/>
<path fill-rule="evenodd" clip-rule="evenodd" d="M5 17.5H10V18.5H5V17.5ZM14 17.5H16V18.5H14V17.5ZM11 17.5H13V18.5H11V17.5ZM17 17.5H19V18.5H17V17.5ZM8.414 14.5H10.776C11.2991 14.4999 11.8013 14.295 12.175 13.929L14 12.142V11.914C14.0001 11.3836 14.2109 10.875 14.586 10.5L15.4305 9.655L14.1275 8.787L8.414 14.5ZM6 15.5L14 7.5L17 9.5L15.293 11.207C15.1055 11.3945 15.0001 11.6488 15 11.914V12.142C15.0001 12.2751 14.9736 12.407 14.9221 12.5298C14.8706 12.6525 14.7951 12.7638 14.7 12.857L12.875 14.6435C12.3142 15.1927 11.5604 15.5002 10.7755 15.5H6Z" fill="black"/>
<path fill-rule="evenodd" clip-rule="evenodd" d="M13.3532 11.1467C13.447 11.2404 13.4996 11.3676 13.4996 11.5002C13.4996 11.6328 13.447 11.7599 13.3532 11.8537L11.8532 13.3537C11.7589 13.4448 11.6326 13.4952 11.5015 13.494C11.3704 13.4929 11.245 13.4403 11.1523 13.3476C11.0596 13.2549 11.007 13.1295 11.0059 12.9984C11.0047 12.8673 11.0551 12.741 11.1462 12.6467L12.6462 11.1467C12.74 11.0529 12.8671 11.0003 12.9997 11.0003C13.1323 11.0003 13.2595 11.0529 13.3532 11.1467ZM18.3532 4.55418L14.5532 8.35418L13.8462 7.64668L17.6462 3.84668L18.3532 4.55418ZM19.1032 6.69668C19.197 6.79044 19.2496 6.9176 19.2496 7.05018C19.2496 7.18276 19.197 7.30992 19.1032 7.40368L16.3532 10.1537L15.6462 9.44618L18.3962 6.69618C18.49 6.60244 18.6171 6.54979 18.7497 6.54979C18.8823 6.54979 19.0095 6.60294 19.1032 6.69668Z" fill="black"/>
</svg>
