<svg width="26" height="27" viewBox="0 0 26 27" fill="none" xmlns="http://www.w3.org/2000/svg">
<path d="M25 17.1C25 23.1 22.6 25.5 16.6 25.5H9.4C3.4 25.5 1 23.1 1 17.1V9.9C1 3.9 3.4 1.5 9.4 1.5H16.6C22.6 1.5 25 3.9 25 9.9V17.1ZM25 17.1L21.1239 14.9229C20.2448 14.4292 19.1508 14.5375 18.3856 15.1942L14.6679 18.3847C13.7319 19.1887 12.2199 19.1887 11.2839 18.3847L10.8879 18.0367C10.0359 17.3047 8.66791 17.2327 7.71991 17.8687L1.80391 21.8407M11.8 8.7C11.8 10.0255 10.7255 11.1 9.4 11.1C8.07452 11.1 7 10.0255 7 8.7C7 7.37452 8.07452 6.3 9.4 6.3C10.7255 6.3 11.8 7.37452 11.8 8.7Z" stroke="#1F2023" stroke-width="1.5" stroke-linecap="round" stroke-linejoin="round"/>
</svg>
