<svg width="44" height="29" viewBox="0 0 44 29" fill="none" xmlns="http://www.w3.org/2000/svg">
<path d="M22.7777 27.4964C23.4956 26.6032 23.7498 25.71 23.1815 24.7274C22.6581 23.8193 21.8205 23.4769 20.7138 23.596C20.9381 22.7921 20.8933 22.018 20.3549 21.363C19.8165 20.6931 19.0836 20.44 18.3059 20.4995C18.3059 19.8743 18.3957 19.2341 18.276 18.6386C18.1564 17.9985 17.7077 17.537 17.1095 17.2393C16.0925 16.7182 15.2101 16.9862 13.9986 18.2218C13.7893 17.1499 13.2359 16.3609 12.1591 16.1376C11.0673 15.8994 10.2746 16.4354 9.72128 17.1946C8.40517 15.9441 7.10402 14.7382 5.77295 13.5026C6.65534 12.1628 7.49287 10.8974 8.33039 9.64685C9.46704 7.91995 10.6186 6.20794 11.7553 4.48104C11.9497 4.1833 12.1142 4.0642 12.5031 4.16841C15.225 4.82344 17.947 5.43381 20.7886 6.10373C19.8165 6.62477 18.9341 7.0565 18.0965 7.57755C17.6479 7.8604 17.2141 8.24746 16.9001 8.67919C16.2869 9.55753 15.7634 10.4805 15.2101 11.4035C14.8063 12.0586 14.7913 12.7434 15.24 13.3835C15.7036 14.0385 16.3617 14.2321 17.1543 14.0832C18.3807 13.845 19.3678 13.1453 20.2801 12.3712C21.7458 11.1058 23.3759 10.8229 25.2604 11.076C26.5316 11.2398 27.5037 11.7608 28.446 12.5349C30.4351 14.1576 32.499 15.7059 34.518 17.2839C35.2509 17.8645 35.4303 18.7726 34.9667 19.4277C34.4432 20.1571 33.5459 20.2911 32.7084 19.7403C31.0034 18.6089 29.2984 17.4477 27.5935 16.3014C27.4738 16.212 27.3542 16.0929 27.2196 16.0781C27.0401 16.0632 26.8606 16.1376 26.6812 16.1674C26.7111 16.3311 26.7111 16.5098 26.7859 16.6587C26.8307 16.7629 26.9803 16.8075 27.0999 16.882C28.6254 17.9092 30.136 18.9215 31.6615 19.9487C32.5139 20.5144 32.7383 21.4374 32.2148 22.1818C31.5269 23.1643 30.5846 23.3876 29.6873 22.7772C28.3413 21.8542 27.0252 20.9164 25.6791 19.9934C25.4548 19.8296 25.1856 19.5319 24.9164 19.904C24.6472 20.2911 25.0211 20.4549 25.2753 20.6335C26.4419 21.4523 27.6084 22.2562 28.775 23.075C29.3583 23.4769 29.5377 24.0575 29.4031 24.7274C29.2835 25.308 28.76 25.8142 28.1169 25.844C27.7281 25.8589 27.2794 25.7249 26.9354 25.5165C25.9633 24.9061 25.051 24.2064 24.0938 23.5663C23.9293 23.462 23.6451 23.5365 23.4208 23.5216C23.4956 23.73 23.5255 24.0278 23.6751 24.1468C24.3929 24.6977 25.1557 25.2038 25.8885 25.7249C26.741 26.3352 26.9504 27.2285 26.412 27.9728C25.739 28.8958 24.8566 29.0745 23.9592 28.4492C23.5853 28.1068 23.2114 27.8091 22.7777 27.4964Z" fill="#9F9090"/>
<path d="M38.1973 13.5472C37.1504 14.634 36.1334 15.6761 35.1014 16.748C33.6507 15.6165 32.2299 14.5149 30.7942 13.3984C29.7024 12.5498 28.6106 11.6864 27.5039 10.8527C27.2795 10.6889 26.9804 10.5698 26.7112 10.5103C26.0831 10.421 25.44 10.4359 24.8418 10.2721C23.421 9.88503 22.1946 10.4954 20.9233 10.9122C20.7738 10.9569 20.6541 11.0909 20.5195 11.1951C19.8016 11.731 19.0987 12.3265 18.336 12.8029C17.9172 13.0709 17.3938 13.2644 16.9002 13.3239C16.5712 13.3686 16.0926 13.19 15.8982 12.9369C15.7187 12.7136 15.6888 12.1776 15.8234 11.9246C16.4216 10.8229 17.0647 9.73616 17.8125 8.73873C18.1715 8.24745 18.7697 7.87528 19.338 7.57754C20.37 7.05649 21.4318 6.55033 22.5386 6.19304C23.8397 5.7762 25.1857 5.49335 26.5168 5.1956C28.1919 4.82343 29.8819 4.48103 31.5719 4.15351C31.7364 4.12374 32.0355 4.18328 32.1103 4.31727C34.1293 7.384 36.1483 10.4507 38.1973 13.5472Z" fill="#9F9090"/>
<path d="M32.0801 3.12628C33.6654 2.08419 35.2208 1.05698 36.8211 0C39.214 3.60267 41.592 7.17556 43.9849 10.7782C42.3996 11.8203 40.8442 12.8475 39.2439 13.9045C36.851 10.3018 34.488 6.72895 32.0801 3.12628Z" fill="#9F9090"/>
<path d="M4.74099 13.9045C3.14072 12.8475 1.60027 11.8352 0 10.7931C2.39293 7.19045 4.75595 3.61756 7.16383 0C8.74915 1.04209 10.2896 2.05441 11.9198 3.12628C9.52685 6.71407 7.14888 10.287 4.74099 13.9045Z" fill="#9F9090"/>
<path d="M17.8572 19.4126C17.6927 19.7698 17.588 20.1718 17.3487 20.4695C16.3916 21.6605 15.4045 22.8366 14.4323 24.0127C13.8192 24.7272 12.9069 24.8463 12.2039 24.3253C11.4711 23.7596 11.2617 22.6877 11.83 21.9582C12.8321 20.6928 13.879 19.4423 14.9408 18.2067C15.3895 17.6708 16.0924 17.5368 16.7056 17.7601C17.3188 17.9983 17.7525 18.6533 17.8572 19.4126Z" fill="#9F9090"/>
<path d="M14.7612 25.3078C14.9108 24.9803 15.0155 24.623 15.2249 24.3402C15.9128 23.4618 16.6158 22.6282 17.3336 21.7796C17.9319 21.0799 18.8741 20.9608 19.562 21.4967C20.25 22.0178 20.3846 22.9855 19.8163 23.7149C19.0984 24.6379 18.3506 25.5311 17.5879 26.4095C17.1242 26.9454 16.4512 27.0645 15.8231 26.8114C15.2249 26.5732 14.851 26.0075 14.7612 25.3078Z" fill="#9F9090"/>
<path d="M13.2956 18.326C13.2956 19.1299 11.6056 21.1843 10.813 21.3778C10.14 21.5267 9.49687 21.2885 9.10802 20.7228C8.74908 20.2018 8.73412 19.4872 9.13793 18.9661C9.5866 18.3707 10.0801 17.7752 10.5886 17.2244C11.0373 16.7331 11.7552 16.614 12.3833 16.8819C12.9217 17.0904 13.2956 17.6859 13.2956 18.326Z" fill="#9F9090"/>
<path d="M20.0258 28.9998C19.3528 28.8807 18.9041 28.6276 18.605 28.0917C18.2909 27.526 18.3059 26.9454 18.6798 26.4243C19.1135 25.8288 19.5921 25.2631 20.0856 24.7272C20.6689 24.1019 21.5812 24.0573 22.2393 24.5932C22.8674 25.0845 23.017 26.0372 22.5085 26.722C22.0747 27.3175 21.6111 27.8981 21.0877 28.4192C20.8185 28.6871 20.3847 28.8062 20.0258 28.9998Z" fill="#9F9090"/>
</svg>
