  <svg
          width="24"
          height="24"
          viewBox="0 0 24 24"
          fill="none"
          xmlns="http://www.w3.org/2000/svg"
        >
          <path
            fillRule="evenodd"
            clipRule="evenodd"
            d="M13.9838 2.54161C14.0711 2.71093 14.0928 2.92777 14.1361 3.36144C14.2182 4.1823 14.2593 4.59274 14.4311 4.81793C14.649 5.10358 15.0034 5.25038 15.3595 5.20248C15.6402 5.16472 15.9594 4.90352 16.5979 4.38113C16.9352 4.10515 17.1038 3.96716 17.2853 3.90918C17.5158 3.83555 17.7652 3.84798 17.9872 3.94419C18.162 4.01994 18.3161 4.17402 18.6243 4.4822L19.5178 5.37567C19.8259 5.68385 19.98 5.83794 20.0558 6.01275C20.152 6.23478 20.1644 6.48415 20.0908 6.71464C20.0328 6.89612 19.8948 7.06478 19.6188 7.4021C19.0964 8.0406 18.8352 8.35984 18.7975 8.64056C18.7496 8.99662 18.8964 9.35102 19.182 9.56893C19.4072 9.74072 19.8176 9.78176 20.6385 9.86385C21.0722 9.90722 21.2891 9.92891 21.4584 10.0162C21.6734 10.1272 21.841 10.3123 21.9299 10.5373C22 10.7145 22 10.9324 22 11.3682V12.6319C22 13.0676 22 13.2855 21.93 13.4626C21.841 13.6877 21.6734 13.8729 21.4583 13.9838C21.289 14.0711 21.0722 14.0928 20.6386 14.1361L20.6386 14.1361C19.818 14.2182 19.4077 14.2592 19.1825 14.4309C18.8967 14.6489 18.7499 15.0034 18.7979 15.3596C18.8357 15.6402 19.0968 15.9593 19.619 16.5976C19.8949 16.9348 20.0328 17.1034 20.0908 17.2848C20.1645 17.5154 20.152 17.7648 20.0558 17.9869C19.98 18.1617 19.826 18.3157 19.5179 18.6238L18.6243 19.5174C18.3162 19.8255 18.1621 19.9796 17.9873 20.0554C17.7652 20.1516 17.5159 20.164 17.2854 20.0904C17.1039 20.0324 16.9352 19.8944 16.5979 19.6184L16.5979 19.6184C15.9594 19.096 15.6402 18.8348 15.3595 18.7971C15.0034 18.7492 14.649 18.896 14.4311 19.1816C14.2593 19.4068 14.2183 19.8173 14.1362 20.6383C14.0928 21.0722 14.0711 21.2891 13.9837 21.4585C13.8728 21.6735 13.6877 21.8409 13.4628 21.9299C13.2856 22 13.0676 22 12.6316 22H11.3682C10.9324 22 10.7145 22 10.5373 21.9299C10.3123 21.841 10.1272 21.6734 10.0162 21.4584C9.92891 21.2891 9.90722 21.0722 9.86385 20.6385C9.78176 19.8176 9.74072 19.4072 9.56892 19.182C9.35101 18.8964 8.99663 18.7496 8.64057 18.7975C8.35985 18.8352 8.04059 19.0964 7.40208 19.6189L7.40206 19.6189C7.06473 19.8949 6.89607 20.0329 6.71458 20.0908C6.4841 20.1645 6.23474 20.152 6.01272 20.0558C5.8379 19.9801 5.6838 19.826 5.37561 19.5178L4.48217 18.6243C4.17398 18.3162 4.01988 18.1621 3.94414 17.9873C3.84794 17.7652 3.8355 17.5159 3.90913 17.2854C3.96711 17.1039 4.10511 16.9352 4.3811 16.5979C4.90351 15.9594 5.16471 15.6402 5.20247 15.3594C5.25037 15.0034 5.10357 14.649 4.81792 14.4311C4.59273 14.2593 4.1823 14.2182 3.36143 14.1361C2.92776 14.0928 2.71093 14.0711 2.54161 13.9838C2.32656 13.8728 2.15902 13.6877 2.07005 13.4627C2 13.2855 2 13.0676 2 12.6318V11.3683C2 10.9324 2 10.7144 2.07008 10.5372C2.15905 10.3123 2.32654 10.1272 2.54152 10.0163C2.71088 9.92891 2.92777 9.90722 3.36155 9.86384H3.36155H3.36156C4.18264 9.78173 4.59319 9.74068 4.81842 9.56881C5.10395 9.35092 5.2507 8.99664 5.20287 8.64066C5.16514 8.35987 4.90385 8.04052 4.38128 7.40182C4.10516 7.06435 3.96711 6.89561 3.90914 6.71405C3.83557 6.48364 3.848 6.23438 3.94413 6.01243C4.01988 5.83754 4.17403 5.68339 4.48233 5.37509L5.37565 4.48177L5.37566 4.48177C5.68385 4.17357 5.83795 4.01947 6.01277 3.94373C6.23478 3.84753 6.48414 3.8351 6.71463 3.90872C6.89612 3.9667 7.06481 4.10472 7.4022 4.38076C8.04061 4.9031 8.35982 5.16427 8.64044 5.20207C8.99661 5.25003 9.35113 5.10319 9.56907 4.81742C9.74077 4.59227 9.78181 4.18195 9.86387 3.36131C9.90722 2.92776 9.9289 2.71098 10.0162 2.5417C10.1271 2.32658 10.3123 2.15898 10.5374 2.07001C10.7145 2 10.9324 2 11.3681 2H12.6318C13.0676 2 13.2855 2 13.4627 2.07005C13.6877 2.15902 13.8728 2.32656 13.9838 2.54161ZM12 16C14.2091 16 16 14.2091 16 12C16 9.79086 14.2091 8 12 8C9.79086 8 8 9.79086 8 12C8 14.2091 9.79086 16 12 16Z"
            fill="#7B2CBF"
          />
          <path
            d="M14.1361 3.36144L14.3849 3.33656L14.3849 3.33656L14.1361 3.36144ZM13.9838 2.54161L13.7616 2.65621L13.7616 2.65621L13.9838 2.54161ZM14.4311 4.81793L14.6298 4.6663L14.6298 4.6663L14.4311 4.81793ZM15.3595 5.20248L15.3261 4.95471L15.3261 4.95471L15.3595 5.20248ZM16.5979 4.38113L16.7562 4.57462L16.7562 4.57462L16.5979 4.38113ZM17.2853 3.90918L17.3614 4.14733L17.3614 4.14733L17.2853 3.90918ZM17.9872 3.94419L18.0866 3.7148L18.0866 3.7148L17.9872 3.94419ZM18.6243 4.4822L18.4475 4.65898L18.4475 4.65898L18.6243 4.4822ZM19.5178 5.37567L19.6945 5.19889L19.6945 5.19889L19.5178 5.37567ZM20.0558 6.01275L20.2852 5.91336L20.2852 5.91336L20.0558 6.01275ZM20.0908 6.71464L20.3289 6.79072L20.3289 6.79072L20.0908 6.71464ZM19.6188 7.4021L19.4253 7.24379L19.4253 7.24379L19.6188 7.4021ZM18.7975 8.64056L18.5497 8.60723L18.5497 8.60723L18.7975 8.64056ZM19.182 9.56893L19.0304 9.76769L19.0304 9.76769L19.182 9.56893ZM20.6385 9.86385L20.6634 9.61509L20.6634 9.61509L20.6385 9.86385ZM21.4584 10.0162L21.573 9.79406L21.573 9.79406L21.4584 10.0162ZM21.9299 10.5373L22.1624 10.4454L22.1624 10.4454L21.9299 10.5373ZM21.93 13.4626L21.6975 13.3707L21.6975 13.3707L21.93 13.4626ZM21.4583 13.9838L21.5729 14.206L21.5729 14.206L21.4583 13.9838ZM20.6386 14.1361L20.6138 13.8874L20.6056 13.8882L20.5975 13.8895L20.6386 14.1361ZM20.6386 14.1361L20.6635 14.3849L20.6716 14.3841L20.6797 14.3827L20.6386 14.1361ZM19.1825 14.4309L19.031 14.2321L19.031 14.2321L19.1825 14.4309ZM18.7979 15.3596L18.5501 15.393L18.5501 15.393L18.7979 15.3596ZM19.619 16.5976L19.4255 16.7559L19.4255 16.7559L19.619 16.5976ZM20.0908 17.2848L19.8527 17.3609L19.8527 17.3609L20.0908 17.2848ZM20.0558 17.9869L19.8264 17.8875L19.8264 17.8875L20.0558 17.9869ZM19.5179 18.6238L19.6947 18.8005L19.6947 18.8005L19.5179 18.6238ZM18.6243 19.5174L18.4476 19.3406L18.4476 19.3406L18.6243 19.5174ZM17.9873 20.0554L18.0867 20.2848L18.0867 20.2848L17.9873 20.0554ZM17.2854 20.0904L17.2093 20.3285L17.2093 20.3285L17.2854 20.0904ZM16.5979 19.6184L16.7562 19.4249L16.7541 19.4232L16.5979 19.6184ZM16.5979 19.6184L16.4396 19.8119L16.4417 19.8136L16.5979 19.6184ZM15.3595 18.7971L15.3928 18.5493L15.3928 18.5493L15.3595 18.7971ZM14.4311 19.1816L14.6299 19.3333L14.6299 19.3333L14.4311 19.1816ZM14.1362 20.6383L13.8874 20.6134L13.8874 20.6134L14.1362 20.6383ZM13.9837 21.4585L13.7615 21.3439L13.7615 21.3439L13.9837 21.4585ZM13.4628 21.9299L13.3709 21.6974L13.3709 21.6974L13.4628 21.9299ZM10.5373 21.9299L10.6292 21.6975L10.6292 21.6975L10.5373 21.9299ZM10.0162 21.4584L10.2384 21.3438L10.2384 21.3438L10.0162 21.4584ZM9.86385 20.6385L9.6151 20.6634L9.6151 20.6634L9.86385 20.6385ZM9.56892 19.182L9.37015 19.3336L9.37016 19.3336L9.56892 19.182ZM8.64057 18.7975L8.60725 18.5497L8.60725 18.5497L8.64057 18.7975ZM7.40208 19.6189L7.24363 19.4252L7.23598 19.432L7.40208 19.6189ZM7.40206 19.6189L7.5605 19.8125L7.56815 19.8057L7.40206 19.6189ZM6.71458 20.0908L6.79065 20.329L6.79065 20.329L6.71458 20.0908ZM6.01272 20.0558L5.91333 20.2852L5.91333 20.2852L6.01272 20.0558ZM5.37561 19.5178L5.55238 19.341L5.55238 19.341L5.37561 19.5178ZM4.48217 18.6243L4.30539 18.8011L4.30539 18.8011L4.48217 18.6243ZM3.94414 17.9873L4.17353 17.8879L4.17353 17.8879L3.94414 17.9873ZM3.90913 17.2854L4.14728 17.3614L4.14728 17.3614L3.90913 17.2854ZM4.3811 16.5979L4.57459 16.7562L4.57459 16.7562L4.3811 16.5979ZM5.20247 15.3594L5.45024 15.3928L5.45024 15.3928L5.20247 15.3594ZM4.81792 14.4311L4.96955 14.2323L4.96955 14.2323L4.81792 14.4311ZM3.36143 14.1361L3.33656 14.3849L3.33656 14.3849L3.36143 14.1361ZM2.54161 13.9838L2.65621 13.7616L2.65621 13.7616L2.54161 13.9838ZM2.07005 13.4627L1.83756 13.5546L1.83756 13.5546L2.07005 13.4627ZM2.07008 10.5372L1.83761 10.4453L1.83761 10.4453L2.07008 10.5372ZM2.54152 10.0163L2.4269 9.7941L2.4269 9.7941L2.54152 10.0163ZM3.36155 9.86384V9.61384H3.34908L3.33667 9.61508L3.36155 9.86384ZM3.36156 9.86384V10.1138H3.37403L3.38643 10.1126L3.36156 9.86384ZM4.81842 9.56881L4.66676 9.37007L4.66676 9.37007L4.81842 9.56881ZM5.20287 8.64066L5.45064 8.60737L5.45064 8.60737L5.20287 8.64066ZM4.38128 7.40182L4.57477 7.24351L4.57477 7.24351L4.38128 7.40182ZM3.90914 6.71405L4.14729 6.63801L4.14729 6.63801L3.90914 6.71405ZM3.94413 6.01243L3.71472 5.91307L3.71472 5.91307L3.94413 6.01243ZM4.48233 5.37509L4.65911 5.55187L4.65911 5.55187L4.48233 5.37509ZM5.37565 4.48177L5.19888 4.30499L5.19888 4.30499L5.37565 4.48177ZM6.01277 3.94373L5.91337 3.71433L5.91337 3.71433L6.01277 3.94373ZM6.71463 3.90872L6.7907 3.67058L6.7907 3.67058L6.71463 3.90872ZM7.4022 4.38076L7.56051 4.18727L7.56051 4.18727L7.4022 4.38076ZM8.64044 5.20207L8.67381 4.9543L8.67381 4.9543L8.64044 5.20207ZM9.56907 4.81742L9.37028 4.66582L9.37028 4.66582L9.56907 4.81742ZM9.86387 3.36131L10.1126 3.38618L10.1126 3.38618L9.86387 3.36131ZM10.0162 2.5417L9.79399 2.42713L9.79399 2.42713L10.0162 2.5417ZM10.5374 2.07001L10.6293 2.30251L10.6293 2.30251L10.5374 2.07001ZM13.4627 2.07005L13.5546 1.83756L13.5546 1.83756L13.4627 2.07005ZM14.3849 3.33656C14.3635 3.12303 14.3464 2.95071 14.323 2.81099C14.2991 2.66882 14.2663 2.54396 14.206 2.42701L13.7616 2.65621C13.7886 2.70858 13.8102 2.7768 13.8299 2.89379C13.8499 3.01323 13.8654 3.16617 13.8874 3.38631L14.3849 3.33656ZM14.6298 4.6663C14.5812 4.60258 14.5363 4.49257 14.496 4.26878C14.4562 4.04738 14.4264 3.75119 14.3849 3.33656L13.8874 3.38631C13.928 3.79255 13.9598 4.11201 14.0039 4.35734C14.0476 4.60028 14.1091 4.80808 14.2323 4.96956L14.6298 4.6663ZM15.3261 4.95471C15.0591 4.99064 14.7933 4.88054 14.6298 4.6663L14.2323 4.96955C14.5047 5.32662 14.9477 5.51012 15.3928 5.45025L15.3261 4.95471ZM16.4396 4.18764C16.1171 4.45151 15.8865 4.63987 15.7018 4.76825C15.5151 4.89801 15.4055 4.94403 15.3261 4.95471L15.3928 5.45025C15.5941 5.42317 15.7845 5.3197 15.9872 5.17883C16.1919 5.03658 16.4402 4.83314 16.7562 4.57462L16.4396 4.18764ZM17.2092 3.67104C17.0839 3.71108 16.9724 3.77614 16.855 3.8598C16.7396 3.942 16.6056 4.05175 16.4396 4.18764L16.7562 4.57462C16.9274 4.43453 17.0465 4.33729 17.1451 4.26701C17.2417 4.19818 17.3053 4.16526 17.3614 4.14733L17.2092 3.67104ZM18.0866 3.7148C17.8091 3.59454 17.4974 3.57899 17.2092 3.67104L17.3614 4.14733C17.5343 4.0921 17.7213 4.10143 17.8878 4.17358L18.0866 3.7148ZM18.8011 4.30542C18.6493 4.15368 18.527 4.03115 18.4203 3.93787C18.3118 3.84295 18.2074 3.76712 18.0866 3.7148L17.8878 4.17358C17.9419 4.19701 18.0019 4.2361 18.0911 4.3142C18.1823 4.39394 18.2911 4.50254 18.4475 4.65898L18.8011 4.30542ZM19.6945 5.19889L18.8011 4.30542L18.4475 4.65898L19.341 5.55244L19.6945 5.19889ZM20.2852 5.91336C20.2329 5.79261 20.157 5.68813 20.0621 5.57962C19.9688 5.47299 19.8463 5.35063 19.6945 5.19889L19.341 5.55244C19.4974 5.70888 19.606 5.81767 19.6858 5.90883C19.7639 5.99811 19.803 6.05808 19.8264 6.11215L20.2852 5.91336ZM20.3289 6.79072C20.421 6.5026 20.4054 6.19089 20.2852 5.91336L19.8264 6.11215C19.8985 6.27866 19.9079 6.4657 19.8526 6.63857L20.3289 6.79072ZM19.8123 7.56041C19.9482 7.39432 20.058 7.26038 20.1402 7.145C20.2238 7.02758 20.2889 6.91607 20.3289 6.79072L19.8526 6.63857C19.8347 6.69469 19.8018 6.75826 19.733 6.85487C19.6627 6.95351 19.5654 7.07256 19.4253 7.24379L19.8123 7.56041ZM19.0452 8.67388C19.0559 8.59446 19.1019 8.48489 19.2317 8.29817C19.3601 8.11344 19.5484 7.88292 19.8123 7.56041L19.4253 7.24379C19.1668 7.55978 18.9634 7.80813 18.8211 8.01282C18.6802 8.21553 18.5768 8.40594 18.5497 8.60723L19.0452 8.67388ZM19.3336 9.37016C19.1194 9.20673 19.0093 8.94093 19.0452 8.67388L18.5497 8.60723C18.4898 9.05231 18.6733 9.4953 19.0304 9.76769L19.3336 9.37016ZM20.6634 9.61509C20.2488 9.57363 19.9526 9.54382 19.7312 9.50398C19.5074 9.46371 19.3974 9.41877 19.3336 9.37016L19.0304 9.76769C19.1918 9.89088 19.3997 9.95236 19.6426 9.99608C19.8879 10.0402 20.2074 10.072 20.6137 10.1126L20.6634 9.61509ZM21.573 9.79406C21.456 9.73373 21.3312 9.70089 21.189 9.67701C21.0493 9.65355 20.877 9.63645 20.6634 9.61509L20.6137 10.1126C20.8338 10.1346 20.9868 10.1501 21.1062 10.1701C21.2232 10.1898 21.2914 10.2114 21.3438 10.2384L21.573 9.79406ZM22.1624 10.4454C22.0512 10.1641 21.8418 9.9327 21.573 9.79406L21.3438 10.2384C21.5051 10.3216 21.6307 10.4605 21.6975 10.6292L22.1624 10.4454ZM22.25 11.3682C22.25 11.1536 22.2501 10.9805 22.2407 10.8391C22.2311 10.6952 22.2108 10.5677 22.1624 10.4454L21.6975 10.6292C21.7191 10.684 21.7339 10.7541 21.7418 10.8724C21.7499 10.9933 21.75 11.147 21.75 11.3682H22.25ZM22.25 12.6319V11.3682H21.75V12.6319H22.25ZM22.1625 13.5545C22.2108 13.4322 22.2311 13.3047 22.2407 13.1609C22.2501 13.0195 22.25 12.8464 22.25 12.6319H21.75C21.75 12.8531 21.7499 13.0067 21.7418 13.1276C21.7339 13.2459 21.7191 13.3159 21.6975 13.3707L22.1625 13.5545ZM21.5729 14.206C21.8418 14.0673 22.0513 13.8359 22.1625 13.5545L21.6975 13.3707C21.6308 13.5395 21.5051 13.6784 21.3437 13.7616L21.5729 14.206ZM20.6635 14.3849C20.877 14.3635 21.0493 14.3464 21.189 14.323C21.3311 14.2991 21.456 14.2663 21.5729 14.206L21.3437 13.7616C21.2914 13.7886 21.2232 13.8103 21.1062 13.8299C20.9868 13.8499 20.8339 13.8654 20.6138 13.8874L20.6635 14.3849ZM20.6797 14.3827L20.6797 14.3827L20.5975 13.8895L20.5975 13.8895L20.6797 14.3827ZM19.3341 14.6297C19.3978 14.5811 19.5078 14.5362 19.7315 14.496C19.9529 14.4561 20.249 14.4263 20.6635 14.3849L20.6137 13.8874C20.2076 13.928 19.8883 13.9597 19.643 14.0039C19.4001 14.0476 19.1924 14.109 19.031 14.2321L19.3341 14.6297ZM19.0456 15.3262C19.0096 15.0591 19.1198 14.7932 19.3341 14.6297L19.031 14.2321C18.6737 14.5045 18.4901 14.9477 18.5501 15.393L19.0456 15.3262ZM19.8125 16.4393C19.5487 16.1169 19.3604 15.8865 19.2321 15.7018C19.1023 15.5151 19.0563 15.4056 19.0456 15.3262L18.5501 15.393C18.5772 15.5942 18.6807 15.7845 18.8215 15.9872C18.9637 16.1918 19.1671 16.44 19.4255 16.7559L19.8125 16.4393ZM20.3289 17.2087C20.2889 17.0834 20.2238 16.9719 20.1402 16.8545C20.058 16.7392 19.9483 16.6053 19.8125 16.4393L19.4255 16.7559C19.5655 16.9271 19.6627 17.0461 19.733 17.1447C19.8018 17.2413 19.8347 17.3048 19.8527 17.3609L20.3289 17.2087ZM20.2851 18.0864C20.4055 17.8087 20.421 17.4969 20.3289 17.2087L19.8527 17.3609C19.9079 17.5338 19.8986 17.7209 19.8264 17.8875L20.2851 18.0864ZM19.6947 18.8005C19.8464 18.6489 19.9689 18.5266 20.0621 18.42C20.157 18.3115 20.2328 18.2071 20.2851 18.0864L19.8264 17.8875C19.803 17.9415 19.7639 18.0015 19.6858 18.0907C19.6061 18.1819 19.4975 18.2906 19.3411 18.447L19.6947 18.8005ZM18.8011 19.6941L19.6947 18.8005L19.3411 18.447L18.4476 19.3406L18.8011 19.6941ZM18.0867 20.2848C18.2074 20.2324 18.3119 20.1566 18.4204 20.0617C18.527 19.9684 18.6494 19.8459 18.8011 19.6941L18.4476 19.3406C18.2911 19.497 18.1823 19.6056 18.0912 19.6854C18.0019 19.7635 17.9419 19.8025 17.8879 19.826L18.0867 20.2848ZM17.2093 20.3285C17.4974 20.4206 17.8091 20.405 18.0867 20.2848L17.8879 19.826C17.7213 19.8981 17.5343 19.9075 17.3614 19.8522L17.2093 20.3285ZM16.4396 19.8119C16.6057 19.9478 16.7396 20.0576 16.855 20.1398C16.9724 20.2234 17.0839 20.2885 17.2093 20.3285L17.3614 19.8522C17.3053 19.8343 17.2418 19.8014 17.1451 19.7325C17.0465 19.6623 16.9275 19.565 16.7562 19.4249L16.4396 19.8119ZM16.4417 19.8136L16.4417 19.8136L16.7541 19.4232L16.7541 19.4232L16.4417 19.8136ZM15.3262 19.0448C15.4056 19.0555 15.5151 19.1015 15.7019 19.2313C15.8866 19.3597 16.1171 19.548 16.4396 19.8119L16.7562 19.4249C16.4402 19.1664 16.1919 18.963 15.9872 18.8207C15.7845 18.6799 15.5941 18.5764 15.3928 18.5493L15.3262 19.0448ZM14.6299 19.3333C14.7933 19.119 15.0591 19.0089 15.3262 19.0448L15.3928 18.5493C14.9477 18.4894 14.5047 18.6729 14.2323 19.03L14.6299 19.3333ZM14.3849 20.6632C14.4264 20.2485 14.4562 19.9523 14.4961 19.7308C14.5363 19.507 14.5813 19.397 14.6299 19.3333L14.2323 19.03C14.1092 19.1915 14.0477 19.3993 14.004 19.6423C13.9598 19.8876 13.928 20.2071 13.8874 20.6134L14.3849 20.6632ZM14.2059 21.5731C14.2662 21.4561 14.2991 21.3312 14.323 21.189C14.3465 21.0492 14.3636 20.8768 14.3849 20.6632L13.8874 20.6134C13.8654 20.8337 13.85 20.9867 13.8299 21.1062C13.8102 21.2232 13.7886 21.2915 13.7615 21.3439L14.2059 21.5731ZM13.5547 22.1624C13.8359 22.0512 14.0673 21.8418 14.2059 21.5731L13.7615 21.3439C13.6784 21.5051 13.5396 21.6307 13.3709 21.6974L13.5547 22.1624ZM12.6316 22.25C12.8463 22.25 13.0195 22.2501 13.1609 22.2407C13.3048 22.2311 13.4323 22.2108 13.5548 22.1624L13.3709 21.6974C13.316 21.7191 13.246 21.7339 13.1276 21.7418C13.0067 21.7499 12.8529 21.75 12.6316 21.75V22.25ZM11.3682 22.25H12.6316V21.75H11.3682V22.25ZM10.4454 22.1624C10.5677 22.2108 10.6953 22.2311 10.8391 22.2407C10.9805 22.2501 11.1536 22.25 11.3682 22.25V21.75C11.147 21.75 10.9933 21.7499 10.8724 21.7418C10.7541 21.7339 10.684 21.7191 10.6292 21.6975L10.4454 22.1624ZM9.79406 21.573C9.9327 21.8418 10.1641 22.0512 10.4454 22.1624L10.6292 21.6975C10.4605 21.6307 10.3216 21.5051 10.2384 21.3438L9.79406 21.573ZM9.6151 20.6634C9.63645 20.877 9.65355 21.0493 9.67701 21.189C9.70089 21.3312 9.73373 21.456 9.79406 21.573L10.2384 21.3438C10.2114 21.2914 10.1898 21.2232 10.1701 21.1062C10.1501 20.9868 10.1346 20.8338 10.1126 20.6137L9.6151 20.6634ZM9.37016 19.3336C9.41877 19.3974 9.46371 19.5074 9.50398 19.7312C9.54383 19.9526 9.57363 20.2488 9.6151 20.6634L10.1126 20.6137C10.072 20.2074 10.0402 19.8879 9.99608 19.6426C9.95235 19.3997 9.89087 19.1918 9.76768 19.0304L9.37016 19.3336ZM8.67389 19.0452C8.94094 19.0093 9.20672 19.1194 9.37015 19.3336L9.76768 19.0304C9.4953 18.6733 9.05232 18.4898 8.60725 18.5497L8.67389 19.0452ZM7.56039 19.8123C7.88291 19.5485 8.11343 19.3601 8.29817 19.2317C8.4849 19.1019 8.59447 19.0559 8.6739 19.0452L8.60725 18.5497C8.40595 18.5768 8.21553 18.6802 8.01282 18.8211C7.80812 18.9634 7.55976 19.1668 7.24377 19.4254L7.56039 19.8123ZM7.56815 19.8057L7.56817 19.8057L7.23598 19.432L7.23597 19.432L7.56815 19.8057ZM6.79065 20.329C6.91601 20.2889 7.02752 20.2239 7.14494 20.1402C7.26033 20.058 7.39428 19.9483 7.56037 19.8124L7.24375 19.4254C7.07252 19.5655 6.95346 19.6627 6.85482 19.733C6.7582 19.8018 6.69464 19.8348 6.63851 19.8527L6.79065 20.329ZM5.91333 20.2852C6.19085 20.4055 6.50255 20.421 6.79065 20.329L6.63851 19.8527C6.46565 19.9079 6.27862 19.8986 6.11211 19.8264L5.91333 20.2852ZM5.19883 19.6946C5.35058 19.8463 5.47294 19.9689 5.57958 20.0621C5.68809 20.1571 5.79258 20.2329 5.91333 20.2852L6.11211 19.8264C6.05805 19.803 5.99807 19.7639 5.90878 19.6858C5.81762 19.6061 5.70883 19.4975 5.55238 19.341L5.19883 19.6946ZM4.30539 18.8011L5.19883 19.6946L5.55238 19.341L4.65894 18.4476L4.30539 18.8011ZM3.71475 18.0866C3.76707 18.2074 3.8429 18.3119 3.93782 18.4204C4.03111 18.527 4.15364 18.6494 4.30539 18.8011L4.65894 18.4476C4.5025 18.2911 4.3939 18.1823 4.31415 18.0912C4.23605 18.0019 4.19696 17.9419 4.17353 17.8879L3.71475 18.0866ZM3.67099 17.2093C3.57895 17.4974 3.5945 17.8091 3.71475 18.0866L4.17353 17.8879C4.10138 17.7213 4.09205 17.5343 4.14728 17.3614L3.67099 17.2093ZM4.18761 16.4396C4.05172 16.6057 3.94196 16.7396 3.85975 16.855C3.77609 16.9724 3.71103 17.0839 3.67099 17.2093L4.14728 17.3614C4.16521 17.3053 4.19813 17.2418 4.26697 17.1451C4.33725 17.0465 4.43449 16.9274 4.57459 16.7562L4.18761 16.4396ZM4.9547 15.3261C4.94402 15.4055 4.89801 15.5151 4.76824 15.7018C4.63986 15.8866 4.45149 16.1171 4.18761 16.4396L4.57459 16.7562C4.83313 16.4402 5.03656 16.1919 5.17882 15.9872C5.31969 15.7845 5.42316 15.5941 5.45024 15.3928L4.9547 15.3261ZM4.66629 14.6298C4.88053 14.7933 4.99063 15.0591 4.9547 15.3261L5.45024 15.3928C5.51011 14.9477 5.32662 14.5047 4.96955 14.2323L4.66629 14.6298ZM3.33656 14.3849C3.75119 14.4264 4.04738 14.4562 4.26878 14.496C4.49257 14.5363 4.60258 14.5812 4.66629 14.6298L4.96955 14.2323C4.80808 14.1091 4.60028 14.0476 4.35733 14.0039C4.112 13.9598 3.79254 13.928 3.38631 13.8874L3.33656 14.3849ZM2.42702 14.206C2.54397 14.2663 2.66882 14.2991 2.81099 14.323C2.95071 14.3464 3.12303 14.3635 3.33656 14.3849L3.38631 13.8874C3.16617 13.8654 3.01323 13.8499 2.89379 13.8299C2.7768 13.8102 2.70858 13.7886 2.65621 13.7616L2.42702 14.206ZM1.83756 13.5546C1.94877 13.8359 2.1582 14.0673 2.42702 14.206L2.65621 13.7616C2.49492 13.6784 2.36926 13.5395 2.30254 13.3708L1.83756 13.5546ZM1.75 12.6318C1.75 12.8464 1.74987 13.0195 1.75931 13.1609C1.76892 13.3047 1.78918 13.4322 1.83756 13.5546L2.30254 13.3708C2.28087 13.316 2.2661 13.2459 2.2582 13.1276C2.25013 13.0067 2.25 12.853 2.25 12.6318H1.75ZM1.75 11.3683V12.6318H2.25V11.3683H1.75ZM1.83761 10.4453C1.7892 10.5677 1.76893 10.6952 1.75932 10.8391C1.74987 10.9805 1.75 11.1537 1.75 11.3683H2.25C2.25 11.147 2.25013 10.9933 2.2582 10.8724C2.26611 10.754 2.28089 10.684 2.30256 10.6292L1.83761 10.4453ZM2.4269 9.7941C2.15818 9.93274 1.94881 10.1641 1.83761 10.4453L2.30256 10.6292C2.36929 10.4604 2.49491 10.3216 2.65614 10.2385L2.4269 9.7941ZM3.33667 9.61508C3.12309 9.63644 2.95073 9.65355 2.81097 9.67702C2.66876 9.7009 2.54388 9.73376 2.4269 9.7941L2.65614 10.2385C2.70852 10.2114 2.77676 10.1898 2.89378 10.1701C3.01325 10.1501 3.16623 10.1346 3.38643 10.1126L3.33667 9.61508ZM3.36155 9.61384H3.36155V10.1138H3.36155V9.61384ZM3.36156 9.61384H3.36155V10.1138H3.36156V9.61384ZM4.66676 9.37007C4.60303 9.4187 4.493 9.46365 4.26915 9.50394C4.04769 9.5438 3.75142 9.57361 3.33668 9.61508L3.38643 10.1126C3.79278 10.072 4.11232 10.0402 4.35772 9.99603C4.60072 9.9523 4.80858 9.89079 4.97008 9.76755L4.66676 9.37007ZM4.95509 8.67396C4.99097 8.94094 4.88091 9.20665 4.66676 9.37007L4.97008 9.76755C5.32699 9.49519 5.51043 9.05234 5.45064 8.60737L4.95509 8.67396ZM4.18779 7.56013C4.45175 7.88274 4.64018 8.11334 4.7686 8.29813C4.8984 8.48491 4.94442 8.59451 4.95509 8.67396L5.45064 8.60737C5.42359 8.40602 5.32009 8.21555 5.17918 8.01279C5.03688 7.80803 4.83338 7.5596 4.57477 7.24351L4.18779 7.56013ZM3.67098 6.79009C3.71102 6.9155 3.7761 7.02706 3.85979 7.14453C3.94203 7.25997 4.05183 7.39396 4.18779 7.56013L4.57477 7.24351C4.43461 7.0722 4.33732 6.9531 4.26702 6.85441C4.19815 6.75775 4.16522 6.69416 4.14729 6.63801L3.67098 6.79009ZM3.71472 5.91307C3.59456 6.1905 3.57902 6.50208 3.67098 6.79009L4.14729 6.63801C4.09211 6.4652 4.10144 6.27825 4.17354 6.11179L3.71472 5.91307ZM4.30556 5.19831C4.15375 5.35011 4.03117 5.47251 3.93786 5.57919C3.8429 5.68775 3.76705 5.79227 3.71472 5.91307L4.17354 6.11179C4.19696 6.0577 4.23606 5.99771 4.31419 5.90839C4.39397 5.81719 4.50261 5.70837 4.65911 5.55187L4.30556 5.19831ZM5.19888 4.30499L4.30556 5.19831L4.65911 5.55187L5.55243 4.65855L5.19888 4.30499ZM5.19888 4.30499L5.19888 4.30499L5.55243 4.65855L5.55243 4.65854L5.19888 4.30499ZM5.91337 3.71433C5.79263 3.76665 5.68814 3.84249 5.57962 3.93741C5.47299 4.0307 5.35063 4.15324 5.19888 4.30499L5.55243 4.65854C5.70888 4.5021 5.81767 4.39349 5.90883 4.31374C5.99812 4.23564 6.05809 4.19655 6.11216 4.17312L5.91337 3.71433ZM6.7907 3.67058C6.5026 3.57854 6.19089 3.59409 5.91337 3.71433L6.11216 4.17312C6.27867 4.10097 6.46569 4.09165 6.63855 4.14687L6.7907 3.67058ZM7.56051 4.18727C7.39438 4.05135 7.26042 3.94158 7.14502 3.85936C7.02758 3.77569 6.91606 3.71062 6.7907 3.67058L6.63855 4.14687C6.69468 4.1648 6.75825 4.19773 6.85489 4.26657C6.95355 4.33687 7.07262 4.43413 7.24389 4.57425L7.56051 4.18727ZM8.67381 4.9543C8.59442 4.94361 8.48487 4.8976 8.29817 4.76783C8.11347 4.63946 7.88298 4.45111 7.56051 4.18727L7.24389 4.57425C7.55983 4.83275 7.80815 5.03616 8.01281 5.17841C8.21548 5.31926 8.40585 5.42273 8.60708 5.44983L8.67381 4.9543ZM9.37028 4.66582C9.20683 4.88014 8.94094 4.99028 8.67381 4.9543L8.60708 5.44983C9.05229 5.50979 9.49544 5.32623 9.76786 4.96902L9.37028 4.66582ZM9.61511 3.33643C9.57366 3.75094 9.54386 4.04705 9.50404 4.2684C9.46378 4.49213 9.41886 4.60211 9.37028 4.66582L9.76786 4.96902C9.89098 4.80757 9.95243 4.59982 9.99613 4.35694C10.0403 4.11168 10.072 3.79231 10.1126 3.38618L9.61511 3.33643ZM9.79399 2.42713C9.7337 2.54405 9.70087 2.66887 9.677 2.81101C9.65355 2.95069 9.63646 3.12296 9.61511 3.33643L10.1126 3.38618C10.1346 3.1661 10.1501 3.01321 10.1701 2.8938C10.1897 2.77684 10.2114 2.70863 10.2384 2.65628L9.79399 2.42713ZM10.4455 1.83751C10.1641 1.94873 9.93265 2.15822 9.79399 2.42713L10.2384 2.65628C10.3216 2.49493 10.4605 2.36924 10.6293 2.30251L10.4455 1.83751ZM11.3681 1.75C11.1536 1.75 10.9804 1.74987 10.8391 1.75931C10.6953 1.76891 10.5679 1.78915 10.4455 1.83751L10.6293 2.30251C10.6841 2.28085 10.7541 2.2661 10.8724 2.2582C10.9932 2.25013 11.1469 2.25 11.3681 2.25V1.75ZM12.6318 1.75H11.3681V2.25H12.6318V1.75ZM13.5546 1.83756C13.4322 1.78918 13.3047 1.76892 13.1609 1.75931C13.0195 1.74987 12.8464 1.75 12.6318 1.75V2.25C12.853 2.25 13.0067 2.25013 13.1276 2.2582C13.2459 2.26611 13.316 2.28087 13.3708 2.30254L13.5546 1.83756ZM14.206 2.42701C14.0673 2.1582 13.8359 1.94877 13.5546 1.83756L13.3708 2.30254C13.5395 2.36926 13.6784 2.49492 13.7616 2.65621L14.206 2.42701ZM15.75 12C15.75 14.0711 14.0711 15.75 12 15.75V16.25C14.3472 16.25 16.25 14.3472 16.25 12H15.75ZM12 8.25C14.0711 8.25 15.75 9.92893 15.75 12H16.25C16.25 9.65279 14.3472 7.75 12 7.75V8.25ZM8.25 12C8.25 9.92893 9.92893 8.25 12 8.25V7.75C9.65279 7.75 7.75 9.65279 7.75 12H8.25ZM12 15.75C9.92893 15.75 8.25 14.0711 8.25 12H7.75C7.75 14.3472 9.65279 16.25 12 16.25V15.75Z"
            fill="#58099B"
          />
        </svg>