<svg width="34" height="34" viewBox="0 0 34 34" fill="none" xmlns="http://www.w3.org/2000/svg">
<path d="M16.7445 26.0527C17.3678 26.1377 18.0053 26.1801 18.657 26.1801L24.5928 29.7076C25.5986 30.3168 26.8595 29.4951 26.7178 28.3193L26.1653 23.8427C29.197 21.7177 31.1661 18.3318 31.1661 14.5068C31.1661 8.06098 25.5703 2.8335 18.657 2.8335C11.7436 2.8335 6.14779 8.06098 6.14779 14.5068C6.14779 14.8751 6.16197 15.2293 6.20447 15.5835M16.7445 26.0527C17.7928 24.8202 18.4161 23.2618 18.4161 21.576C18.4161 17.5526 14.9311 14.2944 10.6245 14.2944C8.98112 14.2944 7.4653 14.7618 6.20447 15.5835M16.7445 26.0527C15.342 27.7527 13.118 28.8432 10.6247 28.8432L6.92717 31.039C6.30384 31.4215 5.5105 30.8974 5.5955 30.1749L5.94967 27.3841C4.05134 26.0666 2.83301 23.9557 2.83301 21.5757C2.83301 19.0824 4.16447 16.8868 6.20447 15.5835" stroke="#1F2023" stroke-width="1.5" stroke-linecap="round" stroke-linejoin="round"/>
</svg>
