<svg width="22" height="16" viewBox="0 0 22 16" fill="none" xmlns="http://www.w3.org/2000/svg">
<path d="M21.0876 1.18478L7.08761 15.1848C7.04698 15.2255 6.99872 15.2577 6.94561 15.2797C6.8925 15.3018 6.83557 15.3131 6.77808 15.3131C6.72058 15.3131 6.66365 15.3018 6.61054 15.2797C6.55743 15.2577 6.50918 15.2255 6.46854 15.1848L0.343544 9.05978C0.261451 8.97768 0.215332 8.86634 0.215332 8.75024C0.215332 8.63415 0.261451 8.52281 0.343544 8.44071C0.425637 8.35862 0.536979 8.3125 0.653075 8.3125C0.769172 8.3125 0.880514 8.35862 0.962607 8.44071L6.77808 14.2562L20.4685 0.565712C20.5506 0.483619 20.662 0.4375 20.7781 0.4375C20.8942 0.4375 21.0055 0.483619 21.0876 0.565712C21.1697 0.647805 21.2158 0.759147 21.2158 0.875244C21.2158 0.99134 21.1697 1.10268 21.0876 1.18478Z" fill="black"/>
</svg>
