<svg width="12" height="12" viewBox="0 0 12 12" fill="none" xmlns="http://www.w3.org/2000/svg">
<path d="M9.75 6C9.75 5.90054 9.78951 5.80516 9.85983 5.73484C9.93016 5.66451 10.0255 5.625 10.125 5.625C10.2245 5.625 10.3198 5.66451 10.3902 5.73484C10.4605 5.80516 10.5 5.90054 10.5 6V10.125C10.5 10.2245 10.4605 10.3198 10.3902 10.3902C10.3198 10.4605 10.2245 10.5 10.125 10.5H1.875C1.77554 10.5 1.68016 10.4605 1.60984 10.3902C1.53951 10.3198 1.5 10.2245 1.5 10.125V1.875C1.5 1.77554 1.53951 1.68016 1.60984 1.60984C1.68016 1.53951 1.77554 1.5 1.875 1.5H6C6.09946 1.5 6.19484 1.53951 6.26517 1.60984C6.33549 1.68016 6.375 1.77554 6.375 1.875C6.375 1.97446 6.33549 2.06984 6.26517 2.14016C6.19484 2.21049 6.09946 2.25 6 2.25H2.25V9.75H9.75V6Z" fill="black"/>
<path d="M5.50724 6.49494L6.12599 6.40644L9.92699 2.60619C9.9628 2.5716 9.99137 2.53022 10.011 2.48447C10.0307 2.43872 10.041 2.38951 10.0415 2.33972C10.0419 2.28993 10.0324 2.24055 10.0135 2.19446C9.99469 2.14837 9.96685 2.1065 9.93164 2.0713C9.89643 2.03609 9.85456 2.00824 9.80847 1.98939C9.76238 1.97053 9.71301 1.96104 9.66321 1.96147C9.61342 1.96191 9.56421 1.97225 9.51846 1.99191C9.47271 2.01156 9.43133 2.04013 9.39674 2.07594L5.59499 5.87619L5.50649 6.49494H5.50724ZM10.4572 1.54494C10.5618 1.64942 10.6447 1.77347 10.7013 1.91001C10.7579 2.04655 10.787 2.1929 10.787 2.34069C10.787 2.48849 10.7579 2.63484 10.7013 2.77138C10.6447 2.90792 10.5618 3.03197 10.4572 3.13644L6.56849 7.02519C6.51114 7.08275 6.43666 7.12012 6.35624 7.13169L5.11874 7.30869C5.06107 7.31698 5.00226 7.31171 4.94698 7.2933C4.8917 7.2749 4.84146 7.24387 4.80026 7.20267C4.75907 7.16147 4.72803 7.11124 4.70963 7.05596C4.69123 7.00067 4.68596 6.94187 4.69424 6.88419L4.87124 5.64669C4.8826 5.56637 4.91971 5.49189 4.97699 5.43444L8.86649 1.54569C9.07746 1.33479 9.36355 1.21631 9.66186 1.21631C9.96017 1.21631 10.2463 1.33479 10.4572 1.54569V1.54494Z" fill="black"/>
</svg>
