<svg width="32" height="32" viewBox="0 0 32 32" fill="none" xmlns="http://www.w3.org/2000/svg">
<circle cx="16" cy="16" r="16" fill="white"/>
<path d="M16.3927 22.7529C16.7518 22.3061 16.8789 21.8593 16.5947 21.3679C16.3329 20.9137 15.914 20.7424 15.3604 20.802C15.4726 20.3999 15.4502 20.0127 15.1809 19.6851C14.9116 19.35 14.545 19.2234 14.1561 19.2532C14.1561 18.9405 14.2009 18.6203 14.1411 18.3225C14.0813 18.0023 13.8568 17.7715 13.5576 17.6225C13.049 17.3619 12.6076 17.496 12.0017 18.114C11.897 17.5779 11.6202 17.1832 11.0816 17.0715C10.5355 16.9524 10.1391 17.2205 9.86229 17.6002C9.20401 16.9747 8.55321 16.3716 7.88745 15.7536C8.3288 15.0834 8.7477 14.4505 9.16661 13.825C9.73512 12.9613 10.3111 12.105 10.8796 11.2413C10.9769 11.0923 11.0592 11.0328 11.2537 11.0849C12.6151 11.4125 13.9765 11.7178 15.3978 12.0529C14.9116 12.3135 14.4702 12.5294 14.0513 12.79C13.8269 12.9315 13.61 13.1251 13.4529 13.3411C13.1462 13.7804 12.8844 14.242 12.6076 14.7037C12.4056 15.0313 12.3982 15.3738 12.6226 15.694C12.8545 16.0216 13.1836 16.1184 13.5801 16.044C14.1935 15.9248 14.6872 15.5749 15.1435 15.1877C15.8766 14.5548 16.6919 14.4133 17.6345 14.5399C18.2703 14.6218 18.7565 14.8824 19.2278 15.2696C20.2227 16.0812 21.255 16.8556 22.2649 17.6449C22.6314 17.9353 22.7212 18.3895 22.4893 18.7171C22.2275 19.082 21.7786 19.149 21.3597 18.8735C20.507 18.3076 19.6542 17.7268 18.8014 17.1534C18.7416 17.1088 18.6817 17.0492 18.6144 17.0417C18.5246 17.0343 18.4349 17.0715 18.3451 17.0864C18.3601 17.1683 18.3601 17.2577 18.3975 17.3321C18.4199 17.3843 18.4947 17.4066 18.5546 17.4438C19.3176 17.9576 20.0731 18.4639 20.8361 18.9777C21.2625 19.2607 21.3747 19.7223 21.1129 20.0946C20.7688 20.5861 20.2975 20.6978 19.8487 20.3925C19.1754 19.9308 18.5172 19.4617 17.8439 19.0001C17.7317 18.9182 17.5971 18.7692 17.4624 18.9554C17.3278 19.149 17.5148 19.2309 17.642 19.3202C18.2254 19.7298 18.8089 20.1319 19.3924 20.5414C19.6841 20.7424 19.7739 21.0328 19.7066 21.3679C19.6467 21.6583 19.3849 21.9115 19.0632 21.9264C18.8687 21.9338 18.6443 21.8668 18.4723 21.7625C17.9861 21.4573 17.5297 21.1073 17.051 20.7871C16.9687 20.735 16.8266 20.7722 16.7144 20.7648C16.7518 20.869 16.7667 21.0179 16.8415 21.0775C17.2006 21.353 17.5821 21.6062 17.9487 21.8668C18.375 22.1721 18.4798 22.6188 18.2105 22.9911C17.8738 23.4528 17.4325 23.5422 16.9837 23.2294C16.7967 23.0582 16.6097 22.9092 16.3927 22.7529Z" fill="#070101"/>
<path d="M24.1051 15.7759C23.5814 16.3195 23.0728 16.8407 22.5566 17.3768C21.831 16.8109 21.1204 16.2599 20.4022 15.7015C19.8562 15.277 19.3101 14.8452 18.7565 14.4282C18.6443 14.3463 18.4947 14.2867 18.3601 14.2569C18.0459 14.2122 17.7242 14.2197 17.425 14.1378C16.7144 13.9442 16.101 14.2495 15.4651 14.458C15.3903 14.4803 15.3305 14.5473 15.2632 14.5994C14.9041 14.8675 14.5525 15.1653 14.171 15.4036C13.9616 15.5376 13.6998 15.6344 13.4529 15.6642C13.2883 15.6866 13.049 15.5972 12.9517 15.4706C12.8619 15.3589 12.847 15.0909 12.9143 14.9643C13.2135 14.4133 13.5352 13.8697 13.9092 13.3708C14.0887 13.1251 14.388 12.939 14.6722 12.79C15.1884 12.5294 15.7195 12.2763 16.273 12.0976C16.9238 11.8891 17.5971 11.7476 18.2628 11.5987C19.1006 11.4125 19.9459 11.2413 20.7912 11.0775C20.8735 11.0626 21.0231 11.0923 21.0605 11.1594C22.0704 12.6932 23.0802 14.2271 24.1051 15.7759Z" fill="#070101"/>
<path d="M21.0456 10.5637C21.8385 10.0424 22.6165 9.52867 23.4169 9C24.6137 10.8019 25.8031 12.589 27 14.3909C26.2071 14.9122 25.4291 15.426 24.6287 15.9546C23.4318 14.1527 22.2499 12.3656 21.0456 10.5637Z" fill="#070101"/>
<path d="M7.3713 15.9546C6.57089 15.426 5.80041 14.9196 5 14.3984C6.19687 12.5964 7.37878 10.8094 8.58313 9C9.37606 9.52122 10.1465 10.0276 10.9619 10.5637C9.76504 12.3582 8.57565 14.1452 7.3713 15.9546Z" fill="#070101"/>
<path d="M13.9316 18.7097C13.8494 18.8884 13.797 19.0894 13.6773 19.2383C13.1986 19.834 12.7049 20.4223 12.2186 21.0105C11.9119 21.3679 11.4556 21.4275 11.104 21.1669C10.7375 20.8839 10.6328 20.3478 10.917 19.9829C11.4182 19.35 11.9418 18.7246 12.473 18.1065C12.6974 17.8385 13.049 17.7715 13.3557 17.8832C13.6623 18.0023 13.8793 18.3299 13.9316 18.7097Z" fill="#070101"/>
<path d="M12.3832 21.6583C12.458 21.4945 12.5103 21.3158 12.6151 21.1743C12.9592 20.735 13.3108 20.318 13.6698 19.8936C13.969 19.5436 14.4403 19.4841 14.7844 19.7521C15.1285 20.0127 15.1958 20.4967 14.9116 20.8616C14.5525 21.3232 14.1785 21.77 13.797 22.2093C13.5651 22.4774 13.2285 22.5369 12.9143 22.4104C12.6151 22.2912 12.4281 22.0083 12.3832 21.6583Z" fill="#070101"/>
<path d="M11.6501 18.1661C11.6501 18.5682 10.8048 19.5957 10.4084 19.6925C10.0717 19.767 9.75007 19.6479 9.55558 19.3649C9.37605 19.1043 9.36857 18.7469 9.57054 18.4863C9.79495 18.1884 10.0418 17.8906 10.2961 17.6151C10.5206 17.3694 10.8796 17.3098 11.1938 17.4438C11.4631 17.5481 11.6501 17.8459 11.6501 18.1661Z" fill="#070101"/>
<path d="M15.0163 23.5049C14.6797 23.4454 14.4553 23.3188 14.3057 23.0507C14.1486 22.7678 14.1561 22.4774 14.3431 22.2168C14.56 21.9189 14.7994 21.636 15.0462 21.3679C15.338 21.0552 15.7943 21.0328 16.1234 21.3009C16.4376 21.5466 16.5124 22.0232 16.2581 22.3657C16.0411 22.6635 15.8092 22.9539 15.5474 23.2145C15.4128 23.3486 15.1959 23.4081 15.0163 23.5049Z" fill="#070101"/>
</svg>
