<svg width="34" height="34" viewBox="0 0 34 34" fill="none" xmlns="http://www.w3.org/2000/svg">
<path fill-rule="evenodd" clip-rule="evenodd" d="M16.9997 3.0415C12.4203 3.0415 8.70802 6.75382 8.70802 11.3332V14.1665C8.70802 15.0419 8.70738 15.4438 8.66626 15.8318C8.55191 16.9109 8.20478 17.9523 7.64882 18.8842C7.4489 19.2193 7.20828 19.5412 6.68302 20.2415L6.37945 20.6463L6.36646 20.6636L6.36643 20.6636C6.11137 21.0037 5.90199 21.2829 5.75573 21.5138C5.6108 21.7426 5.48115 21.993 5.46171 22.2697C5.42338 22.8152 5.68495 23.3383 6.14435 23.635C6.37737 23.7854 6.65545 23.8319 6.92547 23.8533C7.19799 23.8748 7.54695 23.8748 7.97205 23.8748H7.97211H7.99374H26.0056H26.0273H26.0273C26.4524 23.8748 26.8014 23.8748 27.0739 23.8533C27.3439 23.8319 27.622 23.7854 27.855 23.635C28.3144 23.3383 28.576 22.8152 28.5377 22.2697C28.5182 21.993 28.3886 21.7426 28.2436 21.5138C28.0974 21.2829 27.888 21.0037 27.6329 20.6636L27.6328 20.6635L27.6199 20.6463L27.3164 20.2415C26.7911 19.5412 26.5505 19.2193 26.3506 18.8842C25.7946 17.9523 25.4475 16.9109 25.3331 15.8318C25.292 15.4438 25.2914 15.0419 25.2914 14.1665V13.0602C25.2914 12.9028 25.2914 12.8241 25.2451 12.7798C25.1988 12.7355 25.1151 12.7392 24.9476 12.7465C24.8958 12.7487 24.8437 12.7498 24.7913 12.7498C24.739 12.7498 24.6869 12.7487 24.6351 12.7465C24.4676 12.7392 24.3839 12.7356 24.3376 12.7798C24.2914 12.8241 24.2914 12.9028 24.2914 13.0602V14.1665V14.1999V14.2C24.2913 15.0335 24.2913 15.4905 24.3387 15.9372C24.4683 17.1602 24.8617 18.3404 25.4918 19.3965C25.7219 19.7823 25.9962 20.1479 26.4963 20.8147L26.5164 20.8415L26.8199 21.2463C27.0912 21.6079 27.2763 21.8554 27.3988 22.0489C27.5252 22.2483 27.5389 22.3224 27.5401 22.3398C27.5529 22.5216 27.4657 22.696 27.3126 22.7949C27.2979 22.8043 27.2304 22.8378 26.995 22.8564C26.7668 22.8745 26.4577 22.8748 26.0056 22.8748H7.99374C7.54167 22.8748 7.23261 22.8745 7.00432 22.8564C6.76893 22.8378 6.70143 22.8043 6.6868 22.7949C6.53366 22.696 6.44647 22.5216 6.45925 22.3398C6.46047 22.3224 6.47421 22.2483 6.60055 22.0489C6.72307 21.8554 6.90821 21.6079 7.17945 21.2463L7.48302 20.8415L7.50307 20.8148L7.5031 20.8147C8.00321 20.1479 8.27743 19.7823 8.50759 19.3965C9.13768 18.3404 9.5311 17.1602 9.66069 15.9372C9.70803 15.4905 9.70803 15.0335 9.70802 14.1999V14.1665V11.3332C9.70802 7.3061 12.9726 4.0415 16.9997 4.0415C19.0773 4.0415 20.952 4.91043 22.2801 6.3047C22.3769 6.40633 22.4253 6.45715 22.4815 6.46227C22.5376 6.46739 22.5963 6.4248 22.7137 6.33962C22.7997 6.27722 22.8886 6.21859 22.9802 6.16398C23.1447 6.06593 23.2269 6.01691 23.237 5.94595C23.2471 5.87499 23.1875 5.81103 23.0684 5.68311C21.5546 4.05791 19.3959 3.0415 16.9997 3.0415Z" fill="#222222"/>
<ellipse cx="24.792" cy="9.2085" rx="2.125" ry="2.125" fill="#222222"/>
<path d="M13.5793 26.4165C13.7811 27.1696 14.2258 27.835 14.8443 28.3096C15.4628 28.7842 16.2207 29.0415 17.0003 29.0415C17.78 29.0415 18.5378 28.7842 19.1564 28.3096C19.7749 27.835 20.2195 27.1696 20.4213 26.4165" stroke="#222222" stroke-linecap="round"/>
</svg>
