<svg width="24" height="23" viewBox="0 0 24 23" fill="none" xmlns="http://www.w3.org/2000/svg">
<path d="M2.82068 22.6667C2.20646 22.6667 1.69402 22.4613 1.28335 22.0507C0.872682 21.64 0.666905 21.1271 0.666016 20.512V3.488C0.666016 2.87378 0.871793 2.36133 1.28335 1.95067C1.6949 1.54 2.2069 1.33422 2.81935 1.33333H15.23V2.66667H2.82068C2.61535 2.66667 2.4269 2.752 2.25535 2.92267C2.08379 3.09333 1.99846 3.28178 1.99935 3.488V20.5133C1.99935 20.7178 2.08468 20.9058 2.25535 21.0773C2.42602 21.2489 2.61402 21.3342 2.81935 21.3333H19.846C20.0505 21.3333 20.2385 21.248 20.41 21.0773C20.5816 20.9067 20.6669 20.7187 20.666 20.5133V8.10267H21.9993V20.5133C21.9993 21.1267 21.794 21.6391 21.3833 22.0507C20.9727 22.4622 20.4598 22.6676 19.8447 22.6667H2.82068ZM6.66602 18V16.6667H15.9993V18H6.66602ZM6.66602 14V12.6667H15.9993V14H6.66602ZM6.66602 10V8.66667H15.9993V10H6.66602ZM19.3327 6.66667V4H16.666V2.66667H19.3327V0H20.666V2.66667H23.3327V4H20.666V6.66667H19.3327Z" fill="url(#paint0_linear_3441_796)"/>
<defs>
<linearGradient id="paint0_linear_3441_796" x1="11.9993" y1="0" x2="11.9993" y2="22.6667" gradientUnits="userSpaceOnUse">
<stop stop-color="#7B2CBF"/>
<stop offset="1" stop-color="#D600E8"/>
</linearGradient>
</defs>
</svg>
