<svg width="56" height="49" viewBox="0 0 56 49" fill="none" xmlns="http://www.w3.org/2000/svg">
<path d="M6.94343 24.5217C7.78916 24.5424 8.37111 23.8214 8.91124 23.1703C9.58101 22.3629 10.4934 21.4266 10.5023 20.3776C10.5055 19.9979 10.5541 19.6206 10.6594 19.2453C10.8712 18.5005 11.2623 17.7987 11.5556 17.0682C11.6208 16.8963 11.7186 16.7101 11.686 16.5382C11.5231 15.1203 12.2238 13.8598 13.6252 13.1867C13.9185 13.0434 14 12.9002 14.0489 12.6424C14.5052 10.3078 16.9333 8.84681 19.5569 9.2765C19.7361 9.30514 19.9969 9.24785 20.1109 9.13327C21.9625 7.43903 24.1199 6.82907 26.3452 7.29663C27.619 7.56425 28.9133 7.60898 30.1779 7.30079C30.2982 7.27146 30.4188 7.24688 30.5403 7.22831C31.9091 6.99915 33.0498 7.48613 33.9787 8.37415C34.1416 8.5317 34.4024 8.64629 34.6305 8.66061C38.4111 8.88978 41.0999 10.8091 42.1266 14.0031C42.1755 14.1606 42.371 14.3468 42.534 14.4041C44.5546 15.0486 45.565 16.6958 45.0598 18.5148C45.0272 18.658 44.9783 18.8442 45.0598 18.9588C45.39 19.4897 45.5968 20.038 45.694 20.6073C45.8575 21.5648 46.6669 22.3645 47.3154 23.0876C47.3502 23.1264 47.3831 23.1669 47.4142 23.2089C47.879 23.8383 48.4328 24.5304 49.2153 24.5304C50.633 24.5304 51.2359 24.9601 51.513 26.1633C52.8492 32.1073 54.1692 38.0656 55.4891 44.0097C55.8802 45.7571 54.6092 47.1178 52.5722 47.1178C46.3635 47.1178 40.1548 47.1178 33.9461 47.1178C33.6039 47.1178 33.3757 47.2323 33.0987 47.4185C32.5772 47.7766 32.0069 48.1204 31.3876 48.2922C29.1551 48.9368 26.89 48.9224 24.6738 48.2349C24.0545 48.0487 23.5331 47.5904 22.9464 47.2896C22.7509 47.1894 22.4901 47.1178 22.262 47.1178C16.2488 47.1034 10.2357 47.1178 4.22254 47.1178C4.04329 47.1178 3.86403 47.1178 3.68478 47.1178C1.6478 47.1034 0.360434 45.7714 0.751533 44.024C2.08779 37.994 3.42404 31.9641 4.7603 25.9341C4.95585 25.0461 5.65657 24.5591 6.7158 24.5161C6.79241 24.518 6.8682 24.5199 6.94343 24.5217ZM29.0899 41.2167C29.0899 41.518 29.3786 41.7353 29.6694 41.6566C32.8171 40.804 35.9691 40.3725 39.1933 40.386C39.8775 40.386 40.5584 40.4056 41.2364 40.4447C44.9526 40.6588 48.4009 37.5038 47.7095 33.8462C47.1564 30.9202 46.6037 27.9984 46.0475 25.058C45.9418 24.499 45.3072 23.8584 44.8643 24.2153C44.6035 24.4159 44.4406 24.7596 44.3265 25.0747C43.8702 26.4211 43.0554 27.5669 41.8495 28.4836C41.5974 28.683 41.5039 29.0208 41.6435 29.3104C41.8469 29.7326 42.0413 30.1319 42.1592 30.5461C42.2732 30.9758 42.3058 31.4771 42.1755 31.9068C41.6214 33.8117 38.9652 34.4133 37.4008 32.9953C36.6838 32.3508 35.869 31.9068 34.9075 31.606C34.2231 31.3911 33.5387 31.162 32.952 30.8182C32.3654 30.4888 31.6647 30.0878 31.4365 29.5721C31.0128 28.6268 30.2632 28.3833 29.2692 28.3404C29.0573 28.326 28.8129 28.369 28.6499 28.4693C25.7656 30.4029 21.985 29.8443 20.0132 27.1659C19.8665 26.9654 19.7361 26.9081 19.4591 26.951C18.0903 27.2088 16.754 27.0943 15.4666 26.6646C14.0163 26.1919 12.8267 25.4185 11.9467 24.287C11.5719 23.8 11.0994 24.0864 10.6757 24.1294C10.5453 24.1437 10.3661 24.3586 10.3335 24.5018C10.0564 25.8911 9.812 27.2948 9.53497 28.6841C8.88314 32.2219 8.19871 35.7596 7.53059 39.3117C7.32465 40.4581 8.39412 41.4373 9.53297 41.1933C15.2446 39.9697 20.909 40.1187 26.6058 41.6404C26.9042 41.7201 27.1996 41.4969 27.1996 41.188C27.1996 38.1659 27.1996 35.1438 27.1996 32.1216C27.1996 31.9927 27.1996 31.8638 27.1996 31.7349C27.2322 31.162 27.5907 30.8182 28.1285 30.8182C28.6988 30.8182 29.0736 31.162 29.0899 31.7635C29.0899 31.8924 29.0899 32.0214 29.0899 32.1503C29.0899 35.1724 29.0899 38.1945 29.0899 41.2167ZM17.042 11.3041C16.1463 11.8727 16.8475 12.8381 17.7386 13.414C17.9089 13.5241 18.0699 13.6486 18.2206 13.7882C18.7747 14.3039 18.8562 14.7908 18.4325 15.1632C17.985 15.5565 17.5219 15.4953 16.9356 14.9795C16.9125 14.9592 16.8928 14.9344 16.8697 14.914C16.8445 14.8918 16.8224 14.8653 16.7962 14.8442C15.783 14.026 14.1728 14.3617 13.6741 15.507C13.3482 16.2804 13.6089 16.9536 14.5052 17.5838C14.9452 17.8989 15.043 18.4002 14.7333 18.7583C14.4237 19.102 13.886 19.1737 13.4297 18.9158C13.1169 18.7326 12.7136 18.8107 12.5909 19.1517C12.0257 20.7229 12.6309 22.7491 14.1141 24.0148C15.3796 25.101 17.6382 25.6969 18.9013 25.3439C19.1051 25.2869 19.21 25.0772 19.173 24.8689C19.1369 24.6657 18.9833 24.5013 18.7825 24.4539C18.7085 24.4365 18.6357 24.419 18.5628 24.4015C17.2755 24.0578 16.314 22.9692 16.2977 21.8091C16.2814 21.2505 16.5911 20.9067 17.1288 20.8638C17.7155 20.8208 18.074 21.1073 18.1555 21.6802C18.194 21.9512 18.273 22.1688 18.4046 22.3408C18.8307 22.8983 19.6173 22.4136 19.9969 21.8234C20.3554 21.3221 21.105 21.2791 21.5124 21.7231C21.8057 22.0526 21.7731 22.3963 21.545 22.7401C21.0398 23.5278 20.9094 24.3586 21.1539 25.2323C21.5124 26.55 22.4575 27.4237 23.9405 27.7961C25.4234 28.1685 26.7433 27.8247 27.8189 26.8794C28.2263 26.5357 28.6174 26.3638 29.1714 26.55C30.6217 27.037 32.1047 27.0226 33.6039 26.6932C33.7831 26.6502 33.9624 26.6073 34.1253 26.6359C34.549 26.7075 34.8424 26.9367 34.8912 27.3377C34.9401 27.7818 34.7283 28.0825 34.2394 28.2114C34.1563 28.2331 34.0733 28.2537 33.9892 28.2738C33.5097 28.3883 33.319 29.0795 33.7668 29.2857C34.3209 29.5721 34.9401 29.7727 35.5268 30.0161C36.2601 30.3169 37.0097 30.6034 37.6941 30.9615C38.0852 31.162 38.3785 31.5201 38.7208 31.7922C39.0793 32.0786 39.4867 32.1503 39.9266 31.9497C40.3503 31.7635 40.5296 31.4198 40.4155 31.0331C40.2985 30.6731 40.1311 30.3279 39.9615 29.9816C39.8464 29.7466 39.5774 29.623 39.3237 29.6867C38.9326 29.7727 38.5578 29.8872 38.1667 29.9588C37.6126 30.0591 37.1401 29.8013 37.0097 29.343C36.8956 28.9133 37.1726 28.4979 37.7267 28.3833C38.8022 28.1685 39.7963 27.8247 40.6437 27.1802C40.8307 27.0432 40.9978 26.8888 41.1662 26.7317C41.2937 26.6127 41.2404 26.4137 41.0673 26.4354C39.4541 26.6789 37.9711 26.4354 36.6349 25.5903C36.3579 25.4185 36.1134 25.3469 35.7549 25.4185C34.4187 25.7193 33.0172 25.1893 32.3002 24.1437C31.9417 23.6138 32.0069 23.1698 32.4795 22.8833C32.952 22.5968 33.4409 22.7258 33.8646 23.2271C34.3535 23.8143 35.0705 24.0005 35.706 23.6997C36.3253 23.4133 36.5534 22.826 36.2927 22.1385C36.0971 21.5942 36.2764 21.1646 36.7816 20.9927C37.303 20.8065 37.8082 21.0356 38.0526 21.5942C38.679 23.0037 38.8722 25.0005 40.4048 24.8277C41.1779 24.7405 41.9401 24.4601 42.5503 24.0005C43.7146 23.1272 44.2134 21.4219 43.6803 20.4575C43.6355 20.3765 43.5264 20.3443 43.4465 20.3911C42.6806 20.8065 42.1592 20.7922 41.817 20.3481C41.4584 19.8898 41.6377 19.5031 42.4199 19.0161C43.1043 18.5864 43.3976 17.9992 43.2347 17.2687C43.088 16.5526 42.5829 16.1229 41.7844 15.9367C41.1977 15.7934 40.6925 15.951 40.1874 16.2088C39.6659 16.4809 39.1444 16.395 38.8511 15.994C38.5415 15.5786 38.6556 15.1346 39.2096 14.8052C39.4052 14.6906 39.6007 14.576 39.8289 14.5187C40.2363 14.4184 40.2852 14.2036 40.1059 13.9171C39.8289 13.4445 39.617 12.9145 39.2585 12.4848C38.4825 11.5445 37.503 10.9098 36.3198 10.57C35.5079 10.3368 34.7737 11.2446 33.9298 11.2817C33.3268 11.3104 33.0009 10.9953 32.9194 10.2791C32.8217 9.49134 32.0884 8.84681 31.2247 8.78952C30.2306 8.7179 29.3507 9.24785 29.1225 10.0499C29.0736 10.2361 29.0899 10.4367 29.041 10.6229C28.927 11.0812 28.5359 11.339 28.0144 11.296C27.5418 11.2531 27.1833 10.895 27.1833 10.4367C27.1833 10.2218 27.1996 9.97832 27.2974 9.7778C27.4604 9.44837 27.2648 9.31947 26.9715 9.20488C25.896 8.74655 24.7878 8.64629 23.6471 8.96139C22.099 9.39108 21.0887 10.2934 20.5998 11.6541C20.4043 12.2127 19.8991 12.4705 19.3613 12.313C18.8562 12.1697 18.6443 11.74 18.8073 11.1815C18.8605 11.0177 18.7389 10.851 18.5668 10.8456C18.0583 10.8298 17.5061 11.0095 17.042 11.3041ZM35.8451 42.2101C34.4679 42.3506 33.5034 43.6019 33.5876 44.9836C33.6039 45.3847 33.7994 45.4706 34.2231 45.4706C40.3014 45.4563 46.3961 45.4706 52.4744 45.4563C53.5173 45.4563 53.827 45.0982 53.6314 44.1959C52.6048 39.5696 51.5781 34.9432 50.5515 30.3169C50.2866 29.1529 50.0337 27.9783 49.7825 26.8113C49.7083 26.4666 49.4035 26.2206 49.051 26.2206C48.9223 26.2206 48.7949 26.2206 48.6665 26.2206C48.4283 26.2206 48.2269 26.428 48.2538 26.6646C48.8893 29.9875 49.5086 33.3104 50.1441 36.619C50.4537 38.2232 50.7796 39.813 51.0567 41.4172C51.3011 42.8209 50.0789 43.7662 48.5634 43.3508C44.5221 42.2336 40.3992 41.8469 36.1949 42.1763C36.0778 42.187 35.9613 42.1983 35.8451 42.2101ZM7.23121 26.2349C6.8834 26.2349 6.59734 26.4768 6.52248 26.8165C5.68521 30.6147 4.84795 34.376 4.01069 38.1373C3.55441 40.1998 3.09813 42.2479 2.64185 44.3105C2.51148 44.912 2.73962 45.3417 3.29368 45.442C3.50552 45.4849 3.73366 45.4706 3.94551 45.4706C9.95866 45.4706 15.9718 45.4706 21.985 45.4706C22.099 45.4706 22.2294 45.4993 22.3109 45.4563C22.4575 45.3847 22.6694 45.2844 22.6857 45.1698C22.8547 43.6841 21.7282 42.3395 20.2386 42.2093C19.6394 42.157 19.0428 42.1133 18.4488 42.0904C14.8474 41.9472 11.3112 42.3912 7.8565 43.3222C6.17804 43.7805 4.97215 42.7922 5.28177 41.274C5.37954 40.7727 5.47732 40.2714 5.57509 39.7701C6.24322 36.2323 6.91135 32.6945 7.59577 29.1568C7.72201 28.4809 7.84826 27.798 7.9745 27.1079C8.05766 26.6533 7.69334 26.2349 7.23121 26.2349ZM27.3463 43.6516C26.0488 43.1726 24.6909 44.1554 24.5193 45.5277C24.5061 45.633 24.4925 45.7381 24.4782 45.843C24.4293 46.2441 24.576 46.4303 24.9508 46.5735C25.9937 46.9888 27.1018 47.0891 28.2263 47.0891C29.3018 47.0891 30.361 46.9888 31.3388 46.5592C31.5343 46.4732 31.8113 46.2584 31.8113 46.1151C31.7983 45.9027 31.7826 45.6903 31.7649 45.4774C31.6528 44.1241 30.2596 43.1499 28.9922 43.6373C28.4218 43.8521 27.9166 43.8664 27.3463 43.6516Z" fill="black"/>
<path d="M20.8901 5.08779C20.4481 5.37133 19.7401 5.22781 19.4922 4.76485C19.0848 4.0487 18.7589 3.28958 18.433 2.53047C18.2211 2.04349 18.4493 1.58515 18.9219 1.41328C19.427 1.2414 19.9159 1.4276 20.1603 1.91458C20.5189 2.65937 20.8774 3.40417 21.2033 4.14896C21.3468 4.51842 21.2194 4.87654 20.8901 5.08779Z" fill="black"/>
<path d="M36.7477 4.83654C36.5225 5.28909 35.8089 5.36513 35.3857 5.08875C35.0672 4.88078 34.936 4.54505 35.0693 4.22065C35.4115 3.41857 35.7863 2.6308 36.1774 1.84304C36.3892 1.41335 36.9107 1.27012 37.367 1.442C37.8233 1.59955 38.0677 2.02924 37.8884 2.47325C37.5462 3.27534 37.1877 4.0631 36.7477 4.83654Z" fill="black"/>
<path d="M9.667 13.4438C10.2053 13.6665 10.3291 14.5455 9.82795 14.8425C9.58645 14.9856 9.28412 15.0238 8.96628 14.9191C8.07001 14.6326 7.19004 14.3032 6.31007 13.9595C5.83749 13.7733 5.67453 13.3149 5.87008 12.9139C6.06563 12.5128 6.53821 12.298 7.02708 12.4699C7.92335 12.7706 8.80332 13.0714 9.667 13.4438Z" fill="black"/>
<path d="M50.2166 12.6759C50.5945 13.0388 50.3902 13.7539 49.9152 13.9749C49.0841 14.333 48.2367 14.6194 47.3731 14.9202C46.8516 15.1064 46.3464 14.9059 46.1346 14.5048C45.9227 14.0752 46.1183 13.6168 46.656 13.4163C47.5197 13.0869 48.3834 12.7718 49.2634 12.4853C49.6174 12.3625 49.9768 12.4456 50.2166 12.6759Z" fill="black"/>
<path d="M44.6464 6.50121C44.9294 6.75157 45.0334 7.27515 44.7668 7.54293C44.4083 7.901 44.0335 8.24475 43.6261 8.54553C43.235 8.83199 42.7461 8.7747 42.4039 8.45959C42.078 8.15881 42.0454 7.70048 42.3713 7.38537C42.6972 7.05595 43.0395 6.69787 43.4469 6.4687C43.7076 6.32547 44.1476 6.28251 44.4409 6.38277C44.5167 6.4036 44.5843 6.44625 44.6464 6.50121Z" fill="black"/>
<path d="M13.87 8.39074C13.5644 8.69081 13.0006 8.82897 12.6789 8.54621C12.2715 8.23111 11.8641 7.90168 11.5219 7.5436C11.196 7.19985 11.2612 6.77016 11.6197 6.46938C11.9456 6.19725 12.4671 6.15428 12.8093 6.41209C13.2167 6.7272 13.6404 7.0423 13.9337 7.42902C14.0804 7.61522 14.113 8.00194 13.9989 8.21678C13.9693 8.27997 13.9243 8.33737 13.87 8.39074Z" fill="black"/>
<path d="M29.0911 1.90052C29.0911 2.00078 29.0911 2.08672 29.0911 2.18698C29.0585 2.74557 28.6837 3.10365 28.146 3.10365C27.6082 3.10365 27.2171 2.7599 27.1845 2.2013C27.1682 1.94349 27.1682 1.7 27.2008 1.44218C27.2497 0.955203 27.6734 0.625775 28.1623 0.640098C28.6349 0.654421 29.0097 0.969526 29.0748 1.42786C29.1074 1.58541 29.0911 1.74297 29.0911 1.90052Z" fill="black"/>
<path d="M25.8306 22.8116C26.9662 22.754 26.8546 21.4237 25.8541 20.8834C25.7099 20.8055 25.5663 20.7274 25.4232 20.6488C25.2277 20.5342 25.0647 20.3767 24.9343 20.2048C24.6736 19.8611 24.6899 19.5173 24.9995 19.2022C25.2928 18.9014 25.798 18.8441 26.1891 19.059C26.3195 19.1306 26.4335 19.2452 26.5639 19.3454C28.6661 21.0642 31.9904 20.2335 32.74 17.7986C32.7563 17.7269 32.7889 17.641 32.8215 17.5694C33.0008 17.0824 33.4733 16.8389 33.9948 16.9822C34.4674 17.0967 34.7444 17.5407 34.614 18.0134C34.0763 19.9327 32.74 21.1931 30.5727 21.7374C30.2142 21.8233 30.0186 21.9665 29.8394 22.2673C29.0246 23.628 27.7209 24.3442 25.9773 24.4587C25.3254 24.5017 24.8529 24.2009 24.804 23.6996C24.7551 23.2126 25.1788 22.8402 25.8306 22.8116Z" fill="black"/>
<path d="M24.9502 13.7017C25.6672 13.6874 26.0583 13.9452 26.0909 14.4609C26.1235 14.9765 25.765 15.2916 25.0643 15.3346C23.7932 15.4205 22.9296 16.1796 22.7992 17.3254C22.7177 18.0559 22.1474 18.4426 21.4955 18.1991C21.0555 18.0416 20.8926 17.7265 20.8926 17.3254C20.9415 15.4062 22.7829 13.759 24.9502 13.7017Z" fill="black"/>
</svg>
