<svg width="25" height="25" viewBox="0 0 25 25" fill="none" xmlns="http://www.w3.org/2000/svg">
<path d="M9.64939 8.07886C9.07654 6.16935 10.5064 4.24756 12.5 4.24756V4.24756C14.4936 4.24756 15.9235 6.16935 15.3506 8.07886L13.7873 13.2897C13.7171 13.5237 13.682 13.6407 13.628 13.7371C13.489 13.9846 13.2513 14.1615 12.9743 14.2234C12.8664 14.2476 12.7443 14.2476 12.5 14.2476V14.2476C12.2557 14.2476 12.1336 14.2476 12.0257 14.2234C11.7487 14.1615 11.511 13.9846 11.372 13.7371C11.318 13.6407 11.2829 13.5237 11.2127 13.2897L9.64939 8.07886Z" stroke="#6C757D"/>
<circle cx="12.5" cy="19.2476" r="2" stroke="#6C757D"/>
</svg>
