<svg width="135" height="106" viewBox="0 0 135 106" fill="none" xmlns="http://www.w3.org/2000/svg">
<g clip-path="url(#clip0_4489_2108)">
<path d="M122.886 96.7667C120.298 99.5377 117.332 101.93 114.077 103.874C114.002 103.92 113.926 103.963 113.85 104.007L108.58 99.3426C108.635 99.2912 108.697 99.2335 108.763 99.17C112.69 95.441 132.184 69.3686 133.483 63.0195C133.393 63.5485 134.655 84.2915 122.886 96.7667Z" fill="#F0F0F0"/>
<path d="M115.094 104.774C114.995 104.798 114.893 104.82 114.792 104.841L110.838 101.341C110.915 101.314 111.005 101.282 111.109 101.247C112.805 100.646 117.858 98.8323 122.886 96.7668C128.289 94.5464 133.665 92.0377 134.822 90.4307C134.574 90.8041 126.933 102.127 115.094 104.774Z" fill="#F0F0F0"/>
<path d="M122.812 27.7611H122.249V12.3353C122.249 11.1628 122.018 10.0019 121.569 8.91867C121.121 7.83547 120.463 6.85125 119.634 6.0222C118.805 5.19315 117.821 4.53551 116.738 4.08683C115.655 3.63816 114.494 3.40723 113.321 3.40723H80.6422C79.4699 3.40722 78.309 3.63815 77.2259 4.08683C76.1427 4.5355 75.1586 5.19314 74.3296 6.02218C73.5006 6.85123 72.843 7.83544 72.3944 8.91864C71.9458 10.0018 71.7148 11.1628 71.7148 12.3353V96.9627C71.7148 98.1351 71.9457 99.2961 72.3944 100.379C72.843 101.462 73.5006 102.447 74.3296 103.276C75.1586 104.105 76.1427 104.762 77.2258 105.211C78.309 105.66 79.4698 105.891 80.6422 105.891H113.321C114.494 105.891 115.655 105.66 116.738 105.211C117.821 104.762 118.805 104.105 119.634 103.276C120.463 102.447 121.121 101.463 121.569 100.379C122.018 99.2961 122.249 98.1351 122.249 96.9627V38.7415H122.812V27.7611Z" fill="#3F3D56"/>
<path d="M120.35 12.3965V96.9007C120.35 97.7763 120.177 98.6433 119.842 99.4522C119.507 100.261 119.016 100.996 118.396 101.615C117.777 102.234 117.042 102.725 116.233 103.06C115.424 103.395 114.557 103.567 113.682 103.567H80.8452C79.9699 103.567 79.1031 103.394 78.2944 103.059C77.4856 102.724 76.7508 102.233 76.1318 101.614C75.5129 100.995 75.0219 100.261 74.6869 99.4517C74.352 98.6429 74.1796 97.7761 74.1797 96.9007V12.3965C74.1796 11.5211 74.352 10.6542 74.6869 9.84542C75.0219 9.03664 75.5129 8.30176 76.1318 7.68275C76.7508 7.06374 77.4856 6.57273 78.2944 6.23775C79.1031 5.90278 79.9699 5.7304 80.8452 5.73047H84.8301C84.6345 6.21147 84.56 6.73317 84.6133 7.24968C84.6666 7.7662 84.8461 8.2617 85.1358 8.69261C85.4255 9.12352 85.8166 9.47664 86.2748 9.72091C86.733 9.96518 87.2441 10.0931 87.7634 10.0935H106.484C107.004 10.0939 107.516 9.96655 107.974 9.72252C108.433 9.47848 108.824 9.1253 109.114 8.69414C109.404 8.26299 109.583 7.7671 109.636 7.25024C109.689 6.73339 109.614 6.21144 109.418 5.73047H113.682C114.557 5.73015 115.424 5.90234 116.233 6.2372C117.042 6.57205 117.777 7.06301 118.396 7.68204C119.016 8.30107 119.507 9.03603 119.842 9.84495C120.177 10.6539 120.35 11.5209 120.35 12.3965Z" fill="white"/>
<path d="M110.134 56.3099H81.272C80.7665 56.3093 80.2818 56.1083 79.9243 55.7508C79.5669 55.3933 79.3658 54.9086 79.3652 54.403V53.4538C79.3658 52.9482 79.5669 52.4635 79.9243 52.106C80.2818 51.7485 80.7665 51.5474 81.272 51.5469H110.134C110.64 51.5474 111.125 51.7485 111.482 52.106C111.839 52.4635 112.041 52.9482 112.041 53.4538V54.403C112.041 54.9086 111.839 55.3933 111.482 55.7508C111.125 56.1083 110.64 56.3093 110.134 56.3099Z" fill="#F0F0F0"/>
<path d="M110.134 64.4916H81.272C80.7665 64.491 80.2818 64.2899 79.9243 63.9324C79.5669 63.5749 79.3658 63.0902 79.3652 62.5846V61.6354C79.3658 61.1299 79.5669 60.6452 79.9243 60.2877C80.2818 59.9302 80.7665 59.7291 81.272 59.7285H110.134C110.64 59.7291 111.125 59.9302 111.482 60.2877C111.839 60.6452 112.041 61.1299 112.041 61.6354V62.5846C112.041 63.0902 111.839 63.5749 111.482 63.9324C111.125 64.2899 110.64 64.491 110.134 64.4916Z" fill="#F0F0F0"/>
<path d="M111.579 54.4791H82.717C82.1862 54.4785 81.6773 54.2674 81.3019 53.892C80.9266 53.5166 80.7154 53.0077 80.7148 52.4768V51.5277C80.7154 50.9968 80.9266 50.4879 81.3019 50.1125C81.6773 49.7371 82.1862 49.526 82.717 49.5254H111.579C112.11 49.526 112.619 49.7371 112.994 50.1125C113.37 50.4879 113.581 50.9968 113.581 51.5277V52.4768C113.581 53.0077 113.37 53.5166 112.994 53.892C112.619 54.2674 112.11 54.4785 111.579 54.4791ZM82.717 49.9068C82.2873 49.9073 81.8753 50.0782 81.5714 50.3821C81.2676 50.6859 81.0967 51.0979 81.0962 51.5277V52.4768C81.0967 52.9066 81.2676 53.3186 81.5714 53.6225C81.8753 53.9263 82.2873 54.0973 82.717 54.0977H111.579C112.009 54.0973 112.421 53.9263 112.725 53.6225C113.029 53.3186 113.2 52.9066 113.2 52.4768V51.5277C113.2 51.0979 113.029 50.6859 112.725 50.3821C112.421 50.0782 112.009 49.9073 111.579 49.9068H82.717Z" fill="#3F3D56"/>
<path d="M111.579 62.6617H82.717C82.1862 62.6611 81.6773 62.45 81.3019 62.0746C80.9266 61.6993 80.7154 61.1903 80.7148 60.6595V59.7103C80.7154 59.1794 80.9266 58.6705 81.3019 58.2951C81.6773 57.9198 82.1862 57.7086 82.717 57.708H111.579C112.11 57.7086 112.619 57.9198 112.994 58.2951C113.37 58.6705 113.581 59.1794 113.581 59.7103V60.6595C113.581 61.1903 113.37 61.6993 112.994 62.0746C112.619 62.45 112.11 62.6611 111.579 62.6617ZM82.717 58.0894C82.2873 58.0899 81.8753 58.2608 81.5714 58.5647C81.2676 58.8685 81.0967 59.2805 81.0962 59.7103V60.6595C81.0967 61.0892 81.2676 61.5012 81.5714 61.8051C81.8753 62.1089 82.2873 62.2799 82.717 62.2804H111.579C112.009 62.2799 112.421 62.1089 112.725 61.8051C113.029 61.5012 113.2 61.0892 113.2 60.6595V59.7103C113.2 59.2805 113.029 58.8685 112.725 58.5647C112.421 58.2608 112.009 58.0899 111.579 58.0894H82.717Z" fill="#3F3D56"/>
<path d="M120.35 12.3965V30.7773C117.429 31.5457 114.372 31.6339 111.412 31.035C108.452 30.4361 105.669 29.1663 103.277 27.323C100.885 25.4797 98.9473 23.1123 97.6137 20.4027C96.28 17.6932 95.5856 14.7138 95.584 11.6938C95.584 11.1547 95.6056 10.6213 95.649 10.0935H106.485C107.004 10.0939 107.516 9.96655 107.974 9.72252C108.433 9.47848 108.825 9.1253 109.114 8.69414C109.404 8.26299 109.584 7.7671 109.637 7.25024C109.689 6.73339 109.614 6.21144 109.418 5.73047H113.682C114.557 5.73015 115.424 5.90234 116.233 6.2372C117.042 6.57205 117.777 7.06301 118.397 7.68204C119.016 8.30107 119.507 9.03603 119.842 9.84495C120.177 10.6539 120.35 11.5209 120.35 12.3965Z" fill="#F0F0F0"/>
<path d="M90.7712 102.419C90.7712 102.806 90.7568 103.189 90.7255 103.567H80.8452C79.9699 103.567 79.1031 103.394 78.2944 103.06C77.4856 102.725 76.7508 102.234 76.1318 101.615C75.5129 100.996 75.0219 100.261 74.6869 99.4519C74.352 98.6431 74.1796 97.7762 74.1797 96.9008V87.862C76.2507 87.5926 78.3554 87.7678 80.3534 88.3759C82.3515 88.9839 84.197 90.0109 85.7669 91.3883C87.3369 92.7658 88.5953 94.462 89.4582 96.3641C90.3211 98.2661 90.7687 100.33 90.7712 102.419Z" fill="#6A23A7"/>
<path d="M11.0833 86.5591C11.3609 86.6813 11.6757 86.6883 11.9584 86.5786C12.2412 86.469 12.469 86.2517 12.5918 85.9743L21.4925 65.8001C21.6962 65.3385 21.7584 64.8268 21.6713 64.3297C21.5842 63.8326 21.3517 63.3726 21.0032 63.0077C20.6546 62.6428 20.2057 62.3895 19.7132 62.2798C19.2206 62.1701 18.7066 62.2089 18.2362 62.3913C17.6927 62.5989 17.2378 62.9884 16.9491 63.4936C16.9031 63.5735 16.8615 63.6558 16.8243 63.7401L7.92356 83.9143C7.8629 84.0518 7.82991 84.1999 7.82647 84.3501C7.82303 84.5003 7.84922 84.6497 7.90353 84.7898C7.95785 84.9299 8.03922 85.0579 8.14301 85.1666C8.24681 85.2752 8.37098 85.3624 8.50844 85.423L11.0833 86.5591Z" fill="#6A23A7"/>
<path d="M21.1262 74.0823L12.3223 72.1257L14.5013 66.3607C14.8725 64.9516 15.7365 63.7222 16.9363 62.8956C18.1362 62.069 19.5926 61.6998 21.0414 61.855L21.1262 61.8644L21.1262 74.0823Z" fill="#2F2E41"/>
<path d="M38.9092 86.8478C38.6502 86.8474 38.397 86.7719 38.18 86.6306C37.963 86.4892 37.7916 86.288 37.6866 86.0513L28.7859 65.8772C28.5028 65.2353 28.4765 64.5093 28.7124 63.8486C28.9482 63.1879 29.4283 62.6427 30.0538 62.3252C30.6794 62.0077 31.4028 61.9421 32.0753 62.1418C32.7477 62.3414 33.3181 62.7913 33.669 63.3987C33.7184 63.4845 33.7631 63.5728 33.803 63.6633L42.7037 83.8375C42.8466 84.1614 42.855 84.5288 42.727 84.8589C42.5991 85.189 42.3452 85.4547 42.0213 85.5976L39.3592 86.7722L39.3579 86.7692C39.214 86.8211 39.0622 86.8477 38.9092 86.8478Z" fill="#6A23A7"/>
<path d="M26.5972 79.9199C26.2939 79.9203 26.0031 80.0409 25.7886 80.2554C25.5741 80.4699 25.4535 80.7607 25.4531 81.0641V104.522C25.4535 104.825 25.5741 105.116 25.7886 105.331C26.0031 105.545 26.2939 105.666 26.5972 105.666H29.4115C29.7148 105.666 30.0056 105.545 30.2201 105.331C30.4346 105.116 30.5552 104.825 30.5556 104.522V81.0641C30.5552 80.7607 30.4346 80.4699 30.2201 80.2554C30.0056 80.0409 29.7148 79.9203 29.4115 79.9199H26.5972Z" fill="#6A23A7"/>
<path d="M21.0308 79.9199C20.7275 79.9203 20.4367 80.0409 20.2222 80.2554C20.0077 80.4699 19.8871 80.7607 19.8867 81.0641V104.522C19.8871 104.825 20.0077 105.116 20.2222 105.331C20.4367 105.545 20.7275 105.666 21.0308 105.666H23.8451C24.1485 105.666 24.4393 105.545 24.6537 105.331C24.8682 105.116 24.9889 104.825 24.9892 104.522V81.0641C24.9889 80.7607 24.8682 80.4699 24.6537 80.2554C24.4393 80.0409 24.1485 79.9203 23.8451 79.9199H21.0308Z" fill="#6A23A7"/>
<path d="M25.1367 55.3433C30.5074 55.3433 34.8613 50.9891 34.8613 45.6179C34.8613 40.2468 30.5074 35.8926 25.1367 35.8926C19.766 35.8926 15.4121 40.2468 15.4121 45.6179C15.4121 50.9891 19.766 55.3433 25.1367 55.3433Z" fill="#6A23A7"/>
<path d="M28.3719 49.7004C29.0023 49.6829 29.7868 49.661 30.3912 49.2195C30.5712 49.0826 30.7191 48.9081 30.8245 48.708C30.9299 48.508 30.9903 48.2873 31.0014 48.0615C31.0123 47.901 30.986 47.7401 30.9245 47.5915C30.8629 47.4428 30.7678 47.3104 30.6467 47.2046C30.331 46.9379 29.87 46.8753 29.3733 47.0213L29.888 43.2598L29.5101 43.208L28.9051 47.6302L29.2206 47.4854C29.5864 47.3176 30.0885 47.2322 30.4005 47.4959C30.4771 47.5648 30.5368 47.6505 30.5749 47.7463C30.6131 47.8421 30.6286 47.9453 30.6203 48.0481C30.6111 48.2161 30.5657 48.3803 30.4874 48.5293C30.409 48.6782 30.2995 48.8086 30.1663 48.9115C29.6959 49.2551 29.0706 49.2994 28.3613 49.3192L28.3719 49.7004Z" fill="#2F2E41"/>
<path d="M33.8117 43.585H31.7578V43.9663H33.8117V43.585Z" fill="#2F2E41"/>
<path d="M27.3273 43.585H25.2734V43.9663H27.3273V43.585Z" fill="#2F2E41"/>
<path d="M34.7717 86.9658L31.2716 61.4129C31.2341 61.1389 31.0986 60.8878 30.8902 60.706C30.6818 60.5242 30.4146 60.424 30.1381 60.4241H27.4961C27.5071 60.3611 27.5129 60.2973 27.5133 60.2334V59.2799C27.5133 58.9765 27.3927 58.6854 27.1782 58.4709C26.9636 58.2563 26.6726 58.1357 26.3692 58.1357H24.0811C23.7776 58.1357 23.4866 58.2563 23.2721 58.4709C23.0575 58.6854 22.937 58.9765 22.937 59.2799V60.2334C22.9374 60.2973 22.9431 60.3611 22.9541 60.4241H20.3122C20.0357 60.4241 19.7685 60.5242 19.5601 60.706C19.3517 60.8878 19.2162 61.1389 19.1786 61.4129L15.6786 86.9658C15.6564 87.1276 15.6691 87.2924 15.7159 87.4489C15.7627 87.6054 15.8425 87.7501 15.9499 87.8732C16.0573 87.9963 16.1898 88.095 16.3385 88.1626C16.4872 88.2302 16.6487 88.2652 16.812 88.2652H33.6382C33.8016 88.2652 33.963 88.2302 34.1117 88.1626C34.2605 88.095 34.393 87.9963 34.5003 87.8732C34.6077 87.7501 34.6875 87.6054 34.7343 87.4489C34.7811 87.2924 34.7939 87.1276 34.7717 86.9658Z" fill="#2F2E41"/>
<path d="M29.3262 74.0822V61.8643L29.411 61.8549C30.8615 61.6998 32.3195 62.0702 33.5202 62.8988C34.7209 63.7274 35.5845 64.9592 35.9542 66.3705L38.1301 72.1256L29.3262 74.0822Z" fill="#2F2E41"/>
<path d="M24.6471 55.6474L17.9208 53.0364C16.821 52.6095 15.7149 52.1955 14.6209 51.7539C14.1522 51.5906 13.7205 51.3361 13.3507 51.0052C13.0287 50.6643 12.8092 50.2395 12.7174 49.7796C12.4841 48.7935 12.5263 47.7153 12.5429 46.709C12.5558 45.6081 12.6464 44.5095 12.814 43.4213C13.1078 41.3765 13.7976 39.4086 14.8448 37.628C16.7311 34.5327 19.9811 32.204 23.7195 32.3898C25.4502 32.4759 27.1909 33.097 28.4768 34.2804C28.6109 34.4407 28.7614 34.5866 28.9259 34.7156C29.0402 34.7585 29.1645 34.7668 29.2835 34.7396C29.4404 34.7295 29.5975 34.7218 29.7547 34.7165C30.3 34.6935 30.8464 34.7164 31.3879 34.785C32.3748 34.8917 33.3101 35.2801 34.0823 35.9039C34.7249 36.4567 35.2477 37.2372 35.3015 38.1045C35.3275 38.5026 35.2617 38.9014 35.1091 39.2701C34.9566 39.6387 34.7214 39.9674 34.4217 40.2308C33.6192 40.9072 32.4743 40.6694 31.5117 40.6184L27.9853 40.4316L26.1987 40.3369C25.8308 40.3174 25.8318 40.8896 26.1987 40.909L30.9475 41.1606C31.7106 41.2011 32.4971 41.3001 33.2609 41.2544C33.8477 41.2278 34.4081 41.0024 34.8498 40.6151C35.2533 40.2445 35.5538 39.7756 35.7221 39.2542C35.8904 38.7328 35.9208 38.1767 35.8102 37.6401C35.5654 36.4697 34.6944 35.5015 33.6733 34.9255C32.284 34.1418 30.6248 34.0668 29.0702 34.1826L29.2725 34.2664C27.514 32.3789 24.8204 31.5819 22.2917 31.8608C19.6218 32.1553 17.2471 33.6449 15.5409 35.6818C13.6386 37.9529 12.602 40.7847 12.199 43.6966C11.9893 45.2688 11.9202 46.8566 11.9927 48.441C11.9897 49.1398 12.1092 49.8337 12.3459 50.4912C12.6159 51.1311 13.104 51.6545 13.7235 51.9683C14.4338 52.3112 15.164 52.6112 15.9102 52.8666L18.3883 53.8286L23.256 55.7181L24.495 56.199C24.8384 56.3323 24.9872 55.7794 24.6471 55.6474Z" fill="#2F2E41"/>
<path d="M14.0707 36.2064C13.4862 36.2064 12.9148 36.0331 12.4287 35.7083C11.9427 35.3835 11.5639 34.9219 11.3402 34.3818C11.1165 33.8417 11.058 33.2474 11.172 32.674C11.2861 32.1007 11.5675 31.574 11.9809 31.1606C12.3942 30.7473 12.9208 30.4658 13.4942 30.3517C14.0675 30.2377 14.6617 30.2962 15.2018 30.5199C15.7418 30.7436 16.2034 31.1225 16.5282 31.6085C16.8529 32.0946 17.0263 32.6661 17.0263 33.2507C17.0254 34.0343 16.7137 34.7856 16.1596 35.3397C15.6056 35.8938 14.8543 36.2055 14.0707 36.2064ZM14.0707 30.867C13.5993 30.867 13.1385 31.0068 12.7466 31.2687C12.3546 31.5306 12.0491 31.9029 11.8687 32.3385C11.6883 32.774 11.6411 33.2533 11.7331 33.7157C11.825 34.1781 12.052 34.6028 12.3854 34.9362C12.7187 35.2695 13.1434 35.4966 13.6058 35.5885C14.0681 35.6805 14.5473 35.6333 14.9829 35.4529C15.4184 35.2725 15.7906 34.967 16.0525 34.575C16.3144 34.183 16.4542 33.7221 16.4542 33.2507C16.4535 32.6187 16.2022 32.0128 15.7553 31.5659C15.3085 31.1191 14.7027 30.8677 14.0707 30.867Z" fill="#2F2E41"/>
<path d="M63.4771 54.5239L57.0801 49.6309L52.1874 56.0284L58.5845 60.9214L63.4771 54.5239Z" fill="#F0F0F0"/>
<path d="M27.3238 10.8442C28.3345 10.8434 29.3314 11.0793 30.2346 11.5331C31.1378 11.9868 31.9222 12.6457 32.525 13.4571L36.2603 8.57277L25.0525 0L16.4805 11.2087L21.311 14.9036C21.7944 13.7046 22.6252 12.6775 23.6966 11.9542C24.768 11.2308 26.0311 10.8443 27.3238 10.8442Z" fill="#F0F0F0"/>
<path d="M134.809 106H0.190678C0.140107 106 0.0916072 105.979 0.0558481 105.944C0.0200891 105.908 0 105.859 0 105.809C0 105.758 0.0200891 105.71 0.0558481 105.674C0.0916072 105.638 0.140107 105.618 0.190678 105.618H134.809C134.86 105.618 134.908 105.638 134.944 105.674C134.98 105.71 135 105.758 135 105.809C135 105.859 134.98 105.908 134.944 105.944C134.908 105.979 134.86 106 134.809 106Z" fill="#3F3D56"/>
<path d="M101.953 74.3578H88.2505C87.745 74.3572 87.2603 74.1561 86.9029 73.7986C86.5454 73.4411 86.3443 72.9564 86.3438 72.4508V71.5017C86.3443 70.9961 86.5454 70.5114 86.9029 70.1539C87.2603 69.7964 87.745 69.5953 88.2505 69.5947H101.953C102.459 69.5953 102.943 69.7964 103.301 70.1539C103.658 70.5114 103.859 70.9961 103.86 71.5017V72.4508C103.859 72.9564 103.658 73.4411 103.301 73.7986C102.943 74.1561 102.459 74.3572 101.953 74.3578Z" fill="#6A23A7"/>
<path d="M103.396 72.528H89.6935C89.1627 72.5273 88.6538 72.3162 88.2785 71.9408C87.9031 71.5655 87.692 71.0565 87.6914 70.5257V69.5765C87.692 69.0456 87.9031 68.5367 88.2785 68.1613C88.6538 67.786 89.1627 67.5748 89.6935 67.5742H103.396C103.927 67.5748 104.436 67.786 104.811 68.1613C105.186 68.5367 105.398 69.0456 105.398 69.5765V70.5257C105.398 71.0565 105.186 71.5655 104.811 71.9408C104.436 72.3162 103.927 72.5273 103.396 72.528ZM89.6935 67.9556C89.2638 67.9561 88.8519 68.127 88.548 68.4309C88.2442 68.7348 88.0732 69.1468 88.0728 69.5765V70.5257C88.0732 70.9554 88.2442 71.3674 88.548 71.6713C88.8519 71.9752 89.2638 72.1461 89.6935 72.1466H103.396C103.826 72.1461 104.238 71.9752 104.542 71.6713C104.845 71.3674 105.016 70.9554 105.017 70.5257V69.5765C105.016 69.1468 104.845 68.7348 104.542 68.4309C104.238 68.127 103.826 67.9561 103.396 67.9556H89.6935Z" fill="#3F3D56"/>
</g>
<defs>
<clipPath id="clip0_4489_2108">
<rect width="135" height="106" fill="white"/>
</clipPath>
</defs>
</svg>
