<svg width="821" height="390" viewBox="0 0 821 390" fill="none" xmlns="http://www.w3.org/2000/svg">
<path d="M815.533 384.701H5.46518C4.92426 384.701 4.46875 384.246 4.46875 383.704V383.448C4.46875 382.907 4.92426 382.451 5.46518 382.451H815.533C816.074 382.451 816.529 382.907 816.529 383.448V383.704C816.529 384.246 816.074 384.701 815.533 384.701Z" fill="#2E3552"/>
<path d="M127.059 234.963L129.763 237.156C129.763 237.156 137.165 234.507 138.816 243.309C138.816 243.309 139.272 247.069 136.88 247.069C134.518 247.069 135.485 246.67 132.126 246.755C128.767 246.841 125.977 245.075 125.493 242.34L123.898 240.033L127.059 234.963Z" fill="#EA8E50"/>
<path d="M126.745 239.691C128.909 237.441 128.738 235.76 128.738 235.76C128.738 235.76 103.77 215.309 101.236 213.628C99.4997 212.489 81.1085 196.168 72.5108 186.227C68.2403 181.299 62.9735 183.208 56.9095 184.945L51.9274 186.369C45.9203 188.107 44.3545 196.509 49.2797 200.583C63.1728 212.09 86.2615 225.05 90.5888 227.756C101.322 234.507 122.332 242.539 122.332 242.539C122.332 242.539 124.894 241.628 126.745 239.691Z" fill="#1E3D70"/>
<path d="M155.244 365.391C155.244 365.391 161.308 369.948 170.589 367.527C170.589 367.527 178.076 365.818 179.727 369.549C179.727 369.549 168.254 375.388 165.35 376.984C163.158 378.18 160.881 380.088 159.258 381.541C157.977 382.709 155.984 382.538 154.902 381.199C154.39 380.572 153.82 379.832 153.194 378.977C151.429 376.585 147.301 368.809 147.301 368.809L155.244 365.391Z" fill="#233862"/>
<path d="M158.802 363.054C158.802 363.054 155.101 371.571 146.588 370.004C146.588 370.004 129.194 355.649 117.293 340.723C113.422 335.881 110.119 330.982 108.183 326.481C100.269 308.166 78.9451 280.85 65.3652 267.007L99.3292 254.73C99.3292 254.73 110.205 276.606 124.667 303.495C135.087 322.864 147.386 344.825 158.802 363.054Z" fill="#486C98"/>
<path d="M160.795 201.409C161.023 199.301 161.08 197.222 160.994 195.171C160.937 194.231 161.478 193.348 162.332 192.949L172.354 188.307C173.435 187.794 173.948 186.569 173.549 185.458L170.076 175.945C169.677 174.862 168.567 174.264 167.457 174.549L157.578 176.97C156.61 177.198 155.614 176.799 155.073 175.945C152.824 172.27 149.977 168.938 146.674 166.146C145.877 165.463 145.649 164.323 146.105 163.355L148.838 157.8C149.35 156.747 149.009 155.465 148.012 154.81L139.528 149.426C138.532 148.8 137.194 149.027 136.482 149.967L130.532 157.8C128.71 157.345 126.831 157.003 124.895 156.775C122.304 156.49 119.771 156.462 117.265 156.661C116.326 156.747 115.415 156.234 115.016 155.351L111.258 147.261C110.746 146.151 109.465 145.638 108.326 146.037L98.988 149.426C97.8492 149.853 97.1944 151.05 97.5076 152.218L99.5289 160.478C99.7567 161.418 99.3866 162.415 98.5609 162.956C95.9133 164.665 93.4649 166.687 91.3013 168.938C90.5895 169.678 89.5077 169.849 88.5967 169.422L79.5719 164.978C78.5185 164.466 77.2089 164.807 76.5826 165.833L71.2303 174.293C70.5755 175.318 70.8318 176.657 71.7997 177.397L80.5968 184.091C81.337 184.661 81.6501 185.601 81.4224 186.512C80.8815 188.506 80.5114 190.557 80.2551 192.693C80.1413 193.804 80.0558 194.943 80.0274 196.054C79.9989 196.966 79.4865 197.792 78.6608 198.162L69.0382 202.634C67.9564 203.118 67.4439 204.371 67.871 205.482L71.2873 214.882C71.7143 216.021 72.91 216.676 74.0773 216.392L81.9064 214.455C82.9597 214.198 84.0416 214.683 84.5255 215.623C86.4615 219.382 88.9668 222.8 91.956 225.763C92.6678 226.475 92.8671 227.557 92.4116 228.469L88.4258 236.615C87.8849 237.697 88.255 239.036 89.2799 239.691L97.7069 245.046C98.7033 245.673 100.041 245.445 100.782 244.505L106.618 236.843C107.216 236.074 108.241 235.732 109.18 236.017C111.429 236.672 113.792 237.156 116.212 237.413C117.522 237.555 118.803 237.641 120.084 237.641C120.966 237.641 121.792 238.182 122.162 238.979L125.977 247.183C126.489 248.293 127.771 248.835 128.938 248.407L138.304 244.989C139.415 244.591 140.041 243.394 139.785 242.255L138.162 235.647C137.906 234.593 138.39 233.539 139.329 233.026C144.112 230.52 148.354 227.073 151.827 222.914C152.51 222.088 153.649 221.861 154.617 222.316L161.934 225.905C162.987 226.418 164.268 226.076 164.923 225.051L170.275 216.619C170.93 215.594 170.674 214.227 169.706 213.486L161.137 207.049C160.425 206.508 160.112 205.625 160.283 204.77C160.482 203.659 160.653 202.548 160.795 201.409ZM129.08 217.389C108.013 224.908 90.5326 203.033 102.632 184.063C104.454 181.214 108.554 177.939 111.714 176.771C132.81 168.995 150.432 190.813 138.56 209.755C136.653 212.774 132.411 216.192 129.08 217.389Z" fill="#AFCDFB"/>
<path d="M124.667 303.495L117.293 340.723C113.422 335.881 110.119 330.982 108.183 326.481C100.269 308.166 78.9451 280.85 65.3652 267.007L99.3292 254.73C99.3007 254.73 110.176 276.606 124.667 303.495Z" fill="#3C597E"/>
<path d="M96.9098 370.318C96.9098 370.318 96.5397 377.126 104.767 378.009C104.767 378.009 109.721 378.123 109.749 382.424H85.5505C85.5505 382.424 84.8672 380.686 84.6964 376.955C84.5541 374.078 87.4864 366.587 87.4864 366.587L96.9098 370.318Z" fill="#233862"/>
<path d="M88.17 254.73C88.17 254.73 103.287 271.365 112.91 301.301C118.12 317.594 103.344 358.582 100.44 372.824C100.44 372.824 90.5045 373.679 83.7288 371.03C83.7288 371.03 83.2163 341.634 87.1736 318.961C89.3942 306.286 67.2735 291.845 57.5939 268.915C51.0174 253.335 59.0173 253.591 68.8677 253.221L88.17 254.73Z" fill="#486C98"/>
<path d="M70.7173 180.531C62.2904 185.288 45.0664 180.901 45.0664 180.901C45.0664 180.901 52.0699 172.897 48.8813 160.022L55.4862 163.384L62.5751 167.001C62.5751 167.001 63.0306 169.28 63.3437 173.353C63.4292 174.407 63.4861 175.575 63.543 176.856C67.8988 178.167 70.7173 180.531 70.7173 180.531Z" fill="#FFB07B"/>
<path d="M101.579 253.848C101.579 255.329 99.8712 256.041 99.5011 256.098C96.1132 256.725 86.6329 260.399 78.0921 261.254C70.8894 261.994 64.2275 261.282 56.9109 259.83C55.9429 259.63 53.6654 259.032 53.4946 258.092C53.2953 257.067 25.2245 200.811 47.032 176.657C47.5445 176.087 51.8433 177.113 55.8006 178.053C59.4447 178.907 62.7756 178.423 65.7649 177.227L69.4659 179.164C73.9925 181.699 82.5903 190.671 83.5867 197.735C84.0992 201.324 86.149 203.973 86.7468 207.135C86.9746 208.302 87.2023 209.442 87.4301 210.553C87.8856 212.746 88.3411 214.797 88.8251 216.791C90.1062 222.117 91.4727 226.732 92.7823 230.691C94.2058 234.906 95.6008 238.41 96.825 241.344C98.4477 245.132 99.7858 247.98 100.64 250.174C101.238 251.683 101.579 252.88 101.579 253.848Z" fill="#2A4E96"/>
<path d="M100.64 250.145C60.982 231.46 47.2598 195.599 47.2598 195.599C47.2598 195.599 79.4586 207.476 87.4016 210.581C87.8571 212.774 88.3126 214.825 88.7966 216.819C90.0777 222.146 91.4442 226.76 92.7538 230.719C94.1773 234.935 95.5723 238.438 96.7965 241.372C98.4192 245.132 99.7858 247.98 100.64 250.145Z" fill="#1E3D70"/>
<path d="M123.813 239.322L127.229 240.575C127.229 240.575 134.091 235.733 138.361 243.623C138.361 243.623 139.898 247.069 137.45 247.81C135.002 248.55 135.884 247.867 132.468 249.006C129.023 250.145 125.635 249.319 124.354 246.87L122.02 245.161L123.813 239.322Z" fill="#FFB07B"/>
<path d="M126.631 244.164C127.884 240.86 128.482 239.35 128.482 239.35C128.482 239.35 102.603 218.243 99.9554 216.42C98.1618 215.196 80.2545 201.808 71.5429 191.383C67.2156 186.199 60.3829 183.835 53.8065 185.231L48.3688 186.37C41.8209 187.737 39.6857 196.055 44.7532 200.413C59.0733 212.718 83.2723 226.959 87.7705 229.922C98.9589 237.271 123.699 247.61 123.699 247.61C123.699 247.61 125.635 246.756 126.631 244.164Z" fill="#2A4E96"/>
<path d="M63.3723 173.352C55.0877 173.808 49.707 166.972 49.707 166.972C49.707 166.972 53.4365 164.892 55.4863 163.383L62.5752 167C62.6037 166.972 63.0592 169.25 63.3723 173.352Z" fill="#EA8E50"/>
<path d="M66.9018 164.836C66.9018 164.836 54.3753 173.837 48.8807 165.947C43.3861 158.057 38.0908 153.898 45.863 147.803C53.6351 141.707 57.3077 143.644 59.7845 145.838C62.2329 148.031 70.0335 162.301 66.9018 164.836Z" fill="#FFB07B"/>
<path d="M61.0951 138.716C60.6395 135.669 59.6431 133.532 59.6431 133.532C59.6431 133.532 58.846 136.779 52.8959 136.352C46.9458 135.896 37.4939 136.95 34.3623 143.729C34.163 144.157 33.9922 144.612 33.8214 145.068C33.252 143.559 33.1097 141.308 33.1097 141.308C31.9709 144.242 33.1097 147.888 33.1097 147.888C33.0812 148.002 33.0812 148.087 33.0527 148.201C31.7431 149.312 30.6328 152.759 30.6328 152.759C31.0314 151.79 31.9993 151.164 32.8534 150.765C32.825 156.063 34.9602 161.218 38.7181 162.757C44.2127 165.007 44.1842 163.298 49.7073 166.972C49.7073 166.972 51.1877 165.121 50.1913 163.896C49.1664 162.671 45.3515 160.848 47.4867 159.054C49.6219 157.259 50.419 159.282 51.1877 158.028C51.9849 156.803 48.0276 153.186 53.0952 149.825C58.1627 146.464 61.5506 141.736 61.0951 138.716Z" fill="#233862"/>
<path d="M645.6 371.372C645.6 371.372 646.283 382.281 648.39 382.424C648.674 382.452 659.066 382.452 659.066 382.452H672.361C672.361 382.452 672.247 379.177 668.375 378.493C664.503 377.809 657.984 375.075 655.649 369.948C653.172 364.536 645.6 371.372 645.6 371.372Z" fill="#163560"/>
<path d="M592.958 281.791C594.866 285.38 597.058 288.741 599.307 291.931C606.311 301.787 613.912 309.904 615.221 317.567C615.478 319.105 615.905 320.757 616.446 322.466C616.987 324.232 617.67 326.083 618.467 327.992C621.428 335.169 625.869 343.23 630.31 350.551C637.968 363.198 645.171 373.765 645.171 373.765L658.381 373.138C657.84 371.657 652.089 354.197 644.403 332.834C641.271 324.175 637.94 314.946 634.751 306.059C634.324 304.863 633.897 303.695 633.47 302.527C632.502 299.793 631.534 297.115 630.595 294.523C623.364 274.471 617.613 258.491 617.613 258.491C617.613 258.491 588.716 246.272 585.699 254.19C583.165 260.713 585.186 267.093 592.958 281.791Z" fill="#599DAD"/>
<path d="M617.244 359.551C617.244 359.551 612.404 364.023 613.344 367.213C614.283 370.404 618.639 372.511 619.237 376.414C619.835 380.316 622.198 382.424 624.304 382.424C626.411 382.424 634.411 382.424 634.411 382.424C634.411 382.424 635.977 379.689 632.19 378.863C628.404 378.037 626.981 373.451 627.237 369.207C627.464 364.963 626.895 359.295 626.895 359.295L618.867 357.415L617.244 359.551Z" fill="#233862"/>
<path d="M621.514 256.981C621.514 256.981 651.92 306.344 651.92 310.275C651.92 318.962 628.945 368.98 628.945 368.98C628.945 368.98 616.732 362.542 617.244 358.013C617.244 358.013 624.561 322.893 626.696 317.253C628.831 311.613 588.262 290.336 586.127 264.644L621.514 256.981Z" fill="#6BB7BF"/>
<path d="M636.431 231.573C636.431 231.573 642.695 235.134 644.46 235.134C646.225 235.134 653.114 233.795 655.022 234.792C656.929 235.76 660.431 239.72 661.086 241.03C662.253 243.366 656.36 242.34 653.57 240.346C653.171 240.061 652.659 239.947 652.175 240.061C650.723 240.375 647.734 240.916 646.282 240.375C644.346 239.663 634.068 238.865 634.068 238.865L636.431 231.573Z" fill="#E49963"/>
<path d="M588.689 182.98C588.689 182.98 595.18 229.238 605.97 233.368C611.294 235.419 634.753 240.033 641.699 240.517C641.699 240.517 643.408 239.15 642.981 233.51C642.981 233.51 618.383 224.481 614.881 219.553C609.671 212.233 618.098 189.674 611.579 182.809C605.088 175.916 594.099 172.982 588.689 182.98Z" fill="#3C597E"/>
<path d="M614.111 180.047C605.428 182.297 590.994 174.236 590.994 174.236C590.994 174.236 596.603 170.476 598.652 162.216C598.766 161.789 598.852 161.361 598.937 160.934C599.848 160.735 601.556 160.364 603.407 159.994L610.04 165.947C610.04 165.947 609.898 168.425 609.044 172.669C608.901 173.41 608.731 174.208 608.531 175.062C612.147 177.255 614.111 180.047 614.111 180.047Z" fill="#E49963"/>
<path d="M581.828 216.107C583.08 232.855 581.429 258.348 582.853 262.763C584.077 266.58 597.97 264.301 603.493 263.048C605.543 262.564 608.019 261.909 610.61 261.111C617.784 258.89 625.585 255.728 626.411 253.364C626.439 253.278 626.468 253.193 626.496 253.079C626.582 252.737 626.553 252.424 626.468 252.082C626.183 250.886 625.101 249.575 624.987 246.613C624.845 243.309 624.873 239.407 624.731 235.191C624.731 234.707 624.731 234.194 624.674 233.738V233.567C624.674 233.482 624.674 233.397 624.674 233.311C624.56 228.64 624.304 223.712 624.019 218.841C623.848 215.765 623.621 212.746 623.393 209.84C622.767 202.321 621.941 195.656 620.802 191.44C618.98 184.575 614.966 180.075 611.322 176.799L608.674 174.521C605.713 175.176 602.24 174.748 599.08 173.239C595.664 171.615 594.497 170.447 593.899 170.903C586.013 176.999 580.347 195.627 581.828 216.107Z" fill="#486C98"/>
<path d="M610.581 261.083C617.755 258.861 625.556 255.7 626.382 253.336C626.41 253.25 626.439 253.165 626.467 253.051C626.467 252.709 626.467 252.396 626.439 252.054C626.154 250.857 625.072 249.547 624.958 246.585C624.816 243.281 624.844 239.379 624.702 235.163C624.702 234.679 624.702 234.166 624.645 233.71V233.539C624.645 233.454 624.645 233.368 624.645 233.283L595.692 196.396C595.72 196.425 576.247 236.986 610.581 261.083Z" fill="#3C597E"/>
<path d="M610.069 165.947C610.069 165.947 609.926 168.425 609.072 172.669C602.581 170.562 599.649 164.722 598.652 162.216C598.766 161.789 598.852 161.361 598.937 160.934C599.848 160.735 601.556 160.364 603.407 159.994L610.069 165.947Z" fill="#D68D5D"/>
<path d="M610.951 169.678C610.951 169.678 596.802 167.314 598.425 158.541C600.019 149.768 599.279 143.53 608.389 144.669C617.471 145.809 618.609 149.483 618.809 152.531C618.951 155.607 614.681 170.077 610.951 169.678Z" fill="#E49963"/>
<path d="M666.606 244.872L667.852 245.277L678.468 212.609L677.222 212.204L666.606 244.872Z" fill="#4A75CB"/>
<path d="M631.835 244.507L667.842 245.276L667.888 243.112L631.881 242.343L631.835 244.507Z" fill="#4A75CB"/>
<path d="M632.561 246.243C632.561 246.243 644.119 249.291 648.475 248.977C652.802 248.664 656.418 246.585 656.959 245.502C657.5 244.42 658.639 242.511 655.706 242.853C652.745 243.195 648.731 243.822 648.589 243.281C648.475 242.711 651.009 242.768 651.009 242.768C651.009 242.768 651.777 241.657 650.809 241.6C649.841 241.571 647.023 240.802 645.998 241.315C644.945 241.828 643.977 243.765 643.237 243.679C642.468 243.594 633.557 239.663 633.557 239.663L632.561 246.243Z" fill="#E49963"/>
<path d="M591.564 184.86C591.564 184.86 592.931 231.545 603.18 236.843C608.248 239.464 631.051 246.642 637.913 247.895C637.913 247.895 639.763 246.699 639.962 241.087C639.962 241.087 616.504 229.38 613.571 224.111C609.215 216.278 620.062 194.773 614.34 187.224C608.618 179.676 598.027 175.518 591.564 184.86Z" fill="#486C98"/>
<path d="M598.682 162.216C598.682 162.216 598.511 159.196 600.39 157.487C600.39 157.487 599.735 154.468 600.931 153.955C602.127 153.471 602.383 156.006 602.924 155.607C603.465 155.209 605.913 153.329 606.967 150.537C608.02 147.746 617.586 151.135 618.696 151.62C619.806 152.104 623.393 150.281 624.105 148.771C624.105 148.771 622.112 147.176 621.23 145.98C620.347 144.783 614.055 136.723 605.287 139.001C596.518 141.28 595.323 145.467 595.835 149.056C596.291 152.673 595.095 161.019 598.682 162.216Z" fill="#5E441F"/>
<path d="M584.704 263.503L557.316 246.983C555.039 245.587 553.757 243.023 553.957 240.374C554.241 236.985 554.384 233.567 554.384 230.12C554.384 223.683 553.928 217.416 552.96 211.292C552.505 208.415 553.786 205.596 556.263 204.143L584.874 186.853C587.949 185.03 589.088 181.128 587.494 177.881L574.028 150.451C572.49 147.346 568.903 145.922 565.658 147.061L536.733 157.572C533.943 158.654 530.754 157.714 528.875 155.265C520.932 144.954 511.31 135.953 500.463 128.604C497.844 126.809 496.762 123.391 497.844 120.429L504.278 102.826C505.473 99.465 503.993 95.7051 500.776 94.1101L473.531 80.7796C472.961 80.4948 472.42 80.2954 471.823 80.1815C469.033 79.5833 466.072 80.8366 464.563 83.4001L452.207 103.852L449.218 108.836C443.609 108.039 437.802 107.611 431.994 107.611C424.136 107.611 416.421 108.352 409.019 109.748C406.201 110.26 403.325 109.036 401.873 106.557L387.98 83.4856C386.073 80.3524 382.087 79.1561 378.813 80.8081L357.831 91.1193L351.824 94.0816C348.55 95.6767 346.984 99.522 348.237 102.94L357.006 127.123C358.059 129.914 357.205 133.047 354.899 134.87C348.095 140.425 341.888 146.663 336.451 153.527C335.938 154.097 335.511 154.638 335.056 155.236C334.913 155.436 334.742 155.607 334.572 155.806C332.664 157.857 329.675 158.54 327.027 157.543L298.444 147.175C298.131 147.033 297.789 146.976 297.476 146.891C294.401 146.264 291.184 147.802 289.761 150.65L276.437 177.824C274.843 181.1 275.982 185.059 279.113 186.967L307.697 204.171C310.145 205.596 311.398 208.387 310.942 211.178C310.003 217.331 309.519 223.654 309.519 230.092C309.519 233.51 309.661 236.899 309.946 240.26C310.145 242.995 308.835 245.615 306.501 247.011L278.999 263.617C275.953 265.44 274.814 269.314 276.38 272.533L289.732 299.649C291.327 302.925 295.142 304.491 298.643 303.238L321.533 294.921C324.607 293.81 327.995 294.921 329.789 297.598C336.792 308.251 345.447 317.708 355.354 325.712C357.717 327.563 358.628 330.782 357.575 333.63L348.237 359.408C346.984 362.855 348.55 366.7 351.824 368.352L378.87 381.654C382.116 383.249 386.044 382.081 387.866 379.005L388.607 377.809L402.955 354.025C404.492 351.49 407.396 350.179 410.329 350.721H410.357C417.361 351.974 424.592 352.629 431.994 352.629C435.923 352.629 439.823 352.43 443.695 352.059C446.371 351.774 448.962 353.085 450.357 355.363L464.449 378.777C466.356 381.996 470.456 383.164 473.758 381.54L500.776 368.238C501.545 367.868 502.199 367.327 502.769 366.785C504.562 364.905 505.217 362.086 504.306 359.522L497.246 340.21C496.42 337.846 496.904 335.168 498.47 333.288C498.897 332.804 499.381 332.348 499.922 331.95C513.53 322.863 525.146 311.185 534.199 297.513C535.708 295.177 538.498 294.066 541.174 294.522C541.544 294.579 541.943 294.693 542.313 294.835L565.458 303.238C568.818 304.463 572.547 302.953 574.142 299.735L574.455 299.108L587.465 272.646C589.06 269.399 587.864 265.44 584.704 263.503ZM368.45 211.321C369.788 206.621 371.582 201.836 373.973 197.05C378.5 187.936 389.717 176.656 398.856 172.156C399.824 171.671 400.82 171.216 401.788 170.76C461.602 143.871 519.281 202.633 490.271 262.506C486.456 270.339 478.057 279.511 469.858 285.208C467.951 286.49 466.043 287.657 464.278 288.483C455.937 292.528 447.624 294.921 439.538 295.804C393.389 300.931 355.44 258.518 368.45 211.321Z" fill="#AFCDFB"/>
<path d="M587.408 355.905L581.287 352.23C580.775 351.917 580.49 351.347 580.547 350.749C580.604 349.98 580.632 349.239 580.632 348.47C580.632 347.046 580.518 345.622 580.319 344.283C580.205 343.657 580.518 343.002 581.059 342.688L587.436 338.843C588.12 338.444 588.376 337.561 588.034 336.849L585.016 330.725C584.675 330.041 583.878 329.7 583.137 329.956L576.675 332.292C576.049 332.519 575.337 332.32 574.91 331.779C573.145 329.472 570.981 327.478 568.561 325.826C567.963 325.427 567.736 324.658 567.963 324.003L569.387 320.072C569.643 319.331 569.33 318.477 568.618 318.135L562.526 315.173C562.412 315.116 562.269 315.059 562.156 315.03C561.529 314.888 560.874 315.173 560.533 315.743L557.771 320.3L557.088 321.411C555.835 321.24 554.554 321.126 553.245 321.126C551.48 321.126 549.771 321.297 548.12 321.61C547.494 321.724 546.839 321.468 546.526 320.898L543.423 315.743C542.996 315.03 542.113 314.774 541.373 315.144L536.704 317.452L535.366 318.107C534.626 318.477 534.284 319.331 534.569 320.072L536.533 325.484C536.761 326.111 536.59 326.823 536.078 327.222C534.569 328.446 533.174 329.842 531.95 331.38C531.836 331.494 531.75 331.636 531.636 331.75C531.608 331.807 531.579 331.836 531.522 331.864C531.095 332.32 530.441 332.463 529.843 332.263L523.466 329.956C523.409 329.927 523.323 329.899 523.238 329.899C522.555 329.757 521.843 330.098 521.53 330.753L518.569 336.821C518.199 337.561 518.455 338.444 519.167 338.871L525.544 342.717C526.085 343.03 526.37 343.657 526.256 344.283C526.056 345.651 525.942 347.075 525.942 348.499C525.942 349.268 525.971 350.009 526.028 350.778C526.085 351.376 525.772 351.974 525.259 352.287L519.11 355.99C518.427 356.389 518.17 357.272 518.512 357.984L521.501 364.051C521.871 364.792 522.697 365.133 523.494 364.849L528.59 362.997C529.273 362.741 530.042 362.997 530.441 363.595C532.006 365.959 533.942 368.096 536.163 369.862C536.704 370.289 536.903 371.001 536.647 371.628L534.569 377.381C534.284 378.151 534.626 379.005 535.366 379.375L541.401 382.338C542.113 382.708 542.996 382.423 543.423 381.739L543.594 381.483L546.782 376.185C547.124 375.615 547.779 375.331 548.433 375.445C549.999 375.729 551.622 375.872 553.273 375.872C554.156 375.872 555.01 375.815 555.892 375.758C556.49 375.701 557.06 375.986 557.373 376.498L560.533 381.739C560.96 382.452 561.871 382.708 562.611 382.366L568.647 379.404C568.817 379.318 568.96 379.204 569.102 379.09C569.501 378.663 569.643 378.037 569.444 377.467L567.878 373.166C567.679 372.625 567.792 372.055 568.163 371.628C568.248 371.514 568.362 371.428 568.476 371.343C571.522 369.321 574.113 366.7 576.134 363.652C576.476 363.14 577.102 362.883 577.7 362.969C577.785 362.997 577.871 362.997 577.956 363.026L583.109 364.906C583.849 365.19 584.703 364.849 585.045 364.137L585.102 363.994L588.006 358.098C588.404 357.215 588.12 356.332 587.408 355.905ZM539.152 344.255C539.437 343.201 539.864 342.147 540.376 341.065C541.401 339.042 543.878 336.507 545.928 335.51C546.156 335.396 546.355 335.311 546.583 335.197C559.935 329.187 572.803 342.318 566.341 355.677C565.486 357.414 563.607 359.465 561.785 360.747C561.358 361.032 560.931 361.288 560.533 361.488C558.682 362.399 556.832 362.912 555.01 363.111C544.732 364.25 536.248 354.794 539.152 344.255Z" fill="#4D52E6"/>
<path d="M787.945 241.827L778.778 236.301C778.009 235.846 777.582 234.991 777.668 234.108C777.753 232.969 777.81 231.829 777.81 230.662C777.81 228.525 777.668 226.418 777.326 224.367C777.184 223.398 777.611 222.458 778.436 221.974L788.002 216.192C789.027 215.594 789.425 214.283 788.885 213.201L784.386 204.029C783.874 203.004 782.678 202.52 781.596 202.89L771.917 206.393C770.977 206.764 769.924 206.45 769.298 205.624C766.65 202.178 763.433 199.159 759.789 196.709C758.906 196.111 758.565 194.971 758.906 193.975L761.041 188.078C761.44 186.968 760.956 185.686 759.874 185.145L750.764 180.673C750.565 180.587 750.394 180.502 750.195 180.473C749.255 180.274 748.259 180.701 747.775 181.556L743.647 188.392L742.65 190.072C740.771 189.816 738.835 189.673 736.871 189.673C734.252 189.673 731.661 189.93 729.184 190.386C728.245 190.556 727.277 190.158 726.793 189.332L722.152 181.613C721.498 180.559 720.188 180.16 719.078 180.701L712.074 184.148L710.053 185.145C708.943 185.686 708.43 186.968 708.857 188.107L711.789 196.196C712.131 197.136 711.846 198.19 711.078 198.788C708.8 200.64 706.722 202.748 704.9 205.026C704.729 205.226 704.587 205.397 704.444 205.596C704.387 205.653 704.331 205.738 704.274 205.795C703.619 206.479 702.651 206.707 701.74 206.365L692.174 202.89C692.06 202.833 691.946 202.833 691.861 202.805C690.836 202.605 689.754 203.118 689.27 204.058L684.8 213.144C684.26 214.255 684.658 215.565 685.712 216.192L695.277 221.946C696.103 222.43 696.501 223.37 696.359 224.281C696.046 226.332 695.875 228.44 695.875 230.605C695.875 231.744 695.932 232.883 696.017 233.994C696.074 234.906 695.647 235.789 694.85 236.244L685.655 241.799C684.63 242.397 684.26 243.707 684.772 244.79L689.242 253.876C689.783 254.987 691.064 255.5 692.231 255.072L699.889 252.281C700.914 251.911 702.053 252.281 702.651 253.192C704.985 256.753 707.889 259.915 711.22 262.592C712.017 263.219 712.33 264.273 711.96 265.241L708.829 273.872C708.402 275.039 708.943 276.321 710.024 276.862L719.078 281.306C720.159 281.847 721.469 281.448 722.095 280.423L722.352 280.024L727.163 272.077C727.675 271.223 728.643 270.795 729.611 270.966C731.946 271.393 734.366 271.621 736.843 271.621C738.152 271.621 739.462 271.564 740.743 271.422C741.654 271.337 742.508 271.764 742.963 272.533L747.689 280.366C748.344 281.448 749.711 281.847 750.793 281.277L759.817 276.834C760.074 276.691 760.301 276.521 760.472 276.35C761.07 275.723 761.298 274.783 760.985 273.929L758.622 267.463C758.337 266.665 758.508 265.782 759.02 265.156C759.163 264.985 759.333 264.842 759.504 264.7C764.059 261.652 767.931 257.75 770.977 253.192C771.49 252.423 772.401 252.025 773.312 252.195C773.454 252.224 773.568 252.252 773.71 252.309L781.454 255.129C782.564 255.528 783.817 255.044 784.358 253.961L784.472 253.762L788.828 244.904C789.397 243.821 788.998 242.482 787.945 241.827ZM715.604 224.395C716.06 222.829 716.658 221.205 717.455 219.61C718.964 216.562 722.722 212.802 725.768 211.293C726.081 211.122 726.423 210.979 726.736 210.837C746.75 201.836 766.024 221.49 756.344 241.514C755.063 244.134 752.273 247.211 749.511 249.091C748.857 249.518 748.23 249.917 747.632 250.202C744.842 251.569 742.052 252.338 739.348 252.651C723.974 254.36 711.277 240.175 715.604 224.395Z" fill="#D6D6D6"/>
<path d="M355.268 69.7566L345.56 65.2561C344.763 64.8859 344.222 64.0598 344.222 63.1768C344.194 62.0375 344.108 60.8981 343.994 59.7588C343.767 57.6225 343.396 55.5432 342.827 53.5493C342.571 52.6093 342.912 51.6409 343.681 51.0427L352.564 44.2636C353.532 43.5515 353.759 42.2128 353.104 41.1874L347.638 32.5568C347.012 31.5883 345.759 31.2465 344.734 31.7307L335.482 36.2597C334.599 36.7154 333.489 36.516 332.777 35.7754C329.76 32.6422 326.258 29.9932 322.358 27.9424C321.418 27.4582 320.934 26.3473 321.19 25.3219L322.699 19.2263C322.984 18.0585 322.358 16.8622 321.219 16.4634L311.682 13.0169C311.482 12.9314 311.283 12.9029 311.084 12.8745C310.144 12.789 309.205 13.3017 308.778 14.2132L305.475 21.4481L304.65 23.2141C302.742 23.1571 300.806 23.2141 298.87 23.4419C296.251 23.7268 293.717 24.2395 291.297 24.9801C290.386 25.2649 289.39 24.9516 288.792 24.1825L283.354 17.0046C282.614 16.0362 281.248 15.7798 280.194 16.4349L273.589 20.6221L271.711 21.8184C270.686 22.4735 270.287 23.8122 270.828 24.8946L274.614 32.6137C275.07 33.4967 274.899 34.5791 274.187 35.2627C272.138 37.342 270.287 39.6492 268.721 42.1273C268.579 42.3267 268.437 42.5261 268.323 42.754C268.294 42.8394 268.237 42.8964 268.18 42.9533C267.611 43.6939 266.643 44.0357 265.732 43.8079L255.853 41.3867C255.739 41.3583 255.625 41.3298 255.511 41.3298C254.458 41.2443 253.462 41.871 253.092 42.8679L249.675 52.3815C249.248 53.5208 249.789 54.8026 250.899 55.3153L261.034 60.0151C261.889 60.4139 262.429 61.2969 262.373 62.2369C262.287 64.3162 262.344 66.424 262.572 68.5888C262.686 69.7281 262.857 70.839 263.084 71.9498C263.255 72.8613 262.913 73.7728 262.173 74.314L253.632 80.8368C252.693 81.5489 252.437 82.8876 253.092 83.8845L258.501 92.4297C259.156 93.4551 260.465 93.8539 261.575 93.3127L268.892 89.7237C269.86 89.2395 271.027 89.4958 271.739 90.3219C274.444 93.5975 277.661 96.4459 281.248 98.7531C282.102 99.2943 282.529 100.32 282.273 101.317L280.08 110.232C279.796 111.428 280.451 112.653 281.589 113.08L291.07 116.527C292.208 116.954 293.49 116.413 293.974 115.331L294.173 114.903L298.073 106.472C298.5 105.561 299.411 105.048 300.408 105.105C302.799 105.276 305.219 105.219 307.667 104.963C308.977 104.82 310.258 104.621 311.539 104.364C312.422 104.165 313.333 104.507 313.874 105.219L319.397 112.511C320.137 113.508 321.56 113.764 322.585 113.08L331.098 107.697C331.325 107.555 331.553 107.355 331.695 107.127C332.208 106.444 332.35 105.475 331.952 104.649L328.905 98.4967C328.535 97.7277 328.621 96.8447 329.076 96.1611C329.19 95.9902 329.333 95.8193 329.503 95.6768C333.688 92.1733 337.133 87.8723 339.667 83.0015C340.094 82.1755 340.977 81.6913 341.888 81.7483C342.03 81.7483 342.144 81.7767 342.286 81.8052L350.286 83.7706C351.453 84.0555 352.62 83.4288 353.048 82.2895L353.133 82.0616L356.521 72.8044C356.948 71.5511 356.407 70.2693 355.268 69.7566ZM281.475 60.2145C281.76 58.5909 282.187 56.9389 282.785 55.2583C283.952 52.0682 287.283 47.9095 290.159 46.0866C290.472 45.8872 290.785 45.7163 291.07 45.5169C310.002 34.4082 331.297 51.8688 323.809 72.8328C322.813 75.5673 320.365 78.9284 317.831 81.1216C317.233 81.6343 316.664 82.0616 316.094 82.4034C313.475 84.0554 310.799 85.1378 308.123 85.736C293.006 89.0971 278.856 76.3648 281.475 60.2145Z" fill="#D6D6D6"/>
<path d="M414.258 343.143C414.827 343.799 414.884 344.511 414.628 345.28C414.115 346.704 412.407 348.299 410.414 349.894C410.158 350.094 409.93 350.293 409.731 350.464C409.674 350.521 409.617 350.549 409.589 350.606C409.56 350.635 409.503 350.692 409.475 350.72C407.624 352.429 408.308 352.828 405.005 356.275C401.219 360.234 398.6 360.291 397.859 359.92C397.233 359.607 398.514 357.528 399.909 355.164C399.966 355.05 400.052 354.936 400.108 354.822C400.308 354.509 400.479 354.195 400.678 353.882C402.329 351.062 401.902 349.723 401.503 345.508C401.19 342.09 396.18 326.367 396.18 326.367L403.439 325.113C403.439 325.113 405.632 337.618 408.051 339.555C409.333 340.58 410.784 340.58 412.009 341.349C412.094 341.406 412.179 341.463 412.265 341.52C412.977 342.004 413.688 342.488 414.258 343.143Z" fill="#E49963"/>
<path d="M414.258 343.144C414.827 343.799 414.884 344.511 414.628 345.28C414.002 346.705 412.322 348.3 410.414 349.895C410.158 350.094 409.93 350.294 409.76 350.464C409.703 350.521 409.646 350.55 409.617 350.607C409.589 350.635 409.532 350.692 409.503 350.721C407.653 352.43 408.336 352.829 405.034 356.275C401.247 360.234 398.628 360.291 397.888 359.921C397.262 359.608 398.543 357.528 399.938 355.164C400.678 354.908 404.094 353.512 406.685 350.18C408.962 347.274 410.5 343.514 412.037 341.35C412.123 341.407 412.208 341.464 412.293 341.521C412.977 342.005 413.688 342.489 414.258 343.144Z" fill="#C65447"/>
<path d="M355.667 338.614C355.211 340.865 352.023 340.494 348.436 339.611C344.877 338.728 345.703 339.782 340.635 339.212C335.539 338.643 334.002 336.763 333.859 335.994C333.717 335.31 336.222 335.082 338.927 334.769C339.269 334.741 339.61 334.684 339.952 334.655C342.998 334.285 345.219 332.319 347.98 330.696C350.599 329.158 354.5 322.948 354.5 322.948L361.475 323.489C361.475 323.489 357.831 329.044 356.407 331.465C355.581 332.889 355.61 334.769 355.724 336.222C355.781 337.019 355.809 337.817 355.667 338.614Z" fill="#E49963"/>
<path d="M348.436 339.612C344.877 338.729 345.703 339.783 340.635 339.213C335.539 338.643 334.002 336.763 333.859 335.994C333.717 335.311 336.222 335.083 338.927 334.77L338.955 334.826C338.955 334.826 342.002 336.991 346.243 337.077C349.688 337.162 353.332 336.165 355.724 336.222C355.781 337.02 355.838 337.817 355.667 338.615C355.211 340.865 352.023 340.466 348.436 339.612Z" fill="#C65447"/>
<path d="M371.182 236.158C371.182 236.158 369.531 232.085 367.68 231.914C365.858 231.743 360.051 230.832 359.623 231.658C359.196 232.484 359.623 235.474 360.876 236.557C362.129 237.639 369.844 239.377 369.844 239.377L371.182 236.158Z" fill="#E49963"/>
<path d="M382.371 294.009L397.403 334.456C397.403 334.456 399.709 334.684 401.93 334.029C403.979 333.431 406.285 331.893 406.285 331.893C406.285 331.893 402.556 293.041 395.723 284.98C388.891 276.919 382.371 294.009 382.371 294.009Z" fill="#AA413E"/>
<path d="M441.815 277.631C441.815 277.631 398.656 263.019 389.005 266.123C379.382 269.228 350.457 326.765 350.457 326.765C350.457 326.765 351.112 327.62 352.877 328.303C354.528 328.93 358.542 328.873 358.542 328.873C358.542 328.873 384.62 306.485 387.752 299.962C390.855 293.439 392.108 287.23 395.211 287.856C398.314 288.483 435.267 303.095 443.666 294.379C452.064 285.692 449.872 274.384 449.872 274.384L441.815 277.631Z" fill="#C65447"/>
<path d="M415.424 209.697C414.741 208.273 413.973 205.738 413.574 201.237C413.631 201.693 414.4 207.361 416.592 210.58C425.56 216.476 442.784 236.158 442.442 239.89C442.442 239.89 448.506 229.607 448.62 229.55C448.62 229.55 459.808 215.337 446.542 207.162C439.794 203.032 439.851 197.705 440.136 193.091C440.421 188.477 438.285 168.595 424.819 173.807C424.819 173.807 422.656 172.839 421.688 172.981C421.688 172.981 422.485 173.124 422.883 173.551C421.318 173.466 419.097 173.58 417.218 174.633C412.236 177.453 407.823 202.69 415.424 209.697Z" fill="#5E441F"/>
<path d="M417.131 210.894C417.074 210.922 421.459 213.201 424.761 212.289C427.864 211.435 429.886 207.419 429.829 207.419C428.519 207.162 428.149 205.339 428.178 197.592L427.58 197.706L417.615 199.671C417.615 199.671 417.843 202.804 417.843 205.767C417.843 208.273 417.701 210.609 417.131 210.894Z" fill="#E49963"/>
<path d="M417.617 199.671C417.617 199.671 417.845 202.804 417.845 205.766C423.425 205.595 426.386 200.525 427.581 197.677L417.617 199.671Z" fill="#D68D5D"/>
<path d="M428.634 196.623C428.634 196.623 431.567 192.009 432.25 188.05C432.762 185.23 431.311 174.748 420.805 176.257C420.805 176.257 417.759 176.571 414.884 178.507C412.606 180.046 409.304 183.378 413.005 192.521L413.973 195.598L428.634 196.623Z" fill="#5E441F"/>
<path d="M415.766 202.462C415.766 202.462 428.976 202.69 428.976 194.458C428.976 186.226 430.684 180.7 422.257 180.216C413.83 179.732 412.179 182.865 411.524 185.628C410.841 188.362 412.321 202.205 415.766 202.462Z" fill="#E49963"/>
<path d="M416.25 180.017C416.25 180.017 419.866 189.673 425.417 191.097C430.969 192.521 433.36 191.04 433.36 191.04C433.36 191.04 429.09 187.65 428.207 181.754C428.236 181.754 418.983 175.431 416.25 180.017Z" fill="#5E441F"/>
<path d="M417.133 180.815C417.133 180.815 414.428 182.979 413.774 185.059C413.119 187.167 412.806 191.468 411.553 191.325C411.553 191.325 408.82 184.774 411.895 181.042C415.14 177.112 417.133 180.815 417.133 180.815Z" fill="#5E441F"/>
<path d="M446.542 246.441C447.852 240.972 443.41 230.376 438.798 221.603C434.613 213.656 430.258 207.19 429.859 207.418C418.784 213.998 417.788 208.529 417.788 208.529C417.788 208.529 407.738 209.868 404.891 214.767C400.963 221.546 396.664 241.883 392.45 241.598C390.514 241.456 371.041 234.136 371.041 234.136C371.041 234.136 367.796 237.184 368.422 240.915C368.422 240.915 378.045 247.352 386.158 251.454C390.457 253.619 394.329 255.157 396.18 254.73C399.881 253.847 405.66 245.273 408.792 240.203C408.792 240.203 408.792 240.174 408.82 240.174C412.806 262.762 407.397 267.918 410.13 270.282C413.034 272.788 417.162 269.085 426.272 273.045C432.25 275.637 440.535 279.396 446.115 280.052C449.047 280.393 451.239 279.881 451.951 277.915C454.001 272.133 444.065 256.837 446.542 246.441Z" fill="#699DEE"/>
<path d="M418.698 197.478C418.698 197.478 418.442 198.531 415.851 198.361C415.851 198.361 413.659 198.218 413.745 197.079C413.716 197.079 415.851 196.281 418.698 197.478Z" fill="white"/>
<path d="M451.923 277.859C451.211 279.825 449.019 280.337 446.087 279.996C442.215 278.315 425.532 271.849 425.702 267.463C425.987 260.968 428.92 260.769 426.841 252.765C425.19 246.328 440.592 234.364 443.069 231.772C447.681 240.545 447.823 240.973 446.514 246.442C444.065 256.838 454.001 272.134 451.923 277.859Z" fill="#4A75CB"/>
<path d="M408.762 240.175C405.63 245.216 399.851 253.818 396.15 254.701C394.328 255.129 390.428 253.619 386.129 251.426C389.261 252.223 392.307 252.223 395.268 251.938C398.485 251.625 399.396 247.694 404.492 241.798C407.794 237.953 408.62 238.921 408.762 240.175Z" fill="#4A75CB"/>
<path d="M424.25 252.622C424.25 252.622 421.46 250.457 418.812 250.97C416.165 251.483 414.883 253.306 414.969 254.132C415.083 254.958 416.478 257.294 418.499 257.493C420.52 257.692 426.271 256.24 426.271 256.24L424.25 252.622Z" fill="#E49963"/>
<path d="M429.857 207.39C429.857 207.39 440.619 208.045 444.348 213.257C449.587 220.578 458.697 250.457 456.22 257.293L423.48 257.151C423.48 257.151 422.683 253.448 423.793 251.653C424.904 249.859 442.839 246.954 443.665 246.128C444.491 245.302 433.302 229.977 433.302 227.471C433.302 224.993 429.857 207.39 429.857 207.39Z" fill="#699DEE"/>
<path d="M414.228 242.311H374.627L381.773 267.234H421.431L414.228 242.311Z" fill="#1C468A"/>
<path d="M433.759 266.266H381.916V267.234H433.759V266.266Z" fill="#163560"/>
<path d="M397.546 254.359C397.289 253.476 396.378 252.764 395.496 252.764C394.613 252.764 394.101 253.476 394.357 254.359C394.613 255.242 395.524 255.954 396.407 255.954C397.289 255.954 397.802 255.242 397.546 254.359Z" fill="#163560"/>
<path d="M267.812 312.838V323.405C267.812 325.598 266.018 327.364 263.855 327.364H201.393C199.201 327.364 197.436 325.57 197.436 323.405V312.838C197.436 310.644 199.229 308.878 201.393 308.878H263.855C266.018 308.85 267.812 310.644 267.812 312.838Z" fill="#ABABAB"/>
<path d="M267.812 321.468V323.405C267.812 325.598 266.018 327.364 263.855 327.364H201.393C199.201 327.364 197.436 325.569 197.436 323.405V321.325H266.673C267.072 321.325 267.442 321.382 267.812 321.468Z" fill="#969696"/>
<path d="M212.467 327.364L209.649 338.045L197.919 382.451H196.695L203.471 345.622C203.471 345.593 203.499 345.536 203.499 345.508L206.859 327.278L212.467 327.364Z" fill="#E8C6A7"/>
<path d="M212.468 327.364L209.649 338.045C209.479 338.131 204.354 340.78 203.5 345.508L206.859 327.278L212.468 327.364Z" fill="#C69D7B"/>
<path d="M267.812 382.451H266.588L257.051 346.277L254.887 338.045L252.068 327.364L257.705 327.278L259.613 337.703L261.036 345.508C261.036 345.536 261.065 345.593 261.065 345.622L267.812 382.451Z" fill="#E8C6A7"/>
<path d="M248.766 341.351C248.737 341.264 248.737 341.293 248.766 341.351V341.351Z" fill="#E8C6A7"/>
<path d="M259.583 337.675C258.559 339.185 257.107 342.033 257.021 346.249L254.858 338.017L252.039 327.335L257.676 327.25L259.583 337.675Z" fill="#C69D7B"/>
<path d="M188.865 100.748C190.317 99.2379 191.314 99.8075 191.314 99.8075C191.314 99.8075 208.452 112.967 210.103 113.935C211.726 114.904 234.046 115.531 234.046 115.531C234.046 115.531 242.985 115.417 245.149 120.003C247.028 123.99 245.69 127.408 243.754 129.943C241.448 132.934 237.491 134.187 233.847 133.134C225.676 130.741 209.42 125.87 206.374 124.019C199.598 119.889 187.385 103.34 187.385 103.34C187.385 103.34 187.698 101.944 188.865 100.748Z" fill="#599DAD"/>
<path d="M207.314 87.9578L198.744 82.8023C198.033 82.375 197.634 81.5775 197.691 80.7515C197.776 79.6976 197.833 78.6152 197.833 77.5328C197.833 75.5389 197.691 73.5735 197.378 71.6651C197.235 70.7821 197.634 69.8991 198.403 69.4149L207.342 64.003C208.31 63.4333 208.652 62.2085 208.168 61.2116L203.954 52.638C203.47 51.6695 202.36 51.2138 201.335 51.5841L192.31 54.8597C191.428 55.2015 190.46 54.9167 189.862 54.1476C187.385 50.9289 184.367 48.109 180.979 45.8018C180.154 45.2322 179.812 44.1783 180.154 43.2383L182.147 37.7409C182.517 36.687 182.061 35.5192 181.065 35.0065L172.552 30.8479C172.382 30.7624 172.211 30.7054 172.012 30.6485C171.129 30.4491 170.218 30.8479 169.734 31.6454L165.862 38.0258L164.923 39.5924C163.158 39.336 161.364 39.2221 159.542 39.2221C157.094 39.2221 154.674 39.45 152.368 39.8772C151.485 40.0481 150.603 39.6493 150.119 38.8803L145.791 31.6739C145.193 30.7054 143.941 30.3351 142.916 30.8479L136.368 34.0665L134.489 35.0065C133.464 35.5192 132.98 36.7155 133.379 37.7694L136.112 45.3176C136.425 46.2006 136.169 47.1691 135.457 47.7387C133.322 49.4763 131.386 51.4132 129.678 53.5494C129.507 53.7203 129.393 53.8912 129.25 54.0906C129.194 54.1476 129.165 54.2046 129.108 54.2615C128.51 54.9167 127.571 55.116 126.745 54.8027L117.806 51.5556C117.72 51.4986 117.607 51.4986 117.493 51.4701C116.525 51.2707 115.528 51.755 115.073 52.638L110.916 61.1261C110.404 62.1515 110.774 63.3763 111.742 63.9745L120.681 69.3579C121.45 69.8137 121.848 70.6682 121.706 71.5512C121.421 73.4596 121.251 75.4535 121.251 77.4758C121.251 78.5582 121.308 79.6121 121.393 80.6375C121.45 81.492 121.051 82.3181 120.311 82.7453L111.799 88.0148C110.859 88.5845 110.489 89.7808 110.973 90.8062L115.158 99.2944C115.671 100.32 116.838 100.804 117.948 100.405L125.094 97.8132C126.062 97.4714 127.115 97.8132 127.685 98.6393C129.877 101.972 132.581 104.934 135.685 107.412C136.425 107.982 136.709 109.007 136.396 109.89L133.464 117.951C133.065 119.034 133.549 120.23 134.574 120.743L143.03 124.901C144.055 125.414 145.279 125.044 145.848 124.075L146.076 123.705L150.546 116.271C151.03 115.473 151.941 115.074 152.852 115.245C155.044 115.644 157.293 115.843 159.599 115.843C160.823 115.843 162.047 115.787 163.243 115.673C164.069 115.587 164.894 115.986 165.321 116.698L169.734 124.018C170.332 125.015 171.613 125.386 172.638 124.873L181.065 120.714C181.293 120.6 181.52 120.429 181.691 120.258C182.26 119.66 182.46 118.777 182.175 117.98L179.983 111.941C179.727 111.201 179.869 110.375 180.353 109.776C180.495 109.634 180.638 109.492 180.809 109.349C185.05 106.501 188.695 102.855 191.513 98.5823C191.969 97.8417 192.851 97.4999 193.705 97.6423C193.819 97.6708 193.933 97.6993 194.075 97.7278L201.306 100.348C202.36 100.719 203.527 100.263 204.011 99.2659L204.097 99.0665L208.168 90.8062C208.68 89.8093 208.31 88.556 207.314 87.9578ZM139.756 71.6651C140.183 70.184 140.724 68.7028 141.464 67.1932C142.887 64.3448 146.389 60.8128 149.236 59.4171C149.549 59.2747 149.834 59.1323 150.147 58.9898C168.823 50.5871 186.844 68.9592 177.791 87.6445C176.595 90.0941 173.976 92.9425 171.414 94.737C170.816 95.1358 170.218 95.5061 169.677 95.7624C167.058 97.0157 164.467 97.7563 161.933 98.0411C147.556 99.6647 135.713 86.4197 139.756 71.6651Z" fill="#4D52E6"/>
<path d="M169.905 105.076C169.905 105.076 169.934 98.7527 168.937 96.9013C167.941 95.0498 165.635 92.7711 164.354 93.4832C163.044 94.2238 162.646 100.376 163.044 101.487C163.443 102.598 166.404 106.728 166.404 106.728L169.905 105.076Z" fill="#FFB27D"/>
<path d="M248.367 308.849C249.79 307.653 248.936 300.874 248.936 300.874C248.936 300.874 241.676 295.063 240.68 299.507C239.684 303.95 233.79 305.944 230.431 306.514C228.182 306.884 227.442 308.08 227.186 308.849H248.367Z" fill="#2C3A64"/>
<path d="M249.192 301.187C242.473 302.241 239.997 300.618 239.997 300.618C240.082 293.981 238.032 279.056 235.242 261.88C231.541 239.264 226.531 212.774 223.37 196.453C221.548 187.053 220.324 181.043 220.324 181.043L225.819 180.929L253.235 180.388C253.235 180.388 251.185 210.751 251.754 225.734C251.897 229.323 252.181 232.029 252.665 233.225C257.363 244.619 249.192 301.187 249.192 301.187Z" fill="#35488B"/>
<path d="M251.784 225.762C248.054 232.741 238.716 250.686 235.243 261.908C231.542 239.292 226.531 212.802 223.371 196.481C223.513 190.3 224.254 184.916 225.848 180.957L253.264 180.416C253.264 180.416 251.214 210.78 251.784 225.762Z" fill="#2C3A64"/>
<path d="M225.277 308.849C226.7 307.653 225.846 300.874 225.846 300.874C225.846 300.874 218.587 295.063 217.59 299.507C216.594 303.95 210.701 305.944 207.341 306.514C205.092 306.884 204.352 308.08 204.096 308.849H225.277Z" fill="#2C3A64"/>
<path d="M208.424 180.388C208.424 180.388 219.185 280.109 217.05 300.219C217.05 300.219 219.356 302.013 226.132 301.615C226.132 301.615 238.431 244.163 235.84 234.877C234.018 228.411 241.249 182.78 241.249 182.78L208.424 180.388Z" fill="#35488B"/>
<path d="M234.93 109.093C234.93 109.093 221.236 115.929 214.432 112.825C214.432 112.825 217.279 109.122 220.496 107.584C220.439 106.359 220.382 105.276 220.382 104.279C220.325 101.032 220.496 99.2093 220.496 99.2093L226.389 94.9083L230.403 92.0029C230.175 93.7974 230.147 95.478 230.232 97.0161C230.773 104.906 234.93 109.093 234.93 109.093Z" fill="#FFB27D"/>
<path d="M230.231 97.0158C230.231 97.0158 227.043 103.396 220.381 104.308C220.324 101.061 220.495 99.2376 220.495 99.2376L226.388 94.9365C228.979 95.905 230.231 97.0158 230.231 97.0158Z" fill="#ED975D"/>
<path d="M218.958 98.8105C218.958 98.8105 231.228 103.169 233.819 95.5064C236.41 87.8158 239.741 83.2299 232.026 80.0967C224.31 76.9919 221.777 79.3846 220.296 81.7487C218.816 84.1129 215.826 97.4718 218.958 98.8105Z" fill="#FFB27D"/>
<path d="M254.118 180.388C252.21 184.376 209.706 184.205 207.627 181.385C206.773 180.245 205.805 168.766 205.236 155.436C204.923 148.059 204.752 140.083 204.78 132.991C204.837 121.398 205.492 112.141 207.115 111.429C216.225 107.469 221.862 104.963 233.734 105.333C237.406 105.447 240.709 107.555 242.332 110.859C245.178 116.783 249.25 127.266 249.563 139.656C250.047 158.74 256.538 175.346 254.118 180.388Z" fill="#6BB7BF"/>
<path d="M218.531 125.129C218.531 125.129 217.136 145.096 205.236 155.436C204.923 148.059 204.752 140.083 204.78 132.991C208.339 128.234 213.037 124.816 218.531 125.129Z" fill="#599DAD"/>
<path d="M224.367 105.76C224.367 105.76 211.299 105.846 207.2 109.662C204.267 112.397 185.392 127.294 184.168 127.095C182.972 126.895 170.816 102.627 170.816 102.627C170.816 102.627 164.809 103.14 163.812 105.732C163.812 105.732 169.478 136.038 181.663 142.647C181.663 142.647 212.495 136.807 221.634 126.582C226.388 121.284 224.367 105.76 224.367 105.76Z" fill="#6BB7BF"/>
<path d="M219.498 75.7669C219.498 75.7669 220.209 83.0872 222.43 85.0811C224.622 87.075 224.053 89.8379 224.28 90.2367C224.508 90.6354 226.786 89.4676 227.184 90.1227C228.095 91.6609 226.672 92.8002 225.761 93.1705C224.85 93.5408 228.095 99.8357 230.458 100.064C234.558 100.462 240.907 89.1258 241.447 85.7932C242.159 81.4352 239.682 74.656 232.622 74.9978C221.519 75.539 219.27 73.1179 219.498 75.7669Z" fill="#2B478B"/>
<path d="M550.625 43.665H537.529V125.3H550.625V43.665Z" fill="#D6D6D6"/>
<path d="M572.69 20.9355H559.594V125.329H572.69V20.9355Z" fill="#D6D6D6"/>
<path d="M596.09 63.4336H582.994V125.329H596.09V63.4336Z" fill="#D6D6D6"/>
<path d="M571.978 5.29785H560.875C560.249 5.29785 559.736 5.81056 559.736 6.4372C559.736 7.06385 560.249 7.57655 560.875 7.57655H571.978C572.604 7.57655 573.117 7.06385 573.117 6.4372C573.117 5.81056 572.604 5.29785 571.978 5.29785Z" fill="#D6D6D6"/>
<path d="M563.409 11.7924C564.035 11.7924 564.548 11.2797 564.548 10.653C564.548 10.0264 564.035 9.51367 563.409 9.51367H560.875C560.249 9.51367 559.736 10.0264 559.736 10.653C559.736 11.2797 560.249 11.7924 560.875 11.7924H563.409Z" fill="#D6D6D6"/>
<path d="M595.095 51.2422H583.992C583.366 51.2422 582.854 51.7549 582.854 52.3815C582.854 53.0082 583.366 53.5209 583.992 53.5209H595.095C595.722 53.5209 596.234 53.0082 596.234 52.3815C596.234 51.7549 595.722 51.2422 595.095 51.2422Z" fill="#D6D6D6"/>
<path d="M584.02 57.7084H586.553C587.18 57.7084 587.692 57.1957 587.692 56.569C587.692 55.9424 587.18 55.4297 586.553 55.4297H584.02C583.393 55.4297 582.881 55.9424 582.881 56.569C582.881 57.1957 583.365 57.7084 584.02 57.7084Z" fill="#D6D6D6"/>
</svg>
