<svg width="594" height="512" viewBox="0 0 594 512" fill="none" xmlns="http://www.w3.org/2000/svg">
<g clip-path="url(#clip0_1005_1421)">
<path d="M247.086 444.802L253.574 423.656C245.768 415.057 235.983 408.496 225.068 404.541C235.732 422.223 225.399 445.288 229.705 465.487C231.096 471.776 233.884 477.672 237.861 482.736C241.838 487.801 246.903 491.905 252.68 494.744L262.525 506.953C267.686 497.928 270.831 487.89 271.743 477.531C272.655 467.173 271.313 456.739 267.808 446.95C265.788 441.477 263.087 436.281 259.769 431.485C253.919 438.368 247.086 444.802 247.086 444.802Z" fill="#F2F2F2"/>
<path d="M211.413 447.505L207.797 425.682C196.979 421.47 185.297 419.965 173.766 421.297C191.189 432.363 192.218 457.62 205.073 473.777C209.121 478.785 214.242 482.817 220.059 485.575C225.875 488.333 232.237 489.745 238.674 489.708L252.926 496.241C253.524 485.859 251.866 475.471 248.066 465.792C244.267 456.114 238.416 447.375 230.917 440.177C226.67 436.181 221.937 432.736 216.83 429.924C214.661 438.696 211.413 447.505 211.413 447.505Z" fill="#F2F2F2"/>
<path d="M423.75 501.526L413.756 501.525L409.002 462.947L423.751 462.948L423.75 501.526Z" fill="#FFB6B6"/>
<path d="M426.296 511.221L394.074 511.219V510.811C394.074 507.482 395.396 504.29 397.748 501.936C400.1 499.582 403.29 498.259 406.616 498.259H406.617L412.503 493.79L423.484 498.26L426.297 498.26L426.296 511.221Z" fill="#2F2E41"/>
<path d="M585.176 465.045L578.363 472.361L546.924 449.539L556.98 438.741L585.176 465.045Z" fill="#FFB6B6"/>
<path d="M594.001 469.788L572.031 493.379L571.733 493.101C569.299 490.831 567.867 487.687 567.75 484.36C567.633 481.033 568.841 477.796 571.109 475.36L571.856 468.003L582.61 463.011L584.528 460.951L594.001 469.788Z" fill="#2F2E41"/>
<path d="M570.389 443.363L559.827 465.473L494.966 422.491L485.53 409.624L454.591 367.433L442.014 387.406L433.263 408.285C430.411 410.147 428.008 412.619 426.227 415.524C424.446 418.429 423.332 421.693 422.965 425.081L422.565 428.777L428.094 478.531L407.077 484.99L395.006 418.153L398.952 403.67L403.014 383.34L423.468 319.098H478.201L509.594 385.977L511.889 399.604L520.79 409.828L570.389 443.363Z" fill="#2F2E41"/>
<path d="M456.643 213.991L465.857 221.013L476.969 224.431C476.969 224.431 481.563 289.103 485.702 293.246C489.841 297.388 486.108 297.5 486.94 302.881C487.771 308.263 489.793 319.295 489.793 319.295C461.853 334.097 437.767 334.494 418.419 317.173C418.171 316.101 418.297 314.977 418.775 313.987C419.253 312.997 420.055 312.2 421.048 311.729C424.649 309.816 417.729 300.891 420.671 299.399C423.614 297.906 419.475 284.96 419.475 284.96L422.19 257.949L420.045 253.632L425.28 227.212L434.364 223.892L437.993 215.142L456.643 213.991Z" fill="#3F3D56"/>
<path d="M462.415 328.936C462.374 327.768 462.589 326.605 463.045 325.529C463.501 324.453 464.188 323.491 465.056 322.709C465.924 321.928 466.953 321.346 468.07 321.006C469.187 320.665 470.365 320.574 471.521 320.738L484.506 295.478L491.741 308.342L478.301 330.358C477.896 332.284 476.8 333.993 475.219 335.164C473.639 336.334 471.685 336.884 469.727 336.709C467.769 336.533 465.943 335.645 464.595 334.213C463.248 332.78 462.472 330.902 462.415 328.936Z" fill="#FFB6B6"/>
<path d="M484.282 322.756L512.133 279.553L512.041 279.354C511.936 279.126 505.629 265.494 499.518 253.007C498.577 251.084 497.641 249.188 496.732 247.373C496.34 246.589 495.954 245.822 495.574 245.071C493.007 240.007 490.764 235.821 489.426 233.832C486.465 229.337 482.057 225.99 476.933 224.348L476.805 224.314L476.682 224.366C474.175 225.424 472.105 227.306 470.81 229.7C469.516 232.095 469.076 234.859 469.562 237.538C471.978 250.457 477.361 262.638 485.286 273.119L489.801 279.075L474.11 313.218L484.282 322.756Z" fill="#3F3D56"/>
<path d="M388.511 157.151C389.278 158.033 389.842 159.072 390.165 160.195C390.487 161.318 390.559 162.498 390.377 163.653C390.194 164.807 389.76 165.907 389.107 166.876C388.454 167.844 387.596 168.658 386.594 169.258L392.4 197.066L378.686 191.631L375.275 166.058C374.378 164.307 374.154 162.288 374.645 160.383C375.136 158.478 376.309 156.819 377.94 155.721C379.572 154.623 381.549 154.162 383.497 154.426C385.445 154.69 387.229 155.659 388.511 157.151Z" fill="#FFB6B6"/>
<path d="M375.41 175.734L380.956 226.849L381.152 226.946C381.314 227.025 388.34 230.474 396.965 234.582C398.42 235.275 398.211 238.277 399.732 238.994C400.779 239.488 403.545 237.695 404.603 238.19C414.03 242.603 423.562 246.893 427.361 248.055C432.49 249.682 438.02 249.504 443.033 247.55L443.154 247.495L443.218 247.378C444.499 244.976 444.924 242.209 444.423 239.533C443.921 236.858 442.524 234.433 440.461 232.658C430.456 224.144 418.611 218.074 405.86 214.927L398.605 213.145L389.313 176.734L375.41 175.734Z" fill="#3F3D56"/>
<path d="M446.819 211.095C456.884 211.095 465.044 202.928 465.044 192.854C465.044 182.78 456.884 174.613 446.819 174.613C436.753 174.613 428.594 182.78 428.594 192.854C428.594 202.928 436.753 211.095 446.819 211.095Z" fill="#FFB6B6"/>
<path d="M428.725 180.632C430.224 176.268 437.685 173.241 449.78 172.82C461.876 172.399 464.944 186.665 464.944 186.665C473.018 193.221 456.321 210.772 455.514 210.14L455.877 206.842C456.478 201.38 459.034 197.119 455.784 191.426L452.663 191.462C448.632 192.238 444.602 193.014 440.571 193.789L445.343 189.584L445.209 189.376C443.179 190.434 440.97 191.105 438.695 191.355C436.13 191.506 433.327 190.485 432.098 188.226C431.77 187.606 431.57 186.925 431.509 186.226C428.05 187.609 426.469 191.876 426.469 191.876C426.469 191.876 427.226 184.996 428.725 180.632Z" fill="#2F2E41"/>
<path d="M73.4282 181.725C73.1809 181.412 72.9146 181.113 72.6309 180.832C72.7002 180.737 72.7696 180.633 72.8389 180.537L73.4282 181.725Z" fill="#2F2E41"/>
<path d="M76.9739 255.089C73.9926 260.389 68.0388 263.346 62.137 264.795C55.5079 266.533 48.5273 266.398 41.9703 264.405C41.1384 264.136 40.3064 263.824 39.5004 263.477C39.8879 262.447 40.1951 261.388 40.4191 260.311C40.7207 258.853 40.8718 257.367 40.8697 255.878C40.2131 257.161 39.3624 258.334 38.3478 259.357C37.5651 260.179 36.6762 260.894 35.7046 261.482C32.6907 259.651 30.0811 257.225 28.0348 254.352C28.1648 254.031 28.2948 253.71 28.4162 253.389C29.0455 251.713 29.5438 249.99 29.9067 248.237C30.3992 245.866 30.646 243.45 30.6434 241.029C29.5749 243.115 28.189 245.023 26.5355 246.684C26.0398 247.215 25.5131 247.716 24.9583 248.185C24.099 245.573 23.7669 242.816 23.9811 240.075C24.1953 237.334 24.9517 234.662 26.2062 232.216C29.6381 225.867 36.2939 222.094 42.2217 217.991C48.1581 213.888 54.0947 208.337 54.5973 201.129C54.9353 196.263 52.682 191.388 53.5833 186.601C53.9624 184.581 54.8878 182.705 56.2587 181.176C57.6297 179.647 59.3935 178.524 61.3582 177.929C63.3229 177.334 65.413 177.29 67.4009 177.802C69.3888 178.314 71.1982 179.362 72.632 180.832C69.2694 185.603 65.9242 190.538 64.5636 196.211C63.177 201.988 64.3123 208.762 68.8622 212.587C70.4221 213.906 72.3374 214.842 73.542 216.49C75.1453 218.676 75.1539 221.591 75.4139 224.28C75.9339 229.51 77.6412 234.541 78.5598 239.719C79.4872 244.889 79.5391 250.501 76.9739 255.089Z" fill="#2F2E41"/>
<path d="M15.8594 470.186L23.7691 476.302L51.1048 448.679L39.4308 439.651L15.8594 470.186Z" fill="#A0616A"/>
<path d="M16.1957 464.21L29.2753 473.132L25.1361 478.494L30.6795 495.903C30.9534 496.763 30.9456 497.688 30.657 498.543C30.3685 499.398 29.8145 500.138 29.0758 500.656C28.3371 501.173 27.4525 501.441 26.5511 501.42C25.6496 501.399 24.7786 501.089 24.0651 500.538L9.17981 489.026L10.7084 481.739L5.61233 486.267L0 481.927L16.1957 464.21Z" fill="#2F2E41"/>
<path d="M55.9883 197.136C55.9871 200.229 56.7446 203.275 58.1942 206.007C59.6438 208.738 61.7412 211.072 64.3023 212.803C66.8635 214.534 69.8099 215.609 72.8831 215.934C75.9563 216.259 79.0623 215.824 81.9284 214.668C84.7944 213.511 87.3329 211.668 89.3211 209.3C91.3092 206.932 92.6862 204.112 93.3312 201.087C93.9761 198.062 93.8693 194.925 93.0201 191.951C92.1709 188.977 90.6053 186.257 88.4607 184.03L88.3701 183.94C88.2191 183.781 88.068 183.622 87.9094 183.471L87.9065 183.471L87.904 183.469L87.9024 183.466L87.9019 183.463C87.7055 183.282 87.5092 183.101 87.3053 182.927C83.9825 180.009 79.3124 176.843 74.5473 176.843C64.1183 176.843 55.9883 186.698 55.9883 197.136Z" fill="#2F2E41"/>
<path d="M163.596 187.432C163.687 188.44 163.555 189.456 163.211 190.407C162.867 191.359 162.319 192.223 161.605 192.939C160.891 193.656 160.028 194.207 159.079 194.553C158.129 194.9 157.115 195.034 156.108 194.946L109.358 237.193L101.312 224.476L149.796 186.948C150.056 185.264 150.924 183.734 152.235 182.648C153.546 181.562 155.21 180.995 156.911 181.055C158.612 181.115 160.232 181.797 161.465 182.972C162.697 184.148 163.455 185.735 163.596 187.432Z" fill="#A0616A"/>
<path d="M89.378 249.945C89.378 249.945 91.1175 253.16 97.0592 248.195C101.816 244.221 124.605 226.965 129.515 219.894C130.636 220.339 131.873 220.397 133.031 220.061C134.189 219.724 135.202 219.012 135.911 218.035L122.459 206.244C118.434 206.708 118.52 209.414 118.94 210.95L108.793 215.552L82.5898 232.311L88.0795 247.643L89.378 249.945Z" fill="#6C63FF"/>
<path d="M63.9935 279.568L63.0136 284.238L62.1816 301.465L98.8124 303.48L97.6749 276.984L94.1243 271.146L63.9935 279.568Z" fill="#A0616A"/>
<path d="M79.5186 217.352C88.2619 217.352 95.3497 210.259 95.3497 201.508C95.3497 192.757 88.2619 185.663 79.5186 185.663C70.7753 185.663 63.6875 192.757 63.6875 201.508C63.6875 210.259 70.7753 217.352 79.5186 217.352Z" fill="#A0616A"/>
<path d="M51.4118 259.95L51.3145 246.78C51.3122 242.041 52.9146 237.441 55.8601 233.73C58.8056 230.02 62.9204 227.418 67.5334 226.349L67.5931 226.335L70.7235 222.113L83.4418 223.387L85.7729 228.155L94.9888 233.647L98.537 245.063C100.076 246.09 101.388 247.422 102.39 248.978C103.393 250.533 104.066 252.279 104.366 254.105C105.571 261.807 100.183 269.512 99.5422 270.396L97.8909 279.703L61.9702 286.047L61.6785 286.084L51.4118 259.95Z" fill="#6C63FF"/>
<path d="M98.8899 198.683C97.0433 199.854 95.1274 200.911 93.1527 201.849C91.1485 202.813 89.0521 203.571 86.8956 204.113C86.2785 202.758 85.5235 201.47 84.6423 200.271C84.869 201.692 84.8749 203.14 84.6596 204.564C81.0851 205.141 77.424 204.841 73.9913 203.688L71.0101 198.683L70.7847 204.269C68.3148 204.72 65.8536 205.145 63.3837 205.588C63.2364 205.605 63.089 205.64 62.9503 205.666C61.4163 198.744 63.5916 191.12 68.4275 186.505C70.8285 184.238 73.8236 182.7 77.064 182.071C80.3044 181.441 83.6568 181.746 86.7309 182.949C87.1209 183.105 87.5195 183.279 87.9008 183.461L87.9015 183.464L87.9033 183.467L87.9062 183.469L87.9095 183.469C88.1349 183.582 88.3255 183.851 88.5768 183.825C99.3925 182.619 99.7392 191.015 98.8899 198.683Z" fill="#2F2E41"/>
<path d="M72.5547 449.756L80.4766 455.856L107.757 428.177L96.0652 419.174L72.5547 449.756Z" fill="#A0616A"/>
<path d="M73.5974 444.331L86.695 453.227L82.5666 458.597L88.1452 475.995C88.4208 476.854 88.4148 477.779 88.128 478.635C87.8412 479.49 87.2887 480.232 86.551 480.751C85.8134 481.27 84.9293 481.539 84.0278 481.52C83.1263 481.5 82.2547 481.193 81.5401 480.643L66.6316 469.161L68.1455 461.871L63.0586 466.409L57.4375 462.08L73.5974 444.331Z" fill="#2F2E41"/>
<path d="M46.8484 415.974L46.848 415.871L50.6025 409.395L46.7687 400.966L46.6537 379.31L47.2752 376.059C48.111 371.687 47.8678 367.176 46.5667 362.919L46.4966 349.737C46.3619 346.435 51.4732 343.531 50.2812 340.778C39.0149 314.756 61.7859 294.905 61.9397 294.746L62.4051 294.262L64.9298 296.176L67.3329 296.179L99.7612 302.093L99.9953 302.53C101.271 304.924 103.732 313.177 103.878 316.912C105.495 318.785 123.904 340.105 125.541 341.587C136.599 351.601 142.931 368.177 145.721 377.167C146.414 379.388 146.553 381.746 146.128 384.034C145.702 386.322 144.724 388.471 143.278 390.294L101.413 436.189L90.1466 425.781L112.8 384.466L111.166 380.275C108.235 379.734 105.583 378.191 103.661 375.911L99.074 370.462C97.804 368.957 96.997 367.116 96.7506 365.162L93.9689 364.827L84.0045 354.356L77.0914 417.015L75.212 421.964L42.4814 460.476L28.6152 451.802L46.8484 415.974Z" fill="#2F2E41"/>
<path d="M41.8484 146.926C41.2195 147.718 40.7719 148.639 40.5371 149.623C40.3022 150.607 40.2858 151.631 40.4891 152.622C40.6923 153.613 41.1102 154.548 41.7133 155.36C42.3164 156.172 43.0901 156.842 43.9799 157.322L33.5723 188.16L42.0707 220.84L55.7744 214.64L47.3181 189.99L53.6447 154.11C54.3521 152.561 54.4669 150.806 53.9675 149.177C53.4681 147.548 52.3891 146.16 50.9351 145.274C49.481 144.388 47.7529 144.067 46.0782 144.372C44.4034 144.676 42.8984 145.585 41.8484 146.926Z" fill="#A0616A"/>
<path d="M54.3921 247.767C54.3921 247.767 51.1735 249.497 48.9351 242.081C47.1431 236.144 34.9475 203.909 34.7277 195.301C33.547 195.056 32.4813 194.425 31.6986 193.507C30.9158 192.589 30.4605 191.436 30.4043 190.231L48.117 187.777C51.2251 190.378 49.6673 192.592 48.4736 193.645L54.5064 203.872L67.1159 231.483L56.7409 246.558L54.3921 247.767Z" fill="#6C63FF"/>
<path d="M63.3809 205.586C65.1998 200.096 68.4615 195.197 72.8236 191.403C77.1858 187.609 82.4877 185.059 88.1732 184.022C88.1958 184.015 88.2714 183.985 88.3696 183.939C88.43 183.901 88.5055 183.864 88.581 183.826C88.3545 183.697 88.1355 183.584 87.9089 183.471L87.906 183.47L87.9035 183.468L87.9019 183.466L87.9014 183.463C87.705 183.282 87.5087 183.1 87.3048 182.926L86.7308 182.949C86.7308 182.949 66.5602 179.752 63.3809 205.586Z" fill="#FD6584"/>
<path d="M323.656 382.151C325.857 378.839 324.554 374.098 320.745 371.562C316.937 369.026 312.064 369.655 309.863 372.966C307.662 376.278 308.965 381.019 312.773 383.555C316.582 386.091 321.454 385.462 323.656 382.151Z" fill="#F2F2F2"/>
<path d="M278.968 258.545C281.17 255.233 279.867 250.493 276.058 247.957C272.249 245.421 267.377 246.049 265.175 249.361C262.974 252.673 264.277 257.413 268.086 259.95C271.895 262.486 276.767 261.857 278.968 258.545Z" fill="#F2F2F2"/>
<path d="M465.843 448.833C468.045 445.522 466.742 440.781 462.933 438.245C459.124 435.709 454.252 436.337 452.05 439.649C449.849 442.961 451.152 447.701 454.961 450.238C458.77 452.774 463.642 452.145 465.843 448.833Z" fill="#F2F2F2"/>
<path d="M88.0306 51.18C90.2321 47.8683 88.9291 43.1277 85.1203 40.5915C81.3116 38.0554 76.4394 38.6841 74.238 41.9958C72.0365 45.3075 73.3396 50.0481 77.1483 52.5843C80.957 55.1204 85.8292 54.4917 88.0306 51.18Z" fill="#F2F2F2"/>
<path d="M264.343 12.1468C266.545 8.83505 265.242 4.09443 261.433 1.55828C257.624 -0.977866 252.752 -0.349156 250.55 2.96256C248.349 6.27427 249.652 11.0149 253.461 13.5511C257.27 16.0872 262.142 15.4585 264.343 12.1468Z" fill="#F2F2F2"/>
<path d="M180.898 339.632C183.099 336.32 181.796 331.58 177.988 329.044C174.179 326.508 169.307 327.136 167.105 330.448C164.904 333.76 166.207 338.5 170.016 341.036C173.824 343.573 178.696 342.944 180.898 339.632Z" fill="#E6E6E6"/>
<path d="M544.592 512H16.2283C15.9722 511.999 15.7269 511.897 15.546 511.715C15.3652 511.534 15.2637 511.288 15.2637 511.032C15.2637 510.775 15.3652 510.53 15.546 510.348C15.7269 510.167 15.9722 510.064 16.2283 510.063H544.592C544.849 510.063 545.095 510.165 545.276 510.347C545.458 510.529 545.56 510.775 545.56 511.032C545.56 511.289 545.458 511.535 545.276 511.716C545.095 511.898 544.849 512 544.592 512Z" fill="#CCCCCC"/>
<path d="M114.57 190.42C110.126 190.407 105.842 188.755 102.538 185.78C99.2334 182.806 97.1404 178.716 96.6589 174.294L86.3439 78.4126C85.8371 73.652 87.2378 68.8847 90.2386 65.1564C93.2394 61.4282 97.5954 59.0436 102.351 58.5258L408.626 25.5199C413.382 25.0124 418.146 26.4141 421.871 29.4175C425.596 32.4208 427.979 36.7805 428.496 41.54L438.811 137.421C439.318 142.182 437.918 146.949 434.917 150.678C431.916 154.406 427.56 156.791 422.804 157.309L116.529 190.314C115.878 190.385 115.225 190.42 114.57 190.42Z" fill="#E6E6E6"/>
<path d="M405.251 29.9707C404.676 29.9709 404.101 30.002 403.528 30.0637L108.296 61.8796C106.231 62.102 104.231 62.7293 102.409 63.7255C100.587 64.7217 98.9785 66.0673 97.6759 67.6856C96.3734 69.3039 95.4021 71.1631 94.8174 73.1571C94.2328 75.1511 94.0463 77.2408 94.2686 79.3069L99.484 127.785C100.327 135.623 102.704 143.217 106.48 150.135C110.255 157.052 115.355 163.158 121.488 168.103C127.621 173.048 134.667 176.736 142.224 178.955C149.781 181.175 157.701 181.883 165.532 181.039L373.129 158.667C380.936 157.825 388.501 155.453 395.391 151.686C402.282 147.919 408.364 142.83 413.29 136.71C418.215 130.591 421.889 123.56 424.1 116.019C426.31 108.479 427.016 100.576 426.175 92.7631L420.94 44.1028C420.523 40.2268 418.691 36.6413 415.796 34.0335C412.901 31.4257 409.146 29.979 405.251 29.9707Z" fill="white"/>
<path d="M343.08 80.4228L178.071 98.2052C177.599 98.2567 177.122 98.2146 176.666 98.0813C176.211 97.948 175.786 97.7261 175.416 97.4284C175.046 97.1306 174.739 96.7628 174.511 96.346C174.283 95.9292 174.14 95.4716 174.089 94.9993C174.038 94.527 174.081 94.0493 174.215 93.5936C174.349 93.1378 174.571 92.7129 174.869 92.3432C175.167 91.9735 175.535 91.6662 175.951 91.4389C176.368 91.2116 176.826 91.0688 177.298 91.0185L342.307 73.2361C342.779 73.1846 343.256 73.2268 343.712 73.3601C344.167 73.4934 344.592 73.7152 344.962 74.013C345.332 74.3107 345.639 74.6785 345.867 75.0953C346.094 75.5121 346.238 75.9697 346.289 76.442C346.339 76.9143 346.297 77.392 346.163 77.8477C346.029 78.3035 345.807 78.7284 345.509 79.0981C345.211 79.4678 344.843 79.7751 344.426 80.0024C344.009 80.2297 343.552 80.3725 343.08 80.4228Z" fill="#6C63FF"/>
<path d="M345.452 102.479L180.443 120.261C179.491 120.364 178.537 120.084 177.791 119.482C177.045 118.881 176.569 118.008 176.466 117.055C176.364 116.102 176.643 115.147 177.244 114.401C177.845 113.654 178.718 113.177 179.67 113.075L344.679 95.2923C345.631 95.1897 346.585 95.4698 347.331 96.0711C348.077 96.6725 348.553 97.5457 348.656 98.4987C348.758 99.4517 348.479 100.406 347.878 101.153C347.277 101.899 346.404 102.376 345.452 102.479Z" fill="#6C63FF"/>
<path d="M202.045 140.245L182.816 142.317C181.864 142.42 180.91 142.14 180.164 141.538C179.418 140.937 178.942 140.064 178.839 139.111C178.737 138.158 179.017 137.203 179.617 136.457C180.218 135.71 181.091 135.233 182.043 135.131L201.272 133.058C201.744 133.007 202.221 133.049 202.677 133.182C203.132 133.316 203.557 133.537 203.927 133.835C204.297 134.133 204.604 134.501 204.832 134.918C205.06 135.334 205.203 135.792 205.254 136.264C205.305 136.737 205.262 137.214 205.128 137.67C204.994 138.126 204.772 138.551 204.474 138.92C204.176 139.29 203.808 139.597 203.391 139.825C202.975 140.052 202.517 140.195 202.045 140.245Z" fill="#6C63FF"/>
<path d="M108.076 82.4574C111.666 82.4574 114.576 79.5448 114.576 75.9519C114.576 72.3589 111.666 69.4463 108.076 69.4463C104.486 69.4463 101.576 72.3589 101.576 75.9519C101.576 79.5448 104.486 82.4574 108.076 82.4574Z" fill="#3F3D56"/>
<path d="M398.951 49.9301C402.541 49.9301 405.451 47.0174 405.451 43.4245C405.451 39.8316 402.541 36.9189 398.951 36.9189C395.361 36.9189 392.451 39.8316 392.451 43.4245C392.451 47.0174 395.361 49.9301 398.951 49.9301Z" fill="#3F3D56"/>
<path d="M311.075 183.487C310.478 182.962 310.005 182.31 309.691 181.579C309.376 180.848 309.229 180.057 309.258 179.261C309.585 169.812 308.03 160.392 304.684 151.55C304.401 150.807 304.286 150.01 304.349 149.217C304.411 148.424 304.65 147.654 305.047 146.965C305.427 146.302 305.948 145.731 306.572 145.292C307.197 144.852 307.91 144.554 308.661 144.42C316.217 139.857 323.962 138.576 331.686 140.613C332.932 140.429 334.202 140.696 335.269 141.366C336.335 142.035 337.129 143.063 337.506 144.265C340.634 154.427 342.373 164.965 342.678 175.594C342.707 176.869 342.275 178.111 341.462 179.094C340.65 180.076 339.51 180.732 338.253 180.941L315.395 184.72C314.628 184.849 313.843 184.804 313.096 184.591C312.349 184.378 311.659 184 311.075 183.487Z" fill="#6C63FF"/>
<path d="M313.104 155.956L332.343 152.774C332.501 152.749 332.653 152.692 332.789 152.607C332.926 152.523 333.044 152.412 333.137 152.282C333.231 152.152 333.298 152.004 333.334 151.848C333.371 151.692 333.376 151.53 333.35 151.372C333.324 151.213 333.267 151.062 333.182 150.926C333.097 150.789 332.986 150.671 332.856 150.578C332.726 150.485 332.578 150.418 332.422 150.382C332.266 150.346 332.104 150.341 331.946 150.367L312.707 153.549C312.388 153.602 312.104 153.78 311.917 154.042C311.729 154.305 311.653 154.632 311.706 154.95C311.758 155.269 311.935 155.554 312.197 155.742C312.459 155.931 312.786 156.007 313.104 155.956Z" fill="white"/>
<path d="M314.694 165.583L333.933 162.402C334.252 162.349 334.537 162.172 334.725 161.909C334.913 161.646 334.989 161.319 334.937 160.999C334.884 160.68 334.707 160.395 334.444 160.207C334.181 160.018 333.854 159.942 333.535 159.995L314.296 163.176C314.138 163.202 313.987 163.259 313.85 163.343C313.714 163.428 313.596 163.538 313.502 163.668C313.409 163.799 313.342 163.946 313.305 164.102C313.269 164.259 313.264 164.421 313.29 164.579C313.316 164.737 313.373 164.889 313.458 165.025C313.542 165.161 313.653 165.279 313.784 165.372C313.914 165.466 314.061 165.532 314.218 165.568C314.374 165.605 314.536 165.61 314.694 165.583Z" fill="white"/>
<path d="M316.283 175.211L335.522 172.03C335.841 171.977 336.126 171.8 336.314 171.537C336.502 171.274 336.578 170.947 336.526 170.627C336.473 170.308 336.296 170.023 336.033 169.835C335.77 169.646 335.443 169.57 335.125 169.623L315.885 172.804C315.727 172.83 315.576 172.887 315.44 172.972C315.304 173.056 315.186 173.167 315.093 173.297C315 173.427 314.933 173.575 314.897 173.731C314.861 173.887 314.855 174.048 314.882 174.206C314.908 174.364 314.965 174.516 315.049 174.652C315.134 174.788 315.244 174.906 315.374 174.999C315.504 175.092 315.651 175.159 315.807 175.195C315.963 175.232 316.125 175.237 316.283 175.211Z" fill="white"/>
</g>
<defs>
<clipPath id="clip0_1005_1421">
<rect width="594" height="512" fill="white"/>
</clipPath>
</defs>
</svg>
