<svg width="491" height="530" viewBox="0 0 491 530" fill="none" xmlns="http://www.w3.org/2000/svg">
<g clip-path="url(#clip0_1370_4963)">
<path d="M212.46 170.046C212.092 166.368 210.895 162.821 208.958 159.673C207.022 156.524 204.397 153.856 201.281 151.868C198.165 149.881 194.639 148.626 190.968 148.198C187.297 147.771 183.577 148.181 180.087 149.399L181.859 149.58C173.913 151.17 166.851 155.682 162.069 162.226C159.733 165.497 158.127 169.232 157.36 173.178C156.594 177.124 156.684 181.189 157.626 185.097C159.634 192.858 165.562 199.591 173.15 202.175C177.369 203.611 181.898 203.787 186.353 203.938C189.245 204.037 192.189 204.125 194.977 203.35C198.563 202.239 201.715 200.041 203.998 197.06C206.259 194.09 208.058 190.795 209.334 187.287C211.495 181.8 213.047 175.914 212.46 170.046Z" fill="#2F2E41"/>
<path d="M275.462 527.627C269.162 503.928 283.152 480.829 299.499 464.839C308.212 456.316 317.914 448.908 327.375 441.256C336.454 433.994 345.1 426.206 353.268 417.932C369.041 401.785 382.8 383.331 391.912 362.588C400.577 342.862 404.672 321.374 402.643 299.851C400.719 279.438 393.404 259.359 379.947 243.697C378.271 241.746 376.507 239.875 374.656 238.086C373.663 237.122 372.142 238.64 373.136 239.605C388.163 254.199 396.909 273.977 399.869 294.553C402.922 315.771 399.777 337.403 391.844 357.241C383.393 378.374 369.955 397.231 354.371 413.687C346.523 421.921 338.174 429.663 329.372 436.869C319.972 444.614 310.204 451.931 301.254 460.208C284.757 475.462 269.931 496.444 271.967 520.064C272.205 522.811 272.681 525.533 273.39 528.198C273.473 528.464 273.656 528.687 273.901 528.821C274.146 528.954 274.433 528.987 274.702 528.913C274.97 528.839 275.2 528.664 275.342 528.424C275.483 528.184 275.526 527.898 275.462 527.627Z" fill="#F0F0F0"/>
<path d="M341.435 392.711C331.507 375.688 323.915 357.406 318.861 338.357C313.793 319.314 311.257 299.684 311.321 279.977C311.393 260.271 313.785 240.072 319.893 221.28C325.69 203.444 336.076 186.436 352.565 176.703C360.975 171.769 370.575 169.234 380.323 169.371C390.619 169.469 400.773 172.18 410.051 176.569C419.137 180.868 427.445 186.661 435.12 193.119C442.438 199.266 449.266 205.973 455.544 213.179C467.982 227.486 478.144 244.051 483.82 262.214C489.736 281.143 490.772 301.847 485.283 321.005C480.01 339.405 468.459 355.089 454.278 367.687C438.953 381.302 420.799 391.196 402.494 400.176C397.912 402.423 393.306 404.62 388.699 406.816C387.451 407.41 388.54 409.264 389.784 408.671C409.086 399.47 428.579 390.188 445.786 377.342C460.968 366.007 474.501 351.777 482.552 334.444C491.066 316.115 492.81 295.274 489.282 275.498C485.833 256.171 477.181 238.082 465.602 222.327C459.848 214.533 453.453 207.234 446.485 200.505C439.335 193.443 431.528 187.079 423.17 181.499C406.039 170.299 384.615 163.535 364.312 169.305C346.262 174.434 332.371 188.899 324.104 205.292C319.478 214.467 316.36 224.334 314.141 234.347C311.977 244.215 310.522 254.224 309.786 264.3C306.837 304.503 314.715 344.763 332.601 380.887C334.78 385.268 337.106 389.571 339.579 393.796C339.728 394.031 339.963 394.2 340.233 394.266C340.504 394.332 340.79 394.291 341.031 394.15C341.272 394.009 341.448 393.781 341.524 393.512C341.599 393.244 341.567 392.956 341.435 392.711Z" fill="#F0F0F0"/>
<path d="M327.825 371.936C317.898 354.912 310.305 336.63 305.252 317.582C300.183 298.538 297.648 278.909 297.712 259.202C297.784 239.496 300.176 219.296 306.284 200.504C312.081 182.669 322.467 165.66 338.956 155.928C347.365 150.994 356.965 148.458 366.714 148.596C377.01 148.694 387.164 151.404 396.441 155.794C405.527 160.092 413.836 165.886 421.511 172.344C428.828 178.491 435.657 185.198 441.934 192.404C454.373 206.71 464.535 223.275 470.211 241.438C476.126 260.367 477.163 281.072 471.673 300.229C466.4 318.63 454.849 334.313 440.669 346.912C425.344 360.526 407.19 370.421 388.884 379.4C384.303 381.648 379.696 383.844 375.09 386.04C373.842 386.635 374.931 388.489 376.174 387.896C395.476 378.695 414.97 369.413 432.176 356.566C447.359 345.231 460.891 331.002 468.942 313.669C477.456 295.34 479.201 274.498 475.672 254.722C472.223 235.395 463.572 217.306 451.993 201.552C446.239 193.758 439.844 186.459 432.875 179.729C425.725 172.667 417.918 166.303 409.561 160.724C392.429 149.524 371.005 142.76 350.702 148.529C332.653 153.658 318.761 168.123 310.495 184.516C305.869 193.692 302.75 203.559 300.532 213.572C298.368 223.439 296.913 233.449 296.177 243.524C293.227 283.728 301.105 323.987 318.992 360.112C321.171 364.493 323.497 368.796 325.97 373.02C326.119 373.256 326.353 373.425 326.624 373.491C326.895 373.557 327.181 373.515 327.421 373.375C327.662 373.234 327.839 373.005 327.914 372.737C327.989 372.468 327.958 372.181 327.825 371.936Z" fill="#F0F0F0"/>
<path d="M132.216 331.66C131.458 330.59 130.944 329.368 130.709 328.079C130.475 326.789 130.526 325.464 130.859 324.196C131.192 322.929 131.798 321.75 132.636 320.742C133.474 319.734 134.523 318.923 135.708 318.364L160.545 240.581L177.842 249.568L147.99 323.2C148.796 325.255 148.82 327.533 148.059 329.604C147.298 331.675 145.804 333.395 143.859 334.438C141.915 335.48 139.656 335.773 137.51 335.261C135.364 334.749 133.48 333.468 132.216 331.66Z" fill="#FFB6B6"/>
<path d="M152.506 251.337C152.269 250.81 152.147 250.239 152.15 249.661C152.154 249.084 152.282 248.513 152.525 247.99L161.032 229.697C161.871 226.863 163.8 224.478 166.394 223.064C168.989 221.651 172.038 221.324 174.873 222.155C177.708 222.986 180.098 224.908 181.519 227.499C182.94 230.089 183.276 233.138 182.454 235.977L179.61 256.016C179.529 256.588 179.326 257.136 179.014 257.622C178.702 258.108 178.289 258.521 177.803 258.834C177.317 259.146 176.77 259.35 176.198 259.431C175.626 259.512 175.043 259.47 174.49 259.305L155.028 253.538C154.474 253.374 153.962 253.093 153.527 252.713C153.092 252.333 152.744 251.864 152.506 251.337Z" fill="#2F2E41"/>
<path d="M224.26 254.424C218.349 269.905 219.859 286.143 227.139 302.969H175.569C177.642 290.997 176.801 279.871 169.123 270.731L224.26 254.424Z" fill="#FFB6B6"/>
<path d="M163.905 225.975L179.167 214.873L204.142 207.935L224.954 212.098L226.177 223.601C227.665 237.592 227.019 251.729 224.26 265.527L170.148 278.017L164.598 268.302C164.598 268.302 152.111 255.812 161.823 241.935L163.905 225.975Z" fill="#2F2E41"/>
<path d="M296.464 148.32C296.805 149.585 296.864 150.91 296.637 152.201C296.411 153.492 295.904 154.717 295.152 155.791C294.401 156.865 293.423 157.761 292.288 158.416C291.153 159.07 289.889 159.469 288.583 159.582L238.342 223.941L225.229 209.516L278.738 150.789C278.693 148.583 279.459 146.437 280.89 144.758C282.322 143.079 284.319 141.983 286.504 141.679C288.69 141.375 290.91 141.882 292.746 143.106C294.582 144.33 295.905 146.185 296.464 148.32Z" fill="#FFB6B6"/>
<path d="M249.608 216.636C249.649 217.212 249.565 217.79 249.361 218.331C249.158 218.872 248.841 219.362 248.431 219.769L234.114 233.982C232.346 236.349 229.711 237.919 226.787 238.346C223.863 238.773 220.889 238.024 218.517 236.261C216.145 234.499 214.569 231.868 214.134 228.945C213.698 226.021 214.439 223.045 216.195 220.667L225.804 202.854C226.078 202.346 226.458 201.902 226.919 201.554C227.38 201.206 227.911 200.962 228.475 200.838C229.039 200.713 229.623 200.712 230.188 200.833C230.752 200.955 231.284 201.197 231.746 201.543L248.005 213.697C248.468 214.043 248.851 214.484 249.127 214.992C249.404 215.499 249.568 216.06 249.608 216.636Z" fill="#2F2E41"/>
<path d="M163.972 513.539H171.875L175.634 483.052H163.971L163.972 513.539Z" fill="#FFB6B6"/>
<path d="M161.296 509.64L173.788 508.895V514.248L185.665 522.452C186.252 522.857 186.694 523.439 186.926 524.113C187.159 524.788 187.17 525.518 186.957 526.199C186.745 526.88 186.321 527.475 185.747 527.897C185.173 528.32 184.478 528.548 183.765 528.548H168.893L166.329 523.253L165.328 528.548H159.721L161.296 509.64Z" fill="#2F2E41"/>
<path d="M219.839 513.539H227.742L231.501 483.052H219.838L219.839 513.539Z" fill="#FFB6B6"/>
<path d="M217.163 509.64L229.655 508.895V514.248L241.532 522.452C242.119 522.857 242.561 523.439 242.793 524.113C243.026 524.788 243.037 525.518 242.825 526.199C242.612 526.88 242.188 527.475 241.614 527.897C241.04 528.32 240.345 528.548 239.633 528.548H224.76L222.196 523.253L221.195 528.548H215.588L217.163 509.64Z" fill="#2F2E41"/>
<path d="M240.834 342.722V358.268L239.315 377.259C239.315 377.259 238.835 393.844 238.255 406.925C237.904 414.877 237.51 421.533 237.166 422.392C236.744 423.445 236.844 426.318 237.088 429.334C237.374 432.823 237.847 436.505 237.926 437.737C238.076 440.037 236.858 449.916 236.858 449.916C236.858 449.916 235.498 474.689 233.521 476.666C231.544 478.644 233.521 484.267 233.521 484.267C224.253 491.102 212.549 482.749 212.549 482.749C215.135 478.629 211.03 450.511 211.03 450.511C211.03 450.511 210.429 440.911 209.211 438.332C207.994 435.753 207.685 419.641 207.685 419.641V395.778C207.685 395.778 204.491 390.892 204.04 388.614C203.589 386.336 204.04 378.284 204.04 378.284L200.702 367.036L198.417 375.848C198.417 375.848 192.501 400.471 191.434 403.508C190.367 406.546 192.036 409.59 192.036 409.59C192.036 409.59 193.561 414.275 192.036 416.425C191.088 417.771 190.362 419.261 189.887 420.838C189.887 420.838 189.106 429.807 187.738 433.016C186.37 436.226 185.16 440.18 185.16 440.18C185.16 440.18 185.482 446.241 184.114 447.609C182.746 448.978 182.295 455.819 182.295 455.819C182.295 455.819 182.595 463.563 180.769 466.3C178.942 469.037 178.942 484.54 178.942 484.54C175.775 486.573 172.125 487.728 168.365 487.888C164.605 488.048 160.869 487.206 157.541 485.449C157.541 485.449 159.346 483.759 157.978 475.878C156.61 467.998 158.959 446.542 158.959 446.542C158.959 446.542 158.658 441.097 160.177 438.662C161.695 436.226 159.41 431.519 160.019 429.391C160.628 427.264 162.454 415.708 162.454 415.708C162.454 415.708 161.695 387.289 161.695 385.77C161.515 383.067 160.784 380.429 159.546 378.019C158.179 375.59 159.546 357.96 159.546 357.96C159.546 357.96 162.769 348.847 161.695 346.87C160.621 344.893 162.411 341.397 162.411 341.397C162.411 341.397 160.742 337.292 162.411 336.532C164.08 335.773 164.388 332.735 164.388 332.735L165.548 317.992C165.548 317.992 165.986 311.301 167.375 311C168.765 310.699 168.156 308.12 169.524 306.293C170.19 305.058 170.65 303.722 170.885 302.339C171.078 301.493 171.257 300.612 171.408 299.767C171.837 297.474 172.102 295.497 172.102 295.497C181.07 302.948 228.22 297.725 228.271 297.725C231.264 298.377 234.824 308.772 237.396 317.834C239.681 325.932 240.838 334.307 240.834 342.722Z" fill="#2F2E41"/>
<path d="M206.537 188.372C209.974 177.064 203.595 165.111 192.289 161.673C180.984 158.236 169.033 164.616 165.596 175.924C162.159 187.232 168.538 199.185 179.844 202.623C191.149 206.06 203.1 199.68 206.537 188.372Z" fill="#FFB6B6"/>
<path d="M161.883 185.878L170.168 184.153L171.694 173.156L174.554 183.241L178.514 182.417L179.404 176.002L181.072 181.884L210.496 175.76C209.89 172.848 208.716 170.083 207.042 167.624C205.368 165.165 203.226 163.06 200.738 161.429C198.251 159.799 195.467 158.674 192.545 158.119C189.622 157.564 186.62 157.591 183.708 158.197L179.443 159.084C173.562 160.308 168.408 163.819 165.115 168.843C161.822 173.868 160.66 179.996 161.883 185.878Z" fill="#2F2E41"/>
<path d="M246.642 24.9659L246.587 25.0704C235.782 20.0914 223.476 19.4606 212.218 23.3087C200.961 27.1568 191.615 35.1889 186.116 45.741C180.618 56.2931 179.389 68.5564 182.683 79.9903C185.977 91.4242 193.543 101.152 203.813 107.159L203.758 107.264L286.039 150.156L328.923 67.8583C331.746 62.4539 333.476 56.5461 334.015 50.4725C334.553 44.3989 333.89 38.2787 332.062 32.4616C330.235 26.6446 327.279 21.2449 323.364 16.5711C319.449 11.8974 314.651 8.04121 309.245 5.2231C303.839 2.40499 297.931 0.680186 291.858 0.147287C285.785 -0.385613 279.667 0.28384 273.853 2.11738C268.039 3.95092 262.643 6.9126 257.974 10.8331C253.305 14.7536 249.454 19.556 246.642 24.9659Z" fill="#7B2CBF"/>
<path d="M319.948 497.217L319.934 497.244C317.203 495.985 314.093 495.826 311.247 496.798C308.402 497.771 306.04 499.801 304.65 502.468C303.26 505.135 302.949 508.235 303.782 511.124C304.615 514.014 306.527 516.473 309.123 517.991L309.109 518.018L329.905 528.859L340.744 508.058C341.458 506.692 341.895 505.199 342.032 503.664C342.168 502.129 342 500.582 341.538 499.111C341.077 497.641 340.33 496.276 339.34 495.095C338.35 493.913 337.138 492.939 335.771 492.226C334.405 491.514 332.911 491.078 331.376 490.943C329.841 490.809 328.295 490.978 326.825 491.441C325.356 491.905 323.992 492.654 322.812 493.645C321.632 494.636 320.659 495.85 319.948 497.217Z" fill="#FF6584"/>
<path d="M44.0731 233.472V233.59C32.1904 234.17 20.9861 239.299 12.7813 247.916C4.57646 256.532 -5.52417e-06 267.976 0 279.875C5.52418e-06 291.774 4.57649 303.217 12.7813 311.834C20.9862 320.45 32.1905 325.58 44.0731 326.159V326.277L136.859 326.277L136.859 233.472C136.865 227.375 135.669 221.336 133.34 215.701C131.011 210.066 127.595 204.946 123.287 200.632C118.978 196.319 113.862 192.897 108.23 190.562C102.599 188.227 96.5621 187.025 90.466 187.025C84.3698 187.025 78.3334 188.227 72.7019 190.562C67.0703 192.897 61.954 196.319 57.6455 200.632C53.3369 204.946 49.9205 210.066 47.5917 215.701C45.2629 221.336 44.0672 227.375 44.0731 233.472Z" fill="#7B2CBF"/>
<path d="M476.491 530H12.8665C12.6403 530 12.4234 529.91 12.2635 529.75C12.1035 529.59 12.0137 529.373 12.0137 529.147C12.0137 528.921 12.1035 528.704 12.2635 528.544C12.4234 528.384 12.6403 528.294 12.8665 528.294H476.491C476.717 528.294 476.934 528.384 477.094 528.544C477.254 528.704 477.343 528.921 477.343 529.147C477.343 529.373 477.254 529.59 477.094 529.75C476.934 529.91 476.717 530 476.491 530Z" fill="#CACACA"/>
<path d="M402.675 321.147C412.152 321.088 421.315 317.742 428.601 311.681C436.019 305.441 440.901 296.705 442.329 287.116C443.167 281.695 442.897 276.161 441.535 270.848C441.452 270.582 441.268 270.358 441.024 270.225C440.779 270.092 440.492 270.058 440.223 270.132C439.954 270.207 439.725 270.382 439.583 270.622C439.441 270.862 439.398 271.148 439.463 271.419C441.76 280.441 440.723 289.989 436.545 298.307C433.335 304.528 428.478 309.747 422.506 313.395C416.533 317.044 409.673 318.982 402.675 318.998C402.396 319.007 402.132 319.125 401.939 319.325C401.745 319.526 401.637 319.793 401.637 320.072C401.637 320.351 401.745 320.619 401.939 320.819C402.132 321.02 402.396 321.137 402.675 321.147Z" fill="#F0F0F0"/>
<path d="M236.756 41.9965C230.642 36.1918 220.989 36.207 213.928 40.2479C206.005 44.7827 202.413 54.1531 202.594 62.9512C202.799 72.8533 207.639 81.8191 213.889 89.245C220.551 96.9609 228.302 103.663 236.899 109.139C245.473 114.723 254.749 119.145 264.486 122.288C265.684 122.674 266.889 123.04 268.1 123.387C268.371 123.451 268.657 123.408 268.896 123.266C269.136 123.124 269.312 122.895 269.386 122.626C269.46 122.357 269.427 122.07 269.294 121.826C269.16 121.581 268.937 121.398 268.671 121.314C249.973 115.97 232.973 105.882 219.322 92.0282C212.824 85.371 207.049 77.3701 205.272 68.0577C203.704 59.8337 205.437 50.2849 211.81 44.4269C218.005 38.7324 228.848 37.4502 235.237 43.5163C236.239 44.4684 237.761 42.9511 236.756 41.9965Z" fill="white"/>
<path d="M42.4856 256.08C34.2275 255.053 26.4719 260.862 23.2555 268.2C19.6486 276.429 22.0804 285.915 27.3124 292.87C33.0744 300.529 41.8023 304.994 50.9256 307.364C60.7189 309.908 71.1149 310.595 81.196 310.125C93.1132 309.573 104.873 307.182 116.06 303.037C117.346 302.56 116.79 300.482 115.489 300.964C96.8663 307.881 76.1345 310.062 56.5511 306.411C47.7974 304.779 38.8821 301.665 32.3589 295.366C26.4483 289.658 22.2669 281.014 24.0457 272.666C25.8133 264.37 33.6984 257.136 42.4856 258.229C43.8545 258.399 43.8421 256.249 42.4856 256.08Z" fill="white"/>
<path d="M179.875 150.806C181.873 142.819 178.004 134.253 172.014 128.608C166.024 122.962 158.207 119.717 150.471 116.908C144.301 114.668 137.075 112.719 131.491 116.169C127.004 118.942 125.058 124.328 122.493 128.937C117.605 137.721 109.72 144.451 100.278 147.897C90.837 151.342 80.471 151.274 71.0762 147.703C74.3876 157.318 85.7939 162.022 95.9404 161.368C106.087 160.715 115.458 156.042 124.91 152.294C134.362 148.546 144.876 145.651 154.591 148.652C158.691 149.919 162.42 152.179 166.48 153.571C170.539 154.962 175.29 155.376 178.908 153.068" fill="#2F2E41"/>
<path d="M321.989 443.301L315.072 431.124C314.923 430.889 314.689 430.72 314.418 430.654C314.147 430.588 313.861 430.629 313.62 430.77C313.38 430.911 313.203 431.139 313.128 431.408C313.053 431.676 313.084 431.964 313.217 432.209L320.133 444.386C320.282 444.622 320.517 444.79 320.788 444.856C321.058 444.923 321.344 444.881 321.585 444.74C321.826 444.599 322.002 444.371 322.078 444.102C322.153 443.834 322.121 443.546 321.989 443.301Z" fill="#F0F0F0"/>
</g>
<defs>
<clipPath id="clip0_1370_4963">
<rect width="491" height="530" fill="white"/>
</clipPath>
</defs>
</svg>
