<svg width="25" height="25" viewBox="0 0 25 25" fill="none" xmlns="http://www.w3.org/2000/svg">
<path d="M18.9672 16.9264L19.891 17.309V17.309L18.9672 16.9264ZM15.1788 20.7147L15.5615 21.6386H15.5615L15.1788 20.7147ZM9.82122 20.7147L9.43853 21.6386L9.43853 21.6386L9.82122 20.7147ZM7.55025 19.1973L8.25736 18.4902H8.25736L7.55025 19.1973ZM6.03284 16.9264L5.10896 17.309L6.03284 16.9264ZM15.9118 6.31876L15.2707 5.55132L15.9118 6.31876ZM16.088 6.31866L16.7292 5.55124L16.088 6.31866ZM13.6087 8.78545L12.6614 9.10571L13.6087 8.78545ZM13.8939 8.81183L14.7624 9.30761L13.8939 8.81183ZM10.3092 3.33431L9.64384 2.58777L10.3092 3.33431ZM10.5029 3.34562L9.77072 4.02673L10.5029 3.34562ZM9.64384 2.58777C8.88115 3.26751 4.5 7.45373 4.5 14.2476H6.5C6.5 8.32624 10.3425 4.64412 10.9745 4.08085L9.64384 2.58777ZM14.5561 8.46519C13.4477 5.18663 11.7024 3.16684 11.2351 2.6645L9.77072 4.02673C10.1202 4.40238 11.6734 6.18325 12.6614 9.10571L14.5561 8.46519ZM14.7624 9.30761C15.4998 8.01577 16.3298 7.27257 16.5529 7.08621L15.2707 5.55132C14.9255 5.8397 13.9146 6.75855 13.0255 8.31606L14.7624 9.30761ZM15.4469 7.08608C15.8898 7.45612 18.5 9.82572 18.5 14.1888H20.5C20.5 8.96613 17.3719 6.08824 16.7292 5.55124L15.4469 7.08608ZM18.5 14.1888V14.2476H20.5V14.1888H18.5ZM18.5 14.2476C18.5 15.0355 18.3448 15.8157 18.0433 16.5437L19.891 17.309C20.2931 16.3384 20.5 15.2982 20.5 14.2476H18.5ZM18.0433 16.5437C17.7417 17.2716 17.2998 17.9331 16.7426 18.4902L18.1569 19.9044C18.8997 19.1616 19.489 18.2796 19.891 17.309L18.0433 16.5437ZM16.7426 18.4902C16.1855 19.0474 15.5241 19.4893 14.7961 19.7909L15.5615 21.6386C16.5321 21.2366 17.414 20.6473 18.1569 19.9044L16.7426 18.4902ZM14.7961 19.7909C14.0681 20.0924 13.2879 20.2476 12.5 20.2476V22.2476C13.5506 22.2476 14.5909 22.0407 15.5615 21.6386L14.7961 19.7909ZM12.5 20.2476C11.7121 20.2476 10.9319 20.0924 10.2039 19.7909L9.43853 21.6386C10.4091 22.0407 11.4494 22.2476 12.5 22.2476V20.2476ZM10.2039 19.7909C9.47595 19.4893 8.81451 19.0474 8.25736 18.4902L6.84314 19.9044C7.58601 20.6473 8.46793 21.2366 9.43853 21.6386L10.2039 19.7909ZM8.25736 18.4902C7.70021 17.9331 7.25825 17.2716 6.95672 16.5437L5.10896 17.309C5.511 18.2796 6.10028 19.1616 6.84315 19.9044L8.25736 18.4902ZM6.95672 16.5437C6.65519 15.8157 6.5 15.0355 6.5 14.2476H4.5C4.5 15.2982 4.70693 16.3384 5.10896 17.309L6.95672 16.5437ZM16.5529 7.08621C16.2344 7.35229 15.7677 7.35411 15.4469 7.08608L16.7292 5.55124C16.3053 5.19714 15.6922 5.19917 15.2707 5.55132L16.5529 7.08621ZM12.6614 9.10571C12.9857 10.0649 14.2768 10.1582 14.7624 9.30761L13.0255 8.31606C13.3788 7.6972 14.3172 7.75874 14.5561 8.46519L12.6614 9.10571ZM10.9745 4.08085C10.6037 4.41132 10.0681 4.34643 9.77072 4.02673L11.2351 2.6645C10.8327 2.23196 10.1297 2.15476 9.64384 2.58777L10.9745 4.08085Z" fill="#B3B3B3"/>
<path d="M11.9581 11.6577L11.3311 10.8787V10.8787L11.9581 11.6577ZM8.54628 16.6319L7.55717 16.4847H7.55717L8.54628 16.6319ZM13.0421 11.6578L13.669 10.8787L13.0421 11.6578ZM16.4537 16.6319L15.4646 16.7791L15.4646 16.7791L16.4537 16.6319ZM16.458 16.666L15.4634 16.7699C15.4648 16.7833 15.4665 16.7967 15.4685 16.8101L16.458 16.666ZM8.54197 16.666L9.53153 16.8101C9.53347 16.7967 9.53515 16.7833 9.53655 16.7699L8.54197 16.666ZM11.3311 10.8787C10.7968 11.3086 9.96733 12.0405 9.21968 12.9793C8.47947 13.9087 7.76126 15.1134 7.55717 16.4847L9.53538 16.7792C9.66671 15.8967 10.153 15.0177 10.7842 14.2253C11.4078 13.4421 12.1165 12.8138 12.585 12.4368L11.3311 10.8787ZM13.669 10.8787C12.9825 10.3262 12.0176 10.3262 11.3311 10.8787L12.585 12.4368C12.567 12.4513 12.5365 12.4644 12.5001 12.4644C12.4636 12.4644 12.4331 12.4513 12.4151 12.4368L13.669 10.8787ZM17.4428 16.4848C17.2387 15.1134 16.5206 13.9088 15.7804 12.9793C15.0328 12.0406 14.2033 11.3087 13.669 10.8787L12.4151 12.4368C12.8836 12.8138 13.5922 13.4421 14.2159 14.2253C14.847 15.0177 15.3333 15.8967 15.4646 16.7791L17.4428 16.4848ZM17.4526 16.5622C17.4499 16.5363 17.4467 16.5105 17.4428 16.4848L15.4646 16.7791C15.4642 16.7761 15.4638 16.773 15.4634 16.7699L17.4526 16.5622ZM15.4685 16.8101C15.4892 16.9524 15.5 17.0984 15.5 17.2475H17.5C17.5 17.0016 17.4822 16.7593 17.4476 16.5219L15.4685 16.8101ZM15.5 17.2475C15.5 18.9044 14.1569 20.2475 12.5 20.2475V22.2475C15.2614 22.2475 17.5 20.0089 17.5 17.2475H15.5ZM12.5 20.2475C10.8431 20.2475 9.5 18.9044 9.5 17.2475H7.5C7.5 20.0089 9.73858 22.2475 12.5 22.2475V20.2475ZM9.5 17.2475C9.5 17.0984 9.51081 16.9524 9.53153 16.8101L7.55241 16.5218C7.51783 16.7593 7.5 17.0016 7.5 17.2475H9.5ZM7.55717 16.4847C7.55334 16.5105 7.55008 16.5363 7.54738 16.5621L9.53655 16.7699C9.53623 16.773 9.53583 16.7761 9.53538 16.7792L7.55717 16.4847Z" fill="#B3B3B3"/>
</svg>
