<svg width="52" height="52" viewBox="0 0 52 52" fill="none" xmlns="http://www.w3.org/2000/svg">
<path d="M38.1968 0C38.5691 0.235097 38.8238 0.54856 38.6671 1.00896C38.5005 1.46936 38.1087 1.52813 37.6678 1.52813C26.6273 1.51834 15.5965 1.51834 4.55596 1.52813C2.54769 1.52813 1.51907 2.54689 1.51907 4.55501C1.51907 9.39409 1.51907 14.2332 1.51907 19.082C1.51907 20.4632 2.2538 21.482 3.50774 21.7857C3.83102 21.864 4.1739 21.864 4.51677 21.864C8.77821 21.864 13.0495 21.8738 17.3109 21.864C18.8587 21.8542 20.0931 22.4126 21.0531 23.6371C22.3658 25.3219 23.7177 26.9676 25.0501 28.6329C25.7456 29.5047 26.255 29.5047 26.9506 28.6427C28.3025 26.948 29.6642 25.2631 31.0063 23.5685C31.9173 22.4126 33.1125 21.864 34.5722 21.864C38.8924 21.864 43.2028 21.8248 47.523 21.8836C49.3941 21.913 50.5109 20.5906 50.5011 18.8861C50.4522 14.096 50.4816 9.30593 50.4816 4.51582C50.4816 2.57627 49.4431 1.53793 47.5034 1.53793C45.4168 1.53793 43.34 1.52813 41.2533 1.54772C40.8125 1.54772 40.4206 1.49874 40.2541 1.02855C40.1072 0.54856 40.3619 0.244893 40.7341 0C43.34 0 45.9458 0 48.5517 0C48.6594 0.0391828 48.7672 0.0783657 48.8749 0.107753C50.1191 0.460399 51.0595 1.19508 51.6081 2.37056C51.7649 2.71341 51.8726 3.08565 52 3.44809C52 8.93369 52 14.4193 52 19.9049C51.7551 20.7963 51.422 21.6485 50.6971 22.2559C50.4032 22.5008 50.3248 22.7652 50.3248 23.1277C50.3346 27.8982 50.3346 32.6687 50.3346 37.4392C50.3346 39.4375 50.3346 41.4359 50.3444 43.4244C50.3444 43.5909 50.4032 43.8554 50.5011 43.9044C51.2751 44.2374 51.6669 44.884 52 45.599C52 46.5786 52 47.5582 52 48.5476C51.9608 48.6553 51.9118 48.7631 51.8824 48.8806C51.4024 50.7124 49.7958 51.9956 47.9247 51.9956C35.5126 52.0054 23.1104 51.9956 10.6983 51.9956C10.1105 51.9956 9.75786 51.7018 9.75786 51.2414C9.75786 50.7712 10.1105 50.4871 10.6983 50.4773C10.8355 50.4773 10.9726 50.4773 11.1 50.4773C23.1887 50.4773 35.2677 50.4773 47.3565 50.4773C47.5426 50.4773 47.7288 50.4871 47.9149 50.4773C49.1786 50.4185 50.1877 49.5957 50.3934 48.3418C50.4913 47.7443 50.462 47.1272 50.4718 46.5198C50.4816 45.5795 50.1779 45.2856 49.2276 45.2856C43.8788 45.2856 38.5299 45.2856 33.1811 45.2856C32.6815 45.2856 32.0447 45.1386 31.7116 45.3835C31.3981 45.6088 31.4079 46.2652 31.2806 46.7353C30.9573 47.9108 30.0462 48.6259 28.8413 48.6357C26.9408 48.6455 25.0501 48.6455 23.1496 48.6357C21.9446 48.6357 21.0335 47.9108 20.72 46.7353C20.6319 46.3925 20.5143 46.0496 20.4653 45.7068C20.4164 45.3639 20.2596 45.2758 19.9265 45.2758C14.1564 45.2856 8.38636 45.2856 2.60647 45.2856C1.86194 45.2856 1.52887 45.6284 1.51907 46.3729C1.50927 46.8137 1.51907 47.2545 1.51907 47.6953C1.52887 49.3606 2.62607 50.4675 4.28166 50.4773C5.30049 50.4871 6.30952 50.4773 7.32834 50.4773C7.92593 50.4773 8.24921 50.7614 8.23941 51.2512C8.22961 51.7214 7.91613 51.9956 7.34794 51.9956C6.25074 51.9956 5.14374 52.0054 4.04655 51.9956C2.13624 51.9761 0.451261 50.6438 0.108387 48.7533C-0.0385597 47.9304 0.0104224 47.0684 0.000625965 46.226C-0.0189669 45.2562 0.421872 44.5215 1.25457 44.0709C1.57785 43.8946 1.66602 43.7085 1.66602 43.3656C1.65622 36.5968 1.66602 29.8279 1.64642 23.0591C1.64642 22.8142 1.50927 22.5105 1.33294 22.3342C0.51004 21.5016 0.0104224 20.5318 0.000625965 19.3563C0.000625965 14.2626 0.000625965 9.16879 0.000625965 4.07502C0.000625965 3.18361 0.294518 2.39015 0.813728 1.66527C1.47009 0.75427 2.41054 0.293871 3.44896 0C15.0283 0 26.6175 0 38.1968 0ZM6.61321 43.7085C19.5739 43.7085 32.4757 43.7085 45.3776 43.7085C45.3776 36.9298 45.3776 30.1904 45.3776 23.4118C45.1719 23.4118 45.0054 23.4118 44.8388 23.4118C41.4395 23.4118 38.0401 23.4313 34.631 23.402C33.5533 23.3922 32.7598 23.8036 32.1035 24.6362C30.7614 26.3603 29.3899 28.0549 28.0184 29.7496C26.8918 31.1602 25.1088 31.1602 23.9823 29.7496C22.6108 28.0353 21.2197 26.3211 19.8678 24.597C19.2212 23.7742 18.4277 23.3922 17.3697 23.402C13.9703 23.4215 10.571 23.4118 7.16181 23.4118C6.98547 23.4118 6.79934 23.4313 6.60341 23.4411C6.61321 30.2198 6.61321 36.9494 6.61321 43.7085ZM3.25304 43.7477C3.69387 43.7477 4.08573 43.7183 4.46779 43.7574C4.94782 43.8064 5.05558 43.6105 5.05558 43.1599C5.04578 36.7829 5.04578 30.4059 5.04578 24.0289C5.04578 23.8428 5.04578 23.6664 5.04578 23.4509C4.41881 23.4216 3.85062 23.3824 3.26283 23.353C3.25304 30.1512 3.25304 36.9102 3.25304 43.7477ZM48.7476 43.7183C48.7476 36.9005 48.7476 30.1414 48.7476 23.3432C48.15 23.3824 47.5818 23.4118 47.0136 23.4411C47.0136 30.2198 47.0136 36.9592 47.0136 43.7085C47.6014 43.7183 48.1598 43.7183 48.7476 43.7183ZM30.0364 45.3052C27.3424 45.3052 24.668 45.3052 21.9642 45.3052C22.023 45.5403 22.0719 45.746 22.1307 45.9615C22.3854 46.9704 22.5618 47.1174 23.5806 47.1174C25.0305 47.1174 26.4901 47.1174 27.94 47.1174C29.6348 47.1174 29.7034 47.0684 30.0364 45.3052Z" fill="black"/>
<path d="M22.1505 12.0198C22.8656 11.7357 23.5514 11.579 24.2959 11.7651C26.0005 12.1863 27.0095 13.9397 26.4805 15.605C25.9515 17.2801 24.1196 18.1715 22.4934 17.5152C22.1995 17.3976 22.0133 17.3486 21.739 17.5837C21.5823 17.7111 21.161 17.7405 21.0043 17.6229C20.7888 17.4564 20.5831 17.1233 20.5733 16.8491C20.5243 15.6148 20.5537 14.3805 20.5537 13.1463C20.5537 12.2353 20.5537 11.3243 20.5537 10.4133C20.5537 9.83532 20.8574 9.47288 21.3178 9.46308C21.7782 9.45329 22.0721 9.81573 22.0917 10.3937C22.1015 10.9031 22.1015 11.4026 22.1113 11.912C22.1113 11.9316 22.1211 11.9512 22.1505 12.0198ZM23.6101 16.1829C24.4428 16.1731 25.0796 15.5266 25.0698 14.694C25.06 13.881 24.3841 13.205 23.5808 13.2148C22.7872 13.2246 22.1015 13.9201 22.1015 14.7136C22.1113 15.5364 22.7872 16.1927 23.6101 16.1829Z" fill="black"/>
<path d="M7.7699 17.2113C6.24166 17.7109 5.02691 17.3876 4.25299 16.3003C3.54765 15.2913 3.56724 13.9787 4.31177 12.9893C5.08569 11.9608 6.32983 11.6571 7.76011 12.1665C7.82868 12.0783 7.89726 11.9216 7.99522 11.8824C8.24993 11.7845 8.55362 11.6375 8.76914 11.7061C8.98466 11.7747 9.21977 12.0685 9.26875 12.3036C9.35692 12.7249 9.30794 13.1755 9.30794 13.6163C9.30794 14.6448 9.30794 15.6832 9.30794 16.7117C9.30794 17.1427 9.24916 17.5248 8.77893 17.6913C8.40667 17.8284 8.15196 17.7109 7.7699 17.2113ZM7.7699 14.6938C7.7699 13.9983 7.20171 13.4301 6.51596 13.4399C5.84001 13.4497 5.30121 13.9983 5.30121 14.684C5.30121 15.3795 5.8694 15.9574 6.55515 15.9476C7.2213 15.9183 7.76011 15.3599 7.7699 14.6938Z" fill="black"/>
<path d="M27.2238 9.46281C27.6745 9.46281 28.0271 9.45302 28.37 9.46281C28.899 9.47261 29.2615 9.79587 29.2615 10.2367C29.2615 10.6579 28.9382 10.9909 28.419 11.0007C27.5373 11.0203 26.6556 11.0399 25.7838 10.9909C25.0098 10.9518 24.6963 10.3052 25.147 9.65873C25.725 8.82609 26.3421 8.02285 26.9299 7.19021C27.1063 6.94532 27.2532 6.68083 27.3904 6.40655C27.5569 6.0637 27.4981 5.75024 27.1455 5.59351C26.7928 5.43678 26.4793 5.53473 26.3226 5.92656C26.2932 5.98534 26.2736 6.05391 26.2442 6.11268C26.0483 6.5339 25.6564 6.71022 25.2449 6.56328C24.8825 6.42614 24.7061 6.04411 24.8041 5.6033C25.0784 4.43761 26.2932 3.72253 27.4687 4.05558C28.6149 4.37884 29.3007 5.6033 28.899 6.72981C28.7325 7.20001 28.4582 7.64081 28.1937 8.06203C27.9194 8.52243 27.5961 8.93385 27.2238 9.46281Z" fill="black"/>
<path d="M44.2701 9.46263C44.7502 9.46263 45.1028 9.45284 45.4555 9.46263C45.9551 9.48222 46.298 9.79569 46.3078 10.2267C46.3176 10.6577 46.0041 10.9908 45.4849 11.0104C44.6032 11.0299 43.7215 11.0495 42.8497 11.0006C42.0464 10.9614 41.7525 10.3051 42.2227 9.63896C42.7909 8.82591 43.4081 8.03246 43.9861 7.21941C44.1722 6.95493 44.3191 6.67085 44.4661 6.38678C44.6424 6.05372 44.5249 5.76965 44.2114 5.62271C43.8881 5.46598 43.5746 5.54435 43.3983 5.89699C43.3493 5.98515 43.3297 6.09291 43.2905 6.18107C43.1044 6.5631 42.6929 6.74922 42.3207 6.59249C41.9288 6.42596 41.7525 6.12229 41.8406 5.69128C42.0757 4.52559 43.2905 3.78112 44.4661 4.07499C45.6612 4.37866 46.3764 5.59333 45.9649 6.73942C45.7788 7.26839 45.4555 7.75818 45.1518 8.24796C44.8971 8.63 44.5934 9.00223 44.2701 9.46263Z" fill="black"/>
<path d="M10.6006 9.45282C11.0806 9.45282 11.4529 9.44303 11.8252 9.45282C12.3346 9.47241 12.6383 9.77608 12.6383 10.2365C12.6383 10.6773 12.3444 10.9712 11.8545 10.981C10.9729 11.0005 10.0912 11.0005 9.21931 10.981C8.4258 10.9516 8.10252 10.2855 8.55315 9.62915C9.10175 8.83569 9.69933 8.08142 10.2479 7.28797C10.4635 6.9843 10.6398 6.66104 10.8063 6.32799C10.9631 5.99494 10.8259 5.72066 10.5026 5.58352C10.15 5.42678 9.87567 5.56392 9.70913 5.89698C9.67974 5.95575 9.67974 6.02432 9.65035 6.09289C9.45442 6.5239 9.07236 6.71982 8.66091 6.58268C8.28865 6.45533 8.08293 6.03412 8.19069 5.58352C8.4356 4.52558 9.63076 3.7811 10.6888 4.0162C12.0603 4.32966 12.7852 5.65209 12.217 6.93532C11.9329 7.57205 11.4921 8.14999 11.11 8.74753C10.9729 8.95324 10.8161 9.14916 10.6006 9.45282Z" fill="black"/>
<path d="M37.3262 14.7625C37.4045 12.4214 39.8634 10.9422 41.8717 12.0687C42.4105 12.3724 42.5868 12.7936 42.3419 13.2246C42.1166 13.636 41.7052 13.7046 41.1468 13.4303C40.5002 13.1169 39.8341 13.1952 39.3638 13.6654C38.9132 14.116 38.7956 14.7723 39.0699 15.3503C39.3442 15.9184 39.932 16.2711 40.559 16.1633C40.7941 16.1241 41.0292 15.987 41.2251 15.8401C41.6856 15.4874 42.0676 15.4678 42.3909 15.8205C42.6946 16.1437 42.6456 16.6041 42.2734 16.996C40.9998 18.3086 38.5997 17.8482 37.7376 16.1046C37.5417 15.6833 37.4633 15.2033 37.3262 14.7625Z" fill="black"/>
<path d="M15.5096 15.2223C15.157 15.2223 14.8533 15.2321 14.5594 15.2223C14.0598 15.1929 13.7463 14.8795 13.7561 14.4289C13.7659 13.9979 14.0598 13.7236 14.5496 13.6942C14.6965 13.6844 14.8533 13.6942 15.01 13.6844C15.157 13.6746 15.3039 13.6648 15.5096 13.655C15.5096 13.322 15.49 13.0281 15.5096 12.7244C15.539 12.215 15.8623 11.8918 16.2934 11.9016C16.7244 11.9114 17.0281 12.2346 17.0673 12.744C17.0869 13.0281 17.0673 13.3122 17.0673 13.6844C17.371 13.6844 17.6257 13.6844 17.8902 13.6844C18.5073 13.6942 18.8208 13.9587 18.8208 14.4485C18.8208 14.9383 18.4878 15.2125 17.9 15.2321C17.6453 15.2321 17.4003 15.2321 17.0673 15.2321C17.0673 15.526 17.0771 15.7905 17.0673 16.0452C17.0477 16.6427 16.7832 16.9758 16.3031 16.9856C15.8035 16.9954 15.5194 16.6525 15.5096 16.0256C15.4998 15.7709 15.5096 15.526 15.5096 15.2223Z" fill="black"/>
<path d="M33.1506 12.5385C33.709 12.5385 34.2674 12.5287 34.816 12.5385C35.3744 12.5581 35.6879 12.852 35.6781 13.3222C35.6683 13.7826 35.345 14.0863 34.7964 14.0961C33.6796 14.1058 32.5726 14.1058 31.4558 14.0961C30.9072 14.0863 30.5938 13.7826 30.5938 13.3124C30.5938 12.8422 30.8974 12.5679 31.4656 12.5483C32.0338 12.5287 32.5922 12.5385 33.1506 12.5385Z" fill="black"/>
<path d="M33.1408 16.349C32.5824 16.349 32.024 16.3588 31.4656 16.349C30.917 16.3392 30.6035 16.0453 30.6035 15.5653C30.6133 15.1049 30.917 14.8306 31.4362 14.8208C32.5726 14.811 33.6992 14.811 34.8356 14.8208C35.3548 14.8208 35.6683 15.1147 35.6781 15.5653C35.6879 16.0159 35.3646 16.3294 34.865 16.3392C34.287 16.3588 33.7188 16.349 33.1408 16.349Z" fill="black"/>
<path d="M25.0217 36.8617C23.6502 36.8617 22.2787 36.8617 20.9072 36.8617C19.8688 36.8617 19.232 36.2348 19.2124 35.1964C19.2026 34.6381 19.2026 34.0797 19.2124 33.5214C19.2418 32.6398 19.8296 31.9834 20.7015 31.9834C23.5816 31.9639 26.452 31.9639 29.3321 31.9834C30.204 31.9932 30.7918 32.6398 30.8212 33.5214C30.8408 34.0993 30.8408 34.6675 30.8212 35.2454C30.8016 36.2152 30.1452 36.8519 29.1754 36.8519C27.7941 36.8715 26.4128 36.8617 25.0217 36.8617ZM20.7799 35.2944C23.6404 35.2944 26.452 35.2944 29.2733 35.2944C29.2733 34.6871 29.2733 34.1189 29.2733 33.5312C26.4324 33.5312 23.6208 33.5312 20.7799 33.5312C20.7799 34.1287 20.7799 34.6969 20.7799 35.2944Z" fill="black"/>
</svg>

