<svg width="368" height="114" viewBox="0 0 368 114" fill="none" xmlns="http://www.w3.org/2000/svg">
<path d="M191.42 97.8137C191.287 97.8137 191.18 97.7737 191.1 97.6937C191.033 97.6137 191 97.5204 191 97.4137V84.2137C191 84.1071 191.04 84.0137 191.12 83.9337C191.2 83.8537 191.293 83.8137 191.4 83.8137H196.68C197.467 83.8137 198.153 83.9737 198.74 84.2937C199.34 84.6004 199.807 85.0271 200.14 85.5737C200.473 86.1204 200.64 86.7404 200.64 87.4337C200.64 88.0471 200.527 88.6004 200.3 89.0937C200.087 89.5871 199.78 90.0004 199.38 90.3337C198.993 90.6537 198.547 90.8871 198.04 91.0337L197.12 90.8737C197.653 90.8737 198.16 91.0137 198.64 91.2937C199.12 91.5604 199.513 91.9604 199.82 92.4937C200.127 93.0137 200.28 93.6537 200.28 94.4137C200.28 95.0671 200.307 95.5671 200.36 95.9137C200.427 96.2471 200.507 96.4937 200.6 96.6537C200.707 96.8137 200.827 96.9404 200.96 97.0337C201.04 97.0871 201.1 97.1537 201.14 97.2337C201.18 97.3137 201.187 97.4071 201.16 97.5137C201.133 97.5937 201.087 97.6604 201.02 97.7137C200.967 97.7537 200.907 97.7804 200.84 97.7937C200.773 97.8071 200.7 97.7937 200.62 97.7537C200.433 97.6471 200.247 97.4871 200.06 97.2737C199.887 97.0604 199.74 96.7337 199.62 96.2937C199.5 95.8537 199.44 95.2271 199.44 94.4137C199.44 93.7871 199.34 93.2871 199.14 92.9137C198.953 92.5404 198.707 92.2537 198.4 92.0537C198.107 91.8537 197.787 91.7204 197.44 91.6537C197.107 91.5871 196.8 91.5537 196.52 91.5537H191.66L191.84 91.3137V97.4137C191.84 97.5204 191.8 97.6137 191.72 97.6937C191.64 97.7737 191.54 97.8137 191.42 97.8137ZM191.64 90.7537H196.78C197.313 90.7004 197.807 90.5404 198.26 90.2737C198.713 90.0071 199.08 89.6337 199.36 89.1537C199.653 88.6737 199.8 88.1071 199.8 87.4537C199.8 86.6404 199.507 85.9671 198.92 85.4337C198.347 84.8871 197.567 84.6137 196.58 84.6137H191.74L191.84 84.4737V90.9737L191.64 90.7537ZM231.646 90.8137C231.646 91.8804 231.479 92.8537 231.146 93.7337C230.826 94.6137 230.366 95.3737 229.766 96.0137C229.166 96.6537 228.459 97.1471 227.646 97.4937C226.833 97.8404 225.939 98.0137 224.966 98.0137C223.993 98.0137 223.099 97.8404 222.286 97.4937C221.473 97.1471 220.766 96.6537 220.166 96.0137C219.566 95.3737 219.099 94.6137 218.766 93.7337C218.446 92.8537 218.286 91.8804 218.286 90.8137C218.286 89.7471 218.446 88.7737 218.766 87.8937C219.099 87.0137 219.566 86.2537 220.166 85.6137C220.766 84.9737 221.473 84.4804 222.286 84.1337C223.099 83.7871 223.993 83.6137 224.966 83.6137C225.939 83.6137 226.833 83.7871 227.646 84.1337C228.459 84.4804 229.166 84.9737 229.766 85.6137C230.366 86.2537 230.826 87.0137 231.146 87.8937C231.479 88.7737 231.646 89.7471 231.646 90.8137ZM230.806 90.8137C230.806 89.5337 230.553 88.4137 230.046 87.4537C229.553 86.4937 228.866 85.7471 227.986 85.2137C227.119 84.6804 226.113 84.4137 224.966 84.4137C223.833 84.4137 222.826 84.6804 221.946 85.2137C221.066 85.7471 220.373 86.4937 219.866 87.4537C219.373 88.4137 219.126 89.5337 219.126 90.8137C219.126 92.0937 219.373 93.2137 219.866 94.1737C220.373 95.1337 221.066 95.8804 221.946 96.4137C222.826 96.9471 223.833 97.2137 224.966 97.2137C226.113 97.2137 227.119 96.9471 227.986 96.4137C228.866 95.8804 229.553 95.1337 230.046 94.1737C230.553 93.2137 230.806 92.0937 230.806 90.8137ZM250.218 83.8137C250.284 83.8137 250.351 83.8271 250.418 83.8537C250.484 83.8804 250.544 83.9271 250.598 83.9937L256.338 92.5337H255.938L261.678 83.9937C261.784 83.8471 261.911 83.7871 262.058 83.8137C262.164 83.8271 262.251 83.8737 262.318 83.9537C262.384 84.0204 262.418 84.1071 262.418 84.2137V97.4137C262.418 97.5204 262.371 97.6137 262.278 97.6937C262.198 97.7737 262.104 97.8137 261.998 97.8137C261.878 97.8137 261.778 97.7737 261.698 97.6937C261.618 97.6137 261.578 97.5204 261.578 97.4137V85.1137H261.798L256.418 93.2537C256.391 93.3071 256.351 93.3471 256.298 93.3737C256.258 93.4004 256.204 93.4137 256.138 93.4137C256.071 93.4137 256.004 93.4004 255.938 93.3737C255.884 93.3471 255.844 93.3071 255.818 93.2537L250.318 84.9537H250.638V97.4137C250.638 97.5204 250.598 97.6137 250.518 97.6937C250.438 97.7737 250.344 97.8137 250.238 97.8137C250.118 97.8137 250.018 97.7737 249.938 97.6937C249.871 97.6137 249.838 97.5204 249.838 97.4137V84.2137C249.838 84.1204 249.871 84.0337 249.938 83.9537C250.004 83.8604 250.098 83.8137 250.218 83.8137ZM289.36 97.0137C289.466 97.0137 289.56 97.0537 289.64 97.1337C289.72 97.2137 289.76 97.3071 289.76 97.4137C289.76 97.5337 289.72 97.6337 289.64 97.7137C289.56 97.7804 289.466 97.8137 289.36 97.8137H282.02C281.9 97.8137 281.8 97.7737 281.72 97.6937C281.653 97.6137 281.62 97.5204 281.62 97.4137V84.2137C281.62 84.1071 281.66 84.0137 281.74 83.9337C281.82 83.8537 281.92 83.8137 282.04 83.8137C282.16 83.8137 282.26 83.8537 282.34 83.9337C282.42 84.0137 282.46 84.1071 282.46 84.2137V97.3737L282.1 97.0137H289.36ZM307.669 83.8137H315.209C315.315 83.8137 315.409 83.8537 315.489 83.9337C315.569 84.0137 315.609 84.1071 315.609 84.2137C315.609 84.3337 315.569 84.4337 315.489 84.5137C315.409 84.5804 315.315 84.6137 315.209 84.6137H307.909L308.109 84.2737V90.4737L307.869 90.1937H314.309C314.415 90.1937 314.509 90.2337 314.589 90.3137C314.669 90.3937 314.709 90.4871 314.709 90.5937C314.709 90.7137 314.669 90.8137 314.589 90.8937C314.509 90.9604 314.415 90.9937 314.309 90.9937H307.909L308.109 90.7737V97.1137L308.029 97.0137H315.209C315.315 97.0137 315.409 97.0537 315.489 97.1337C315.569 97.2137 315.609 97.3071 315.609 97.4137C315.609 97.5337 315.569 97.6337 315.489 97.7137C315.409 97.7804 315.315 97.8137 315.209 97.8137H307.669C307.562 97.8137 307.469 97.7737 307.389 97.6937C307.309 97.6137 307.269 97.5204 307.269 97.4137V84.2137C307.269 84.1071 307.309 84.0137 307.389 83.9337C307.469 83.8537 307.562 83.8137 307.669 83.8137ZM343.936 97.9137C343.83 97.9137 343.736 97.8671 343.656 97.7737L337.616 90.2937L338.256 89.6537L344.296 97.2137C344.363 97.3071 344.396 97.4004 344.396 97.4937C344.396 97.6537 344.336 97.7604 344.216 97.8137C344.11 97.8804 344.016 97.9137 343.936 97.9137ZM343.576 83.8937C343.683 83.8937 343.776 83.9337 343.856 84.0137C343.936 84.0937 343.976 84.1871 343.976 84.2937C343.976 84.4004 343.936 84.4937 343.856 84.5737L334.536 93.2537L334.356 92.3937L343.296 84.0137C343.376 83.9337 343.47 83.8937 343.576 83.8937ZM334.236 97.8137C334.103 97.8137 333.996 97.7737 333.916 97.6937C333.85 97.6137 333.816 97.5137 333.816 97.3937V84.2337C333.816 84.1137 333.856 84.0137 333.936 83.9337C334.016 83.8537 334.116 83.8137 334.236 83.8137C334.356 83.8137 334.456 83.8537 334.536 83.9337C334.616 84.0137 334.656 84.1137 334.656 84.2337V97.3937C334.643 97.5137 334.596 97.6137 334.516 97.6937C334.436 97.7737 334.343 97.8137 334.236 97.8137Z" fill="black"/>
<path d="M197.408 48.5417C199.093 48.5417 200.683 48.2857 202.176 47.7737C203.669 47.2617 204.811 46.7497 205.6 46.2377L210.336 55.6777C209.333 56.5311 207.605 57.3951 205.152 58.2697C202.72 59.1444 199.84 59.5817 196.512 59.5817C193.397 59.5817 190.464 59.0377 187.712 57.9497C184.96 56.8617 182.517 55.3364 180.384 53.3737C178.272 51.4111 176.619 49.1071 175.424 46.4617C174.229 43.7951 173.632 40.8937 173.632 37.7577C173.632 34.6217 174.229 31.7204 175.424 29.0537C176.619 26.3657 178.272 24.0404 180.384 22.0777C182.496 20.0937 184.928 18.5577 187.68 17.4697C190.453 16.3604 193.397 15.8057 196.512 15.8057C199.84 15.8057 202.72 16.2431 205.152 17.1177C207.605 17.9924 209.333 18.8564 210.336 19.7097L205.6 29.1497C204.811 28.6377 203.669 28.1257 202.176 27.6137C200.683 27.1017 199.093 26.8457 197.408 26.8457C195.317 26.8457 193.525 27.1551 192.032 27.7737C190.56 28.3924 189.355 29.2244 188.416 30.2697C187.477 31.3151 186.784 32.4777 186.336 33.7577C185.909 35.0377 185.696 36.3391 185.696 37.6617C185.696 39.0057 185.909 40.3284 186.336 41.6297C186.784 42.9097 187.477 44.0724 188.416 45.1177C189.355 46.1631 190.56 46.9951 192.032 47.6137C193.525 48.2324 195.317 48.5417 197.408 48.5417ZM243.899 42.4937H231.483V58.8137H220.346V16.5737H231.483V32.7977H243.899V16.5737H254.971V58.8137H243.899V42.4937ZM266.139 16.5737H293.883V26.2697H277.275V32.9577H293.819V42.3337H277.275V49.1177H293.883V58.8137H266.139V16.5737ZM324.929 36.7977L340.481 58.8137H327.233L315.297 40.7337V58.8137H304.161V16.5737H315.297V33.0857L326.177 16.5737H338.721L324.929 36.7977Z" fill="#343A40"/>
<path d="M78.7903 95.1127C81.2735 92.0229 82.153 88.9332 80.1871 85.5345C78.3764 82.3932 75.4793 81.2088 71.6511 81.6208C72.4271 78.84 72.2719 76.1622 70.4094 73.8964C68.547 71.5791 66.0121 70.7037 63.322 70.9097C63.322 68.7469 63.6324 66.5325 63.2185 64.4727C62.8046 62.2584 61.2526 60.662 59.1833 59.6321C55.6654 57.8298 52.6131 58.7567 48.4227 63.0308C47.6984 59.3231 45.7843 56.5939 42.0595 55.8214C38.2829 54.9975 35.541 56.8513 33.6269 59.4776C29.0743 55.152 24.5735 50.9808 19.9692 46.7067C23.0215 42.0721 25.9186 37.6949 28.8157 33.3693C32.7474 27.3958 36.7309 21.4738 40.6627 15.5003C41.3352 14.4703 41.9043 14.0584 43.2493 14.4188C52.6648 16.6847 62.0803 18.796 71.9097 21.1133C68.547 22.9156 65.4948 24.409 62.5977 26.2114C61.0457 27.1898 59.5454 28.5287 58.459 30.0221C56.3379 33.0603 54.5272 36.253 52.6131 39.4458C51.2163 41.7116 51.1646 44.0804 52.7166 46.2947C54.3203 48.5605 56.5966 49.23 59.3385 48.715C63.5806 47.8911 66.995 45.4708 70.1508 42.793C75.2207 38.4159 80.8596 37.4374 87.378 38.3129C91.7754 38.8793 95.1381 40.6817 98.3973 43.3595C105.278 48.9725 112.417 54.328 119.401 59.7866C121.936 61.7949 122.557 64.9362 120.953 67.202C119.142 69.7253 116.038 70.1887 113.141 68.2834C107.244 64.3697 101.346 60.353 95.4485 56.3879C95.0346 56.0789 94.6208 55.6669 94.1551 55.6154C93.5343 55.5639 92.9135 55.8214 92.2927 55.9244C92.3962 56.4909 92.3962 57.1088 92.6549 57.6238C92.8101 57.9842 93.3274 58.1387 93.7413 58.3962C99.0181 61.9494 104.243 65.4511 109.52 69.0043C112.469 70.9612 113.245 74.1539 111.434 76.7287C109.054 80.1274 105.795 80.8998 102.691 78.7885C98.0352 75.5958 93.4826 72.3516 88.8266 69.1588C88.0506 68.5924 87.1194 67.5625 86.1882 68.8498C85.257 70.1887 86.5503 70.7552 87.4298 71.3731C91.465 74.2054 95.5002 76.9862 99.5354 79.8184C101.553 81.2088 102.174 83.2172 101.708 85.5345C101.294 87.5428 99.4837 89.2937 97.2592 89.3966C95.9141 89.4481 94.3621 88.9847 93.1722 88.2637C89.8095 86.1524 86.6538 83.7321 83.3428 81.5178C82.7738 81.1573 81.7908 81.4148 81.0148 81.3633C81.2735 82.0843 81.377 83.1142 81.8943 83.5261C84.3775 85.4315 87.0159 87.1823 89.5509 88.9847C92.4997 91.096 93.2239 94.1858 91.3615 96.7605C89.0335 99.9533 85.9812 100.571 82.8772 98.4084C81.5839 97.224 80.2906 96.1941 78.7903 95.1127Z" fill="#343A40"/>
<path d="M132.128 46.8612C128.506 50.6204 124.988 54.2251 121.419 57.9328C116.401 54.0191 111.486 50.2085 106.519 46.3463C102.743 43.411 98.9664 40.4243 95.1381 37.5405C94.3621 36.9741 93.3274 36.5621 92.3962 36.3561C90.2234 36.0471 87.9989 36.0986 85.9295 35.5322C81.0148 34.1933 76.7727 36.3046 72.3753 37.7465C71.858 37.901 71.4441 38.3644 70.9785 38.7249C68.4953 40.5788 66.0638 42.6386 63.4254 44.2865C61.9769 45.2134 60.1662 45.8828 58.459 46.0888C57.3209 46.2433 55.6654 45.6253 54.9928 44.7499C54.372 43.9775 54.2686 42.1236 54.7342 41.2482C56.8035 37.4375 59.0281 33.6783 61.6147 30.2281C62.8563 28.5288 64.9257 27.2414 66.8916 26.2114C70.4612 24.4091 74.1343 22.6582 77.9625 21.4223C82.4634 19.9805 87.1194 19.002 91.7237 17.9721C97.5178 16.6847 103.364 15.5003 109.21 14.3674C109.779 14.2644 110.813 14.4704 111.072 14.9339C118.056 25.542 125.04 36.1501 132.128 46.8612Z" fill="#343A40"/>
<path d="M110.968 10.8141C116.452 7.2094 121.832 3.6562 127.368 0C135.645 12.462 143.871 24.8209 152.148 37.2829C146.664 40.8876 141.284 44.4408 135.749 48.097C127.471 35.6351 119.297 23.2761 110.968 10.8141Z" fill="#343A40"/>
<path d="M16.3995 48.097C10.864 44.4408 5.53549 40.9391 0 37.3344C8.27737 24.8724 16.4513 12.5135 24.7804 0C30.2641 3.6047 35.5927 7.10641 41.2316 10.8141C32.9543 23.2246 24.7286 35.5836 16.3995 48.097Z" fill="#343A40"/>
<path d="M61.7697 67.1504C61.2007 68.3863 60.8385 69.7767 60.0108 70.8066C56.6999 74.9263 53.2854 78.9944 49.9228 83.0626C47.8017 85.5344 44.6459 85.9464 42.2145 84.144C39.6795 82.1872 38.9552 78.4795 40.9211 75.9562C44.3873 71.5791 48.0086 67.2534 51.6817 62.9793C53.2337 61.1254 55.6652 60.662 57.7863 61.4344C59.9073 62.2583 61.4076 64.5241 61.7697 67.1504Z" fill="#343A40"/>
<path d="M51.061 87.5428C51.5784 86.4098 51.9405 85.174 52.6648 84.1955C55.0445 81.1573 57.476 78.2735 59.9592 75.3383C62.0285 72.918 65.2878 72.506 67.6675 74.3598C70.0472 76.1622 70.5129 79.5094 68.547 82.0327C66.0638 85.2254 63.4771 88.3152 60.8387 91.3534C59.2349 93.2073 56.9069 93.6193 54.7341 92.7438C52.6648 91.9199 51.3714 89.9631 51.061 87.5428Z" fill="#343A40"/>
<path d="M45.991 63.3913C45.991 66.172 40.1451 73.2784 37.4033 73.9479C35.0753 74.4628 32.8507 73.6389 31.5056 71.6821C30.264 69.8797 30.2123 67.4079 31.6091 65.6056C33.1611 63.5457 34.8683 61.4859 36.6273 59.5806C38.1793 57.8812 40.6625 57.4692 42.8353 58.3962C44.6977 59.1171 45.991 61.1769 45.991 63.3913Z" fill="#343A40"/>
<path d="M69.2714 100.314C66.9434 99.9018 65.3914 99.0264 64.3567 97.1725C63.2703 95.2157 63.322 93.2074 64.6154 91.405C66.1157 89.3452 67.7711 87.3883 69.4783 85.5345C71.4959 83.3717 74.6517 83.2172 76.928 85.071C79.1008 86.7704 79.6181 90.0661 77.8592 92.4349C76.3589 94.4948 74.7552 96.5031 72.9445 98.3054C72.0133 99.2324 70.513 99.6443 69.2714 100.314Z" fill="#343A40"/>
</svg>
