<svg width="24" height="24" viewBox="0 0 24 24" fill="none" xmlns="http://www.w3.org/2000/svg">
<g opacity="0.5">
<path fillRule="evenodd" clipRule="evenodd" d="M3.17157 3.17187C2 4.34344 2 6.22906 2 10.0003V14.0003C2 17.7715 2 19.6572 3.17157 20.8287C4.34315 22.0003 6.22876 22.0003 10 22.0003H14C17.7712 22.0003 19.6569 22.0003 20.8284 20.8287C22 19.6572 22 17.7715 22 14.0003V14.0003V10.0003C22 7.16096 22 5.39048 21.5 4.18886V17.0003C20.5396 17.0003 19.6185 16.6188 18.9393 15.9396L18.1877 15.188C17.4664 14.4667 17.1057 14.106 16.6968 13.954C16.2473 13.787 15.7527 13.787 15.3032 13.954C14.8943 14.106 14.5336 14.4667 13.8123 15.188L13.6992 15.3011C13.1138 15.8865 12.8212 16.1791 12.5102 16.2337C12.2685 16.2761 12.0197 16.2282 11.811 16.0991C11.5425 15.9329 11.3795 15.5525 11.0534 14.7916L11 14.667C10.2504 12.9178 9.87554 12.0432 9.22167 11.7154C8.89249 11.5504 8.52413 11.4795 8.1572 11.5104C7.42836 11.5719 6.75554 12.2448 5.40989 13.5904L3.5 15.5003V2.8877C3.3844 2.9738 3.27519 3.06825 3.17157 3.17187Z" fill="#222222"/>
<path d="M10 3H14C15.9139 3 17.2487 3.00212 18.2558 3.13753C19.2342 3.26907 19.7523 3.50966 20.1213 3.87868C20.4903 4.2477 20.7309 4.76579 20.8625 5.74416C20.9979 6.75129 21 8.08611 21 10V14C21 15.9139 20.9979 17.2487 20.8625 18.2558C20.7309 19.2342 20.4903 19.7523 20.1213 20.1213C19.7523 20.4903 19.2342 20.7309 18.2558 20.8625C17.2487 20.9979 15.9139 21 14 21H10C8.08611 21 6.75129 20.9979 5.74416 20.8625C4.76579 20.7309 4.2477 20.4903 3.87868 20.1213C3.50966 19.7523 3.26907 19.2342 3.13753 18.2558C3.00212 17.2487 3 15.9139 3 14V10C3 8.08611 3.00212 6.75129 3.13753 5.74416C3.26907 4.76579 3.50966 4.2477 3.87868 3.87868C4.2477 3.50966 4.76579 3.26907 5.74416 3.13753C6.75129 3.00212 8.08611 3 10 3Z" stroke="#222222" strokeWidth="2"/>
<circle cx="15" cy="9" r="2" fill="#222222"/>
</g>
</svg>
