 <svg
          width="28"
          height="28"
          viewBox="0 0 28 28"
          fill="none"
          xmlns="http://www.w3.org/2000/svg"
        >
          <path
            fillRule="evenodd"
            clipRule="evenodd"
            d="M6.1537 11.8139C5.8335 12.5101 5.8335 13.3021 5.8335 14.8861V19.8333C5.8335 22.0331 5.8335 23.1331 6.51691 23.8165C7.15575 24.4553 8.15854 24.497 10.0835 24.4997V18.6667C10.0835 17.47 11.0535 16.5 12.2502 16.5H15.7502C16.9468 16.5 17.9168 17.47 17.9168 18.6667V24.4997C19.8418 24.497 20.8446 24.4553 21.4834 23.8165C22.1668 23.1331 22.1668 22.0331 22.1668 19.8333V14.8861C22.1668 13.3021 22.1668 12.5101 21.8466 11.8139C21.5264 11.1177 20.9251 10.6022 19.7224 9.57134L18.5557 8.57134C16.3818 6.70803 15.2949 5.77637 14.0002 5.77637C12.7054 5.77637 11.6185 6.70803 9.44462 8.57134L8.27796 9.57134C7.07526 10.6022 6.47391 11.1177 6.1537 11.8139ZM15.9168 24.4999V18.6667C15.9168 18.5746 15.8422 18.5 15.7502 18.5H12.2502C12.1581 18.5 12.0835 18.5746 12.0835 18.6667V24.4999H15.9168Z"
            fill="#7B2CBF"
          />
        </svg>